NotoSansKhmer-Light.ufo
<glyph name="hyphen" format="2">
  <advance width="322"/>
  <unicode hex="002D"/>
  <note>
hyphen
</note>
  <outline>
    <contour>
      <point x="54" y="254" type="line"/>
      <point x="268" y="254" type="line"/>
      <point x="268" y="282" type="line"/>
      <point x="54" y="282" type="line"/>
    </contour>
  </outline>
</glyph>
<glyph name="guillemotleft" format="2">
  <advance width="389"/>
  <unicode hex="00AB"/>
  <note>
guillemotleft
</note>
  <outline>
    <contour>
      <point x="26" y="285" type="line"/>
      <point x="26" y="272" type="line"/>
      <point x="178" y="87" type="line"/>
      <point x="194" y="98" type="line"/>
      <point x="57" y="279" type="line"/>
      <point x="194" y="460" type="line"/>
      <point x="178" y="472" type="line"/>
    </contour>
    <contour>
      <point x="195" y="285" type="line"/>
      <point x="195" y="272" type="line"/>
      <point x="347" y="87" type="line"/>
      <point x="363" y="98" type="line"/>
      <point x="226" y="279" type="line"/>
      <point x="363" y="460" type="line"/>
      <point x="347" y="472" type="line"/>
    </contour>
  </outline>
</glyph>
<glyph name="uni00AD" format="2">
  <advance width="322"/>
  <unicode hex="00AD"/>
  <note>
uni00AD
</note>
  <outline>
    <contour>
      <point x="54" y="254" type="line"/>
      <point x="268" y="254" type="line"/>
      <point x="268" y="282" type="line"/>
      <point x="54" y="282" type="line"/>
    </contour>
  </outline>
</glyph>
<glyph name="uni1780" format="2">
  <advance width="591"/>
  <unicode hex="1780"/>
  <note>
uni1780
</note>
  <outline>
    <contour>
      <point x="110" y="560" type="line"/>
      <point x="481" y="560" type="line"/>
      <point x="481" y="586" type="line"/>
      <point x="110" y="586" type="line"/>
    </contour>
    <contour>
      <point x="110" y="0" type="line"/>
      <point x="136" y="0" type="line"/>
      <point x="136" y="312" type="line" smooth="yes"/>
      <point x="136" y="389"/>
      <point x="176" y="433"/>
      <point x="294" y="433" type="curve" smooth="yes"/>
      <point x="412" y="433"/>
      <point x="455" y="393"/>
      <point x="455" y="312" type="curve" smooth="yes"/>
      <point x="455" y="0" type="line"/>
      <point x="481" y="0" type="line"/>
      <point x="481" y="312" type="line" smooth="yes"/>
      <point x="481" y="415"/>
      <point x="422" y="459"/>
      <point x="294" y="459" type="curve" smooth="yes"/>
      <point x="166" y="459"/>
      <point x="110" y="415"/>
      <point x="110" y="312" type="curve" smooth="yes"/>
    </contour>
  </outline>
</glyph>
<glyph name="uni1781" format="2">
  <advance width="591"/>
  <unicode hex="1781"/>
  <note>
uni1781
</note>
  <outline>
    <contour>
      <point x="294" y="0" type="curve" smooth="yes"/>
      <point x="419" y="0"/>
      <point x="481" y="53"/>
      <point x="481" y="158" type="curve" smooth="yes"/>
      <point x="481" y="234" type="line"/>
      <point x="455" y="234" type="line"/>
      <point x="455" y="158" type="line" smooth="yes"/>
      <point x="455" y="69"/>
      <point x="413" y="26"/>
      <point x="294" y="26" type="curve" smooth="yes"/>
      <point x="174" y="26"/>
      <point x="136" y="67"/>
      <point x="136" y="158" type="curve" smooth="yes"/>
      <point x="136" y="262" type="line"/>
      <point x="260" y="275" type="line" smooth="yes"/>
      <point x="397" y="289"/>
      <point x="481" y="338"/>
      <point x="481" y="444" type="curve" smooth="yes"/>
      <point x="481" y="539"/>
      <point x="419" y="586"/>
      <point x="294" y="586" type="curve" smooth="yes"/>
      <point x="173" y="586"/>
      <point x="110" y="522"/>
      <point x="110" y="432" type="curve" smooth="yes"/>
      <point x="110" y="390"/>
      <point x="136" y="351"/>
      <point x="176" y="351" type="curve" smooth="yes"/>
      <point x="182" y="351" type="line"/>
      <point x="182" y="375" type="line"/>
      <point x="159" y="375"/>
      <point x="136" y="395"/>
      <point x="136" y="432" type="curve" smooth="yes"/>
      <point x="136" y="520"/>
      <point x="187" y="560"/>
      <point x="294" y="560" type="curve" smooth="yes"/>
      <point x="413" y="560"/>
      <point x="455" y="523"/>
      <point x="455" y="444" type="curve" smooth="yes"/>
      <point x="455" y="359"/>
      <point x="386" y="312"/>
      <point x="254" y="300" type="curve" smooth="yes"/>
      <point x="110" y="286" type="line"/>
      <point x="110" y="158" type="line" smooth="yes"/>
      <point x="110" y="45"/>
      <point x="169" y="0"/>
    </contour>
  </outline>
</glyph>
<glyph name="uni1784" format="2">
  <advance width="589"/>
  <unicode hex="1784"/>
  <note>
uni1784
</note>
  <outline>
    <contour>
      <point x="108" y="0" type="line"/>
      <point x="141" y="0" type="line"/>
      <point x="295" y="134" type="line"/>
      <point x="448" y="0" type="line"/>
      <point x="479" y="0" type="line"/>
      <point x="479" y="341" type="line" smooth="yes"/>
      <point x="479" y="382"/>
      <point x="464" y="433"/>
      <point x="403" y="461" type="curve"/>
      <point x="412" y="470"/>
      <point x="415" y="478"/>
      <point x="415" y="490" type="curve" smooth="yes"/>
      <point x="415" y="511"/>
      <point x="398" y="526"/>
      <point x="378" y="526" type="curve" smooth="yes"/>
      <point x="354" y="526"/>
      <point x="338" y="507"/>
      <point x="338" y="489" type="curve" smooth="yes"/>
      <point x="338" y="472"/>
      <point x="345" y="463"/>
      <point x="355" y="455" type="curve"/>
      <point x="330" y="436"/>
      <point x="275" y="429"/>
      <point x="242" y="429" type="curve" smooth="yes"/>
      <point x="185" y="429"/>
      <point x="134" y="468"/>
      <point x="134" y="522" type="curve" smooth="yes"/>
      <point x="134" y="674" type="line"/>
      <point x="108" y="674" type="line"/>
      <point x="108" y="522" type="line" smooth="yes"/>
      <point x="108" y="444"/>
      <point x="178" y="403"/>
      <point x="242" y="403" type="curve" smooth="yes"/>
      <point x="285" y="403"/>
      <point x="343" y="417"/>
      <point x="383" y="443" type="curve"/>
      <point x="415" y="431"/>
      <point x="453" y="399"/>
      <point x="453" y="335" type="curve" smooth="yes"/>
      <point x="453" y="31" type="line"/>
      <point x="295" y="169" type="line"/>
      <point x="134" y="29" type="line"/>
      <point x="134" y="318" type="line" smooth="yes"/>
      <point x="134" y="339"/>
      <point x="126" y="346"/>
      <point x="99" y="346" type="curve" smooth="yes"/>
      <point x="60" y="346" type="line"/>
      <point x="60" y="320" type="line"/>
      <point x="97" y="320"/>
      <point x="108" y="321"/>
      <point x="108" y="308" type="curve" smooth="yes"/>
    </contour>
  </outline>
</glyph>
<glyph name="uni1787" format="2">
  <advance width="593"/>
  <unicode hex="1787"/>
  <note>
uni1787
</note>
  <outline>
    <contour>
      <point x="110" y="0" type="line"/>
      <point x="143" y="0" type="line"/>
      <point x="297" y="134" type="line"/>
      <point x="450" y="0" type="line"/>
      <point x="483" y="0" type="line"/>
      <point x="483" y="470" type="line"/>
      <point x="457" y="470" type="line"/>
      <point x="457" y="29" type="line"/>
      <point x="297" y="169" type="line"/>
      <point x="136" y="29" type="line"/>
      <point x="136" y="400" type="line"/>
      <point x="103" y="445"/>
      <point x="87" y="458"/>
      <point x="87" y="478" type="curve" smooth="yes"/>
      <point x="87" y="507"/>
      <point x="118" y="543"/>
      <point x="134" y="560" type="curve"/>
      <point x="422" y="560" type="line" smooth="yes"/>
      <point x="463" y="560"/>
      <point x="483" y="575"/>
      <point x="483" y="610" type="curve" smooth="yes"/>
      <point x="483" y="674" type="line"/>
      <point x="457" y="674" type="line"/>
      <point x="457" y="610" type="line" smooth="yes"/>
      <point x="457" y="593"/>
      <point x="452" y="586"/>
      <point x="417" y="586" type="curve" smooth="yes"/>
      <point x="132" y="586" type="line"/>
      <point x="78" y="521"/>
      <point x="60" y="491"/>
      <point x="60" y="466" type="curve" smooth="yes"/>
      <point x="60" y="451"/>
      <point x="80" y="436"/>
      <point x="110" y="384" type="curve"/>
    </contour>
  </outline>
</glyph>
<glyph name="uni178A" format="2">
  <advance width="594"/>
  <unicode hex="178A"/>
  <note>
uni178A
</note>
  <outline>
    <contour>
      <point x="113" y="489" type="line"/>
      <point x="409" y="489" type="line" smooth="yes"/>
      <point x="441" y="489"/>
      <point x="484" y="498"/>
      <point x="484" y="566" type="curve" smooth="yes"/>
      <point x="484" y="674" type="line"/>
      <point x="458" y="674" type="line"/>
      <point x="458" y="567" type="line" smooth="yes"/>
      <point x="458" y="533"/>
      <point x="449" y="513"/>
      <point x="392" y="513" type="curve" smooth="yes"/>
      <point x="137" y="513" type="line"/>
      <point x="137" y="610" type="line"/>
      <point x="113" y="610" type="line"/>
    </contour>
    <contour>
      <point x="110" y="0" type="line"/>
      <point x="142" y="0" type="line"/>
      <point x="298" y="135" type="line"/>
      <point x="452" y="0" type="line"/>
      <point x="484" y="0" type="line"/>
      <point x="484" y="402" type="line"/>
      <point x="458" y="402" type="line"/>
      <point x="458" y="30" type="line"/>
      <point x="298" y="170" type="line"/>
      <point x="136" y="30" type="line"/>
      <point x="136" y="402" type="line"/>
      <point x="110" y="402" type="line"/>
    </contour>
  </outline>
</glyph>
<glyph name="uni178B" format="2">
  <advance width="628"/>
  <unicode hex="178B"/>
  <note>
uni178B
</note>
  <outline>
    <contour>
      <point x="318" y="0" type="curve" smooth="yes"/>
      <point x="443" y="0"/>
      <point x="505" y="53"/>
      <point x="505" y="158" type="curve" smooth="yes"/>
      <point x="505" y="395" type="line"/>
      <point x="383" y="506" type="line"/>
      <point x="421" y="560" type="line"/>
      <point x="471" y="560" type="line" smooth="yes"/>
      <point x="509" y="560"/>
      <point x="518" y="575"/>
      <point x="518" y="611" type="curve" smooth="yes"/>
      <point x="518" y="674" type="line"/>
      <point x="492" y="674" type="line"/>
      <point x="492" y="615" type="line" smooth="yes"/>
      <point x="492" y="593"/>
      <point x="486" y="586"/>
      <point x="468" y="586" type="curve" smooth="yes"/>
      <point x="413" y="586" type="line"/>
      <point x="402" y="572"/>
      <point x="361" y="526"/>
      <point x="361" y="506" type="curve" smooth="yes"/>
      <point x="361" y="491"/>
      <point x="381" y="473"/>
      <point x="479" y="384" type="curve"/>
      <point x="479" y="158" type="line" smooth="yes"/>
      <point x="479" y="64"/>
      <point x="426" y="26"/>
      <point x="318" y="26" type="curve" smooth="yes"/>
      <point x="219" y="26"/>
      <point x="158" y="64"/>
      <point x="158" y="157" type="curve" smooth="yes"/>
      <point x="158" y="553" type="line" smooth="yes"/>
      <point x="158" y="582"/>
      <point x="144" y="586"/>
      <point x="117" y="586" type="curve" smooth="yes"/>
      <point x="60" y="586" type="line"/>
      <point x="60" y="560" type="line"/>
      <point x="108" y="560"/>
      <point x="132" y="560"/>
      <point x="132" y="545" type="curve" smooth="yes"/>
      <point x="132" y="158" type="line" smooth="yes"/>
      <point x="132" y="53"/>
      <point x="194" y="0"/>
    </contour>
  </outline>
</glyph>
<glyph name="uni178D" format="2">
  <advance width="885"/>
  <unicode hex="178D"/>
  <note>
uni178D
</note>
  <outline>
    <contour>
      <point x="772" y="387" type="line"/>
      <point x="746" y="387" type="line"/>
      <point x="746" y="138" type="line" smooth="yes"/>
      <point x="746" y="69"/>
      <point x="697" y="26"/>
      <point x="642" y="26" type="curve" smooth="yes"/>
      <point x="580" y="26"/>
      <point x="530" y="64"/>
      <point x="511" y="171" type="curve"/>
      <point x="476" y="171" type="line"/>
      <point x="476" y="145" type="line"/>
      <point x="493" y="145" type="line"/>
      <point x="516" y="36"/>
      <point x="577" y="0"/>
      <point x="642" y="0" type="curve" smooth="yes"/>
      <point x="714" y="0"/>
      <point x="772" y="50"/>
      <point x="772" y="148" type="curve" smooth="yes"/>
    </contour>
    <contour>
      <point x="110" y="187" type="line"/>
      <point x="136" y="187" type="line"/>
      <point x="136" y="458" type="line" smooth="yes"/>
      <point x="136" y="526"/>
      <point x="154" y="560"/>
      <point x="201" y="560" type="curve" smooth="yes"/>
      <point x="248" y="560"/>
      <point x="271" y="499"/>
      <point x="297" y="499" type="curve" smooth="yes"/>
      <point x="327" y="499"/>
      <point x="340" y="559"/>
      <point x="402" y="559" type="curve" smooth="yes"/>
      <point x="440" y="559"/>
      <point x="458" y="524"/>
      <point x="458" y="451" type="curve" smooth="yes"/>
      <point x="458" y="0" type="line"/>
      <point x="484" y="0" type="line"/>
      <point x="484" y="451" type="line" smooth="yes"/>
      <point x="484" y="540"/>
      <point x="460" y="585"/>
      <point x="403" y="585" type="curve" smooth="yes"/>
      <point x="361" y="585"/>
      <point x="334" y="565"/>
      <point x="298" y="525" type="curve"/>
      <point x="296" y="525" type="line"/>
      <point x="265" y="564"/>
      <point x="238" y="586"/>
      <point x="201" y="586" type="curve" smooth="yes"/>
      <point x="140" y="586"/>
      <point x="110" y="540"/>
      <point x="110" y="461" type="curve" smooth="yes"/>
    </contour>
    <contour>
      <point x="110" y="208" type="line" smooth="yes"/>
      <point x="110" y="27" type="line" smooth="yes"/>
      <point x="110" y="3"/>
      <point x="126" y="0"/>
      <point x="139" y="0" type="curve" smooth="yes"/>
      <point x="142" y="0" type="line" smooth="yes"/>
      <point x="178" y="0"/>
      <point x="221" y="33"/>
      <point x="221" y="94" type="curve" smooth="yes"/>
      <point x="221" y="149"/>
      <point x="178" y="168"/>
      <point x="136" y="168" type="curve"/>
      <point x="136" y="208" type="line"/>
    </contour>
    <contour>
      <point x="136" y="26" type="curve"/>
      <point x="136" y="141" type="line"/>
      <point x="180" y="141"/>
      <point x="195" y="121"/>
      <point x="195" y="91" type="curve" smooth="yes"/>
      <point x="195" y="68"/>
      <point x="183" y="26"/>
    </contour>
    <contour>
      <point x="746" y="376" type="line"/>
      <point x="772" y="376" type="line"/>
      <point x="772" y="398" type="line"/>
      <point x="690" y="536" type="line"/>
      <point x="698" y="560" type="line"/>
      <point x="791" y="560" type="line"/>
      <point x="791" y="586" type="line"/>
      <point x="700" y="586" type="line"/>
      <point x="685" y="569"/>
      <point x="675" y="547"/>
      <point x="675" y="530" type="curve" smooth="yes"/>
      <point x="675" y="514"/>
      <point x="689" y="486"/>
      <point x="746" y="394" type="curve"/>
    </contour>
  </outline>
</glyph>
<glyph name="uni178F" format="2">
  <advance width="593"/>
  <unicode hex="178F"/>
  <note>
uni178F
</note>
  <outline>
    <contour>
      <point x="110" y="560" type="line"/>
      <point x="481" y="560" type="line"/>
      <point x="481" y="586" type="line"/>
      <point x="110" y="586" type="line"/>
    </contour>
    <contour>
      <point x="110" y="208" type="line" smooth="yes"/>
      <point x="110" y="27" type="line" smooth="yes"/>
      <point x="110" y="3"/>
      <point x="126" y="0"/>
      <point x="139" y="0" type="curve" smooth="yes"/>
      <point x="142" y="0" type="line" smooth="yes"/>
      <point x="178" y="0"/>
      <point x="221" y="33"/>
      <point x="221" y="94" type="curve" smooth="yes"/>
      <point x="221" y="149"/>
      <point x="178" y="168"/>
      <point x="136" y="168" type="curve"/>
      <point x="136" y="208" type="line"/>
    </contour>
    <contour>
      <point x="136" y="26" type="curve"/>
      <point x="136" y="141" type="line"/>
      <point x="180" y="141"/>
      <point x="195" y="121"/>
      <point x="195" y="91" type="curve" smooth="yes"/>
      <point x="195" y="68"/>
      <point x="183" y="26"/>
    </contour>
    <contour>
      <point x="110" y="186" type="line"/>
      <point x="136" y="186" type="line"/>
      <point x="136" y="312" type="line"/>
      <point x="136" y="394"/>
      <point x="189" y="444"/>
      <point x="296" y="444" type="curve" smooth="yes"/>
      <point x="403" y="444"/>
      <point x="457" y="394"/>
      <point x="457" y="312" type="curve" smooth="yes"/>
      <point x="457" y="0" type="line"/>
      <point x="483" y="0" type="line"/>
      <point x="483" y="312" type="line" smooth="yes"/>
      <point x="483" y="417"/>
      <point x="421" y="470"/>
      <point x="296" y="470" type="curve" smooth="yes"/>
      <point x="172" y="470"/>
      <point x="110" y="417"/>
      <point x="110" y="312" type="curve"/>
    </contour>
    <contour>
      <point x="110" y="208" type="line" smooth="yes"/>
      <point x="110" y="27" type="line" smooth="yes"/>
      <point x="110" y="3"/>
      <point x="126" y="0"/>
      <point x="139" y="0" type="curve" smooth="yes"/>
      <point x="142" y="0" type="line" smooth="yes"/>
      <point x="178" y="0"/>
      <point x="221" y="33"/>
      <point x="221" y="94" type="curve" smooth="yes"/>
      <point x="221" y="149"/>
      <point x="178" y="168"/>
      <point x="136" y="168" type="curve"/>
      <point x="136" y="208" type="line"/>
    </contour>
    <contour>
      <point x="136" y="26" type="curve"/>
      <point x="136" y="141" type="line"/>
      <point x="180" y="141"/>
      <point x="195" y="121"/>
      <point x="195" y="91" type="curve" smooth="yes"/>
      <point x="195" y="68"/>
      <point x="183" y="26"/>
    </contour>
  </outline>
</glyph>
<glyph name="uni1791" format="2">
  <advance width="574"/>
  <unicode hex="1791"/>
  <note>
uni1791
</note>
  <outline>
    <contour>
      <point x="283" y="0" type="curve" smooth="yes"/>
      <point x="390" y="0"/>
      <point x="443" y="53"/>
      <point x="443" y="158" type="curve" smooth="yes"/>
      <point x="443" y="242" type="line"/>
      <point x="460" y="244"/>
      <point x="474" y="258"/>
      <point x="474" y="274" type="curve" smooth="yes"/>
      <point x="474" y="290"/>
      <point x="464" y="301"/>
      <point x="448" y="301" type="curve" smooth="yes"/>
      <point x="431" y="301"/>
      <point x="419" y="288"/>
      <point x="417" y="264" type="curve"/>
      <point x="211" y="297"/>
      <point x="125" y="331"/>
      <point x="125" y="428" type="curve" smooth="yes"/>
      <point x="125" y="519"/>
      <point x="166" y="560"/>
      <point x="286" y="560" type="curve" smooth="yes"/>
      <point x="393" y="560"/>
      <point x="447" y="514"/>
      <point x="447" y="438" type="curve" smooth="yes"/>
      <point x="447" y="414" type="line"/>
      <point x="473" y="414" type="line"/>
      <point x="473" y="438" type="line" smooth="yes"/>
      <point x="473" y="522"/>
      <point x="410" y="586"/>
      <point x="286" y="586" type="curve" smooth="yes"/>
      <point x="155" y="586"/>
      <point x="100" y="529"/>
      <point x="100" y="428" type="curve" smooth="yes"/>
      <point x="100" y="322"/>
      <point x="179" y="277"/>
      <point x="417" y="242" type="curve"/>
      <point x="417" y="158" type="line" smooth="yes"/>
      <point x="417" y="78"/>
      <point x="370" y="26"/>
      <point x="283" y="26" type="curve" smooth="yes"/>
      <point x="196" y="26"/>
      <point x="150" y="77"/>
      <point x="150" y="158" type="curve" smooth="yes"/>
      <point x="150" y="246" type="line"/>
      <point x="124" y="246" type="line"/>
      <point x="124" y="158" type="line" smooth="yes"/>
      <point x="124" y="53"/>
      <point x="177" y="0"/>
    </contour>
  </outline>
</glyph>
<glyph name="uni1793" format="2">
  <advance width="599"/>
  <unicode hex="1793"/>
  <note>
uni1793
</note>
  <outline>
    <contour>
      <point x="110" y="0" type="line"/>
      <point x="136" y="0" type="line"/>
      <point x="136" y="142" type="line"/>
      <point x="218" y="142"/>
      <point x="231" y="116"/>
      <point x="291" y="50" type="curve" smooth="yes"/>
      <point x="313" y="26"/>
      <point x="345" y="0"/>
      <point x="389" y="0" type="curve" smooth="yes"/>
      <point x="452" y="0"/>
      <point x="489" y="60"/>
      <point x="489" y="134" type="curve" smooth="yes"/>
      <point x="489" y="235"/>
      <point x="405" y="262"/>
      <point x="299" y="289" type="curve" smooth="yes"/>
      <point x="229" y="307"/>
      <point x="136" y="337"/>
      <point x="136" y="427" type="curve" smooth="yes"/>
      <point x="136" y="508"/>
      <point x="179" y="560"/>
      <point x="299" y="560" type="curve" smooth="yes"/>
      <point x="376" y="560"/>
      <point x="457" y="524"/>
      <point x="457" y="446" type="curve" smooth="yes"/>
      <point x="457" y="397"/>
      <point x="427" y="363"/>
      <point x="394" y="363" type="curve"/>
      <point x="394" y="337" type="line"/>
      <point x="396" y="337" type="line" smooth="yes"/>
      <point x="440" y="337"/>
      <point x="483" y="381"/>
      <point x="483" y="446" type="curve" smooth="yes"/>
      <point x="483" y="540"/>
      <point x="392" y="586"/>
      <point x="299" y="586" type="curve" smooth="yes"/>
      <point x="162" y="586"/>
      <point x="110" y="518"/>
      <point x="110" y="427" type="curve" smooth="yes"/>
      <point x="110" y="312"/>
      <point x="223" y="282"/>
      <point x="301" y="262" type="curve" smooth="yes"/>
      <point x="399" y="237"/>
      <point x="463" y="209"/>
      <point x="463" y="131" type="curve" smooth="yes"/>
      <point x="463" y="81"/>
      <point x="439" y="26"/>
      <point x="388" y="26" type="curve" smooth="yes"/>
      <point x="354" y="26"/>
      <point x="319" y="58"/>
      <point x="303" y="75" type="curve" smooth="yes"/>
      <point x="259" y="122"/>
      <point x="240" y="168"/>
      <point x="136" y="168" type="curve"/>
      <point x="136" y="246" type="line"/>
      <point x="110" y="246" type="line"/>
    </contour>
  </outline>
</glyph>
<glyph name="uni1794" format="2">
  <advance width="593"/>
  <unicode hex="1794"/>
  <note>
uni1794
</note>
  <outline>
    <contour>
      <point x="137" y="383" type="line"/>
      <point x="111" y="383" type="line"/>
      <point x="111" y="158" type="line" smooth="yes"/>
      <point x="111" y="53"/>
      <point x="173" y="0"/>
      <point x="297" y="0" type="curve" smooth="yes"/>
      <point x="422" y="0"/>
      <point x="484" y="53"/>
      <point x="484" y="158" type="curve" smooth="yes"/>
      <point x="484" y="383" type="line"/>
      <point x="458" y="383" type="line"/>
      <point x="458" y="158" type="line" smooth="yes"/>
      <point x="458" y="75"/>
      <point x="404" y="25"/>
      <point x="297" y="25" type="curve" smooth="yes"/>
      <point x="190" y="25"/>
      <point x="137" y="75"/>
      <point x="137" y="158" type="curve" smooth="yes"/>
    </contour>
    <contour>
      <point x="458" y="376" type="line"/>
      <point x="484" y="376" type="line"/>
      <point x="484" y="398" type="line"/>
      <point x="402" y="536" type="line"/>
      <point x="410" y="560" type="line"/>
      <point x="503" y="560" type="line"/>
      <point x="503" y="586" type="line"/>
      <point x="412" y="586" type="line"/>
      <point x="397" y="569"/>
      <point x="387" y="547"/>
      <point x="387" y="530" type="curve" smooth="yes"/>
      <point x="387" y="514"/>
      <point x="401" y="486"/>
      <point x="458" y="394" type="curve"/>
    </contour>
    <contour>
      <point x="111" y="376" type="line"/>
      <point x="137" y="376" type="line"/>
      <point x="137" y="398" type="line"/>
      <point x="55" y="536" type="line"/>
      <point x="63" y="560" type="line"/>
      <point x="156" y="560" type="line"/>
      <point x="156" y="586" type="line"/>
      <point x="65" y="586" type="line"/>
      <point x="50" y="569"/>
      <point x="40" y="547"/>
      <point x="40" y="530" type="curve" smooth="yes"/>
      <point x="40" y="514"/>
      <point x="54" y="486"/>
      <point x="111" y="394" type="curve"/>
    </contour>
  </outline>
</glyph>
<glyph name="uni1795" format="2">
  <advance width="593"/>
  <unicode hex="1795"/>
  <note>
uni1795
</note>
  <outline>
    <contour>
      <point x="483" y="244" type="line"/>
      <point x="457" y="244" type="line"/>
      <point x="457" y="30" type="line"/>
      <point x="297" y="169" type="line"/>
      <point x="136" y="29" type="line"/>
      <point x="136" y="394" type="line"/>
      <point x="103" y="437"/>
      <point x="87" y="458"/>
      <point x="87" y="474" type="curve" smooth="yes"/>
      <point x="87" y="505"/>
      <point x="119" y="543"/>
      <point x="135" y="560" type="curve"/>
      <point x="423" y="560" type="line" smooth="yes"/>
      <point x="473" y="560"/>
      <point x="483" y="581"/>
      <point x="483" y="623" type="curve" smooth="yes"/>
      <point x="483" y="674" type="line"/>
      <point x="457" y="674" type="line"/>
      <point x="457" y="623" type="line" smooth="yes"/>
      <point x="457" y="593"/>
      <point x="446" y="586"/>
      <point x="423" y="586" type="curve" smooth="yes"/>
      <point x="130" y="586" type="line"/>
      <point x="76" y="521"/>
      <point x="60" y="491"/>
      <point x="60" y="470" type="curve" smooth="yes"/>
      <point x="60" y="453"/>
      <point x="74" y="434"/>
      <point x="110" y="384" type="curve"/>
      <point x="110" y="0" type="line"/>
      <point x="143" y="0" type="line"/>
      <point x="297" y="134" type="line"/>
      <point x="450" y="0" type="line"/>
      <point x="483" y="0" type="line"/>
    </contour>
    <contour>
      <point x="483" y="216" type="line"/>
      <point x="483" y="412" type="line" smooth="yes"/>
      <point x="483" y="431"/>
      <point x="476" y="439"/>
      <point x="447" y="439" type="curve" smooth="yes"/>
      <point x="397" y="439"/>
      <point x="364" y="396"/>
      <point x="364" y="354" type="curve" smooth="yes"/>
      <point x="364" y="297"/>
      <point x="419" y="268"/>
      <point x="457" y="268" type="curve"/>
      <point x="457" y="216" type="line"/>
    </contour>
    <contour>
      <point x="457" y="295" type="line"/>
      <point x="413" y="295"/>
      <point x="390" y="329"/>
      <point x="390" y="354" type="curve" smooth="yes"/>
      <point x="390" y="377"/>
      <point x="399" y="413"/>
      <point x="457" y="413" type="curve"/>
    </contour>
  </outline>
</glyph>
<glyph name="uni1796" format="2">
  <advance width="594"/>
  <unicode hex="1796"/>
  <note>
uni1796
</note>
  <outline>
    <contour>
      <point x="110" y="187" type="line"/>
      <point x="136" y="187" type="line"/>
      <point x="136" y="458" type="line" smooth="yes"/>
      <point x="136" y="526"/>
      <point x="154" y="560"/>
      <point x="201" y="560" type="curve" smooth="yes"/>
      <point x="248" y="560"/>
      <point x="271" y="499"/>
      <point x="297" y="499" type="curve" smooth="yes"/>
      <point x="327" y="499"/>
      <point x="340" y="559"/>
      <point x="402" y="559" type="curve" smooth="yes"/>
      <point x="440" y="559"/>
      <point x="458" y="524"/>
      <point x="458" y="451" type="curve" smooth="yes"/>
      <point x="458" y="0" type="line"/>
      <point x="484" y="0" type="line"/>
      <point x="484" y="451" type="line" smooth="yes"/>
      <point x="484" y="540"/>
      <point x="460" y="585"/>
      <point x="403" y="585" type="curve" smooth="yes"/>
      <point x="361" y="585"/>
      <point x="334" y="565"/>
      <point x="298" y="525" type="curve"/>
      <point x="296" y="525" type="line"/>
      <point x="265" y="564"/>
      <point x="238" y="586"/>
      <point x="201" y="586" type="curve" smooth="yes"/>
      <point x="140" y="586"/>
      <point x="110" y="540"/>
      <point x="110" y="461" type="curve" smooth="yes"/>
    </contour>
    <contour>
      <point x="110" y="208" type="line" smooth="yes"/>
      <point x="110" y="27" type="line" smooth="yes"/>
      <point x="110" y="3"/>
      <point x="126" y="0"/>
      <point x="139" y="0" type="curve" smooth="yes"/>
      <point x="142" y="0" type="line" smooth="yes"/>
      <point x="178" y="0"/>
      <point x="221" y="33"/>
      <point x="221" y="94" type="curve" smooth="yes"/>
      <point x="221" y="149"/>
      <point x="178" y="168"/>
      <point x="136" y="168" type="curve"/>
      <point x="136" y="208" type="line"/>
    </contour>
    <contour>
      <point x="136" y="26" type="curve"/>
      <point x="136" y="141" type="line"/>
      <point x="180" y="141"/>
      <point x="195" y="121"/>
      <point x="195" y="91" type="curve" smooth="yes"/>
      <point x="195" y="68"/>
      <point x="183" y="26"/>
    </contour>
  </outline>
</glyph>
<glyph name="uni1797" format="2">
  <advance width="600"/>
  <unicode hex="1797"/>
  <note>
uni1797
</note>
  <outline>
    <contour>
      <point x="117" y="560" type="line"/>
      <point x="490" y="560" type="line"/>
      <point x="490" y="586" type="line"/>
      <point x="117" y="586" type="line"/>
    </contour>
    <contour>
      <point x="106" y="-2" type="curve" smooth="yes"/>
      <point x="153" y="-2"/>
      <point x="163" y="46"/>
      <point x="163" y="70" type="curve" smooth="yes"/>
      <point x="163" y="146"/>
      <point x="143" y="232"/>
      <point x="143" y="300" type="curve" smooth="yes"/>
      <point x="143" y="389"/>
      <point x="199" y="432"/>
      <point x="303" y="432" type="curve" smooth="yes"/>
      <point x="407" y="432"/>
      <point x="464" y="397"/>
      <point x="464" y="312" type="curve" smooth="yes"/>
      <point x="464" y="0" type="line"/>
      <point x="490" y="0" type="line"/>
      <point x="490" y="312" type="line" smooth="yes"/>
      <point x="490" y="412"/>
      <point x="436" y="458"/>
      <point x="301" y="458" type="curve" smooth="yes"/>
      <point x="182" y="458"/>
      <point x="117" y="399"/>
      <point x="117" y="300" type="curve" smooth="yes"/>
      <point x="117" y="228"/>
      <point x="137" y="133"/>
      <point x="137" y="70" type="curve" smooth="yes"/>
      <point x="137" y="48"/>
      <point x="134" y="24"/>
      <point x="107" y="24" type="curve" smooth="yes"/>
      <point x="76" y="24"/>
      <point x="56" y="72"/>
      <point x="41" y="111" type="curve"/>
      <point x="20" y="103" type="line"/>
      <point x="37" y="36"/>
      <point x="65" y="-2"/>
    </contour>
  </outline>
</glyph>
<glyph name="uni179D" format="2">
  <advance width="588"/>
  <unicode hex="179D"/>
  <note>
uni179D
</note>
  <outline>
    <contour>
      <point x="361" y="132" type="line"/>
      <point x="565" y="132" type="line"/>
      <point x="565" y="158" type="line"/>
      <point x="361" y="158" type="line"/>
    </contour>
    <contour>
      <point x="110" y="560" type="line"/>
      <point x="481" y="560" type="line"/>
      <point x="481" y="586" type="line"/>
      <point x="110" y="586" type="line"/>
    </contour>
    <contour>
      <point x="110" y="0" type="line"/>
      <point x="136" y="0" type="line"/>
      <point x="136" y="53" type="line"/>
      <point x="144" y="111"/>
      <point x="182" y="132"/>
      <point x="271" y="132" type="curve" smooth="yes"/>
      <point x="322" y="132" type="line"/>
      <point x="322" y="158" type="line"/>
      <point x="260" y="158" type="line" smooth="yes"/>
      <point x="208" y="158"/>
      <point x="166" y="148"/>
      <point x="136" y="114" type="curve"/>
      <point x="136" y="312" type="line" smooth="yes"/>
      <point x="136" y="389"/>
      <point x="183" y="431"/>
      <point x="294" y="431" type="curve" smooth="yes"/>
      <point x="407" y="431"/>
      <point x="455" y="392"/>
      <point x="455" y="312" type="curve" smooth="yes"/>
      <point x="455" y="0" type="line"/>
      <point x="481" y="0" type="line"/>
      <point x="481" y="312" type="line" smooth="yes"/>
      <point x="481" y="413"/>
      <point x="414" y="457"/>
      <point x="294" y="457" type="curve" smooth="yes"/>
      <point x="176" y="457"/>
      <point x="110" y="415"/>
      <point x="110" y="312" type="curve" smooth="yes"/>
    </contour>
  </outline>
</glyph>
<glyph name="uni17A0" format="2">
  <advance width="903"/>
  <unicode hex="17A0"/>
  <note>
uni17A0
</note>
  <outline>
    <contour>
      <point x="137" y="382" type="line"/>
      <point x="111" y="382" type="line"/>
      <point x="111" y="158" type="line" smooth="yes"/>
      <point x="111" y="53"/>
      <point x="173" y="0"/>
      <point x="297" y="0" type="curve" smooth="yes"/>
      <point x="426" y="0"/>
      <point x="476" y="56"/>
      <point x="476" y="167" type="curve" smooth="yes"/>
      <point x="476" y="428" type="line" smooth="yes"/>
      <point x="476" y="508"/>
      <point x="528" y="560"/>
      <point x="621" y="560" type="curve" smooth="yes"/>
      <point x="716" y="560"/>
      <point x="767" y="509"/>
      <point x="767" y="428" type="curve" smooth="yes"/>
      <point x="767" y="0" type="line"/>
      <point x="793" y="0" type="line"/>
      <point x="793" y="428" type="line" smooth="yes"/>
      <point x="793" y="533"/>
      <point x="734" y="586"/>
      <point x="621" y="586" type="curve" smooth="yes"/>
      <point x="513" y="586"/>
      <point x="450" y="522"/>
      <point x="450" y="428" type="curve" smooth="yes"/>
      <point x="450" y="158" type="line"/>
      <point x="450" y="75"/>
      <point x="404" y="25"/>
      <point x="297" y="25" type="curve" smooth="yes"/>
      <point x="190" y="25"/>
      <point x="137" y="75"/>
      <point x="137" y="158" type="curve" smooth="yes"/>
    </contour>
    <contour>
      <point x="111" y="376" type="line"/>
      <point x="137" y="376" type="line"/>
      <point x="137" y="398" type="line"/>
      <point x="55" y="536" type="line"/>
      <point x="63" y="560" type="line"/>
      <point x="156" y="560" type="line"/>
      <point x="156" y="586" type="line"/>
      <point x="65" y="586" type="line"/>
      <point x="50" y="569"/>
      <point x="40" y="547"/>
      <point x="40" y="530" type="curve" smooth="yes"/>
      <point x="40" y="514"/>
      <point x="54" y="486"/>
      <point x="111" y="394" type="curve"/>
    </contour>
  </outline>
</glyph>
<glyph name="uni17A4" format="2">
  <advance width="869"/>
  <unicode hex="17A4"/>
  <note>
uni17A4
</note>
  <outline>
    <contour>
      <point x="523" y="385" type="line"/>
      <point x="497" y="385" type="line"/>
      <point x="497" y="306" type="line"/>
      <point x="176" y="306" type="line"/>
      <point x="176" y="385" type="line"/>
      <point x="150" y="385" type="line"/>
      <point x="150" y="66" type="line" smooth="yes"/>
      <point x="150" y="32"/>
      <point x="129" y="26"/>
      <point x="60" y="26" type="curve"/>
      <point x="60" y="0" type="line"/>
      <point x="86" y="0" type="line" smooth="yes"/>
      <point x="152" y="0"/>
      <point x="176" y="23"/>
      <point x="176" y="71" type="curve" smooth="yes"/>
      <point x="176" y="279" type="line"/>
      <point x="497" y="279" type="line"/>
      <point x="497" y="66" type="line" smooth="yes"/>
      <point x="497" y="32"/>
      <point x="476" y="26"/>
      <point x="407" y="26" type="curve"/>
      <point x="407" y="0" type="line"/>
      <point x="433" y="0" type="line" smooth="yes"/>
      <point x="499" y="0"/>
      <point x="523" y="23"/>
      <point x="523" y="71" type="curve" smooth="yes"/>
    </contour>
    <contour>
      <point x="497" y="376" type="line"/>
      <point x="523" y="376" type="line"/>
      <point x="523" y="398" type="line"/>
      <point x="441" y="536" type="line"/>
      <point x="449" y="560" type="line"/>
      <point x="542" y="560" type="line"/>
      <point x="542" y="586" type="line"/>
      <point x="451" y="586" type="line"/>
      <point x="436" y="569"/>
      <point x="426" y="547"/>
      <point x="426" y="530" type="curve" smooth="yes"/>
      <point x="426" y="514"/>
      <point x="440" y="486"/>
      <point x="497" y="394" type="curve"/>
    </contour>
    <contour>
      <point x="150" y="376" type="line"/>
      <point x="176" y="376" type="line"/>
      <point x="176" y="398" type="line"/>
      <point x="94" y="536" type="line"/>
      <point x="102" y="560" type="line"/>
      <point x="195" y="560" type="line"/>
      <point x="195" y="586" type="line"/>
      <point x="104" y="586" type="line"/>
      <point x="89" y="569"/>
      <point x="79" y="547"/>
      <point x="79" y="530" type="curve" smooth="yes"/>
      <point x="79" y="514"/>
      <point x="93" y="486"/>
      <point x="150" y="394" type="curve"/>
    </contour>
    <contour>
      <point x="733" y="0" type="line"/>
      <point x="759" y="0" type="line"/>
      <point x="759" y="494" type="line" smooth="yes"/>
      <point x="759" y="568"/>
      <point x="729" y="586"/>
      <point x="635" y="586" type="curve" smooth="yes"/>
      <point x="504" y="586" type="line"/>
      <point x="504" y="560" type="line"/>
      <point x="655" y="560" type="line" smooth="yes"/>
      <point x="716" y="560"/>
      <point x="733" y="535"/>
      <point x="733" y="483" type="curve" smooth="yes"/>
    </contour>
  </outline>
</glyph>
<glyph name="uni17A5" format="2">
  <advance width="594"/>
  <unicode hex="17A5"/>
  <note>
uni17A5
</note>
  <outline>
    <contour>
      <point x="110" y="432" type="curve"/>
      <point x="129" y="450" type="line"/>
      <point x="98" y="482"/>
      <point x="86" y="499"/>
      <point x="86" y="513" type="curve" smooth="yes"/>
      <point x="86" y="530"/>
      <point x="107" y="558"/>
      <point x="118" y="561" type="curve"/>
      <point x="399" y="561" type="line" smooth="yes"/>
      <point x="480" y="561"/>
      <point x="482" y="576"/>
      <point x="482" y="611" type="curve" smooth="yes"/>
      <point x="482" y="685" type="line"/>
      <point x="456" y="685" type="line"/>
      <point x="456" y="611" type="line" smooth="yes"/>
      <point x="456" y="594"/>
      <point x="451" y="587"/>
      <point x="416" y="587" type="curve" smooth="yes"/>
      <point x="116" y="587" type="line"/>
      <point x="83" y="558"/>
      <point x="60" y="532"/>
      <point x="60" y="507" type="curve" smooth="yes"/>
      <point x="60" y="492"/>
      <point x="65" y="479"/>
    </contour>
    <contour>
      <point x="111" y="186" type="line"/>
      <point x="137" y="186" type="line"/>
      <point x="137" y="312" type="line"/>
      <point x="137" y="394"/>
      <point x="190" y="444"/>
      <point x="297" y="444" type="curve" smooth="yes"/>
      <point x="404" y="444"/>
      <point x="458" y="394"/>
      <point x="458" y="312" type="curve" smooth="yes"/>
      <point x="458" y="0" type="line"/>
      <point x="484" y="0" type="line"/>
      <point x="484" y="312" type="line" smooth="yes"/>
      <point x="484" y="417"/>
      <point x="422" y="470"/>
      <point x="297" y="470" type="curve" smooth="yes"/>
      <point x="173" y="470"/>
      <point x="111" y="417"/>
      <point x="111" y="312" type="curve"/>
    </contour>
    <contour>
      <point x="111" y="208" type="line" smooth="yes"/>
      <point x="111" y="27" type="line" smooth="yes"/>
      <point x="111" y="3"/>
      <point x="127" y="0"/>
      <point x="140" y="0" type="curve" smooth="yes"/>
      <point x="143" y="0" type="line" smooth="yes"/>
      <point x="179" y="0"/>
      <point x="222" y="33"/>
      <point x="222" y="94" type="curve" smooth="yes"/>
      <point x="222" y="149"/>
      <point x="179" y="168"/>
      <point x="137" y="168" type="curve"/>
      <point x="137" y="208" type="line"/>
    </contour>
    <contour>
      <point x="137" y="26" type="curve"/>
      <point x="137" y="141" type="line"/>
      <point x="181" y="141"/>
      <point x="196" y="121"/>
      <point x="196" y="91" type="curve" smooth="yes"/>
      <point x="196" y="68"/>
      <point x="184" y="26"/>
    </contour>
  </outline>
</glyph>
<glyph name="uni17A6" format="2">
  <advance width="882"/>
  <unicode hex="17A6"/>
  <note>
uni17A6
</note>
  <outline>
    <contour>
      <point x="772" y="554" type="line"/>
      <point x="746" y="554" type="line"/>
      <point x="746" y="-115" type="line" smooth="yes"/>
      <point x="746" y="-174"/>
      <point x="704" y="-216"/>
      <point x="607" y="-216" type="curve" smooth="yes"/>
      <point x="509" y="-216"/>
      <point x="455" y="-184"/>
      <point x="455" y="-119" type="curve" smooth="yes"/>
      <point x="455" y="-47"/>
      <point x="368" y="-24"/>
      <point x="292" y="-24" type="curve" smooth="yes"/>
      <point x="198" y="-24"/>
      <point x="130" y="-57"/>
      <point x="130" y="-138" type="curve" smooth="yes"/>
      <point x="130" y="-208" type="line" smooth="yes"/>
      <point x="130" y="-232"/>
      <point x="141" y="-244"/>
      <point x="178" y="-244" type="curve" smooth="yes"/>
      <point x="198" y="-244" type="line"/>
      <point x="198" y="-218" type="line"/>
      <point x="173" y="-218"/>
      <point x="156" y="-218"/>
      <point x="156" y="-200" type="curve" smooth="yes"/>
      <point x="156" y="-138" type="line" smooth="yes"/>
      <point x="156" y="-74"/>
      <point x="220" y="-50"/>
      <point x="292" y="-50" type="curve" smooth="yes"/>
      <point x="384" y="-50"/>
      <point x="429" y="-83"/>
      <point x="429" y="-127" type="curve" smooth="yes"/>
      <point x="429" y="-209"/>
      <point x="498" y="-244"/>
      <point x="616" y="-244" type="curve" smooth="yes"/>
      <point x="720" y="-244"/>
      <point x="772" y="-192"/>
      <point x="772" y="-127" type="curve" smooth="yes"/>
    </contour>
    <contour>
      <point x="110" y="186" type="line"/>
      <point x="136" y="186" type="line"/>
      <point x="136" y="424" type="line"/>
      <point x="136" y="506"/>
      <point x="189" y="556"/>
      <point x="296" y="556" type="curve" smooth="yes"/>
      <point x="403" y="556"/>
      <point x="457" y="506"/>
      <point x="457" y="424" type="curve" smooth="yes"/>
      <point x="457" y="0" type="line"/>
      <point x="483" y="0" type="line"/>
      <point x="483" y="424" type="line" smooth="yes"/>
      <point x="483" y="529"/>
      <point x="421" y="582"/>
      <point x="296" y="582" type="curve" smooth="yes"/>
      <point x="172" y="582"/>
      <point x="110" y="529"/>
      <point x="110" y="424" type="curve"/>
    </contour>
    <contour>
      <point x="110" y="208" type="line" smooth="yes"/>
      <point x="110" y="27" type="line" smooth="yes"/>
      <point x="110" y="3"/>
      <point x="126" y="0"/>
      <point x="139" y="0" type="curve" smooth="yes"/>
      <point x="142" y="0" type="line" smooth="yes"/>
      <point x="178" y="0"/>
      <point x="221" y="33"/>
      <point x="221" y="94" type="curve" smooth="yes"/>
      <point x="221" y="149"/>
      <point x="178" y="168"/>
      <point x="136" y="168" type="curve"/>
      <point x="136" y="208" type="line"/>
    </contour>
    <contour>
      <point x="136" y="26" type="curve"/>
      <point x="136" y="141" type="line"/>
      <point x="180" y="141"/>
      <point x="195" y="121"/>
      <point x="195" y="91" type="curve" smooth="yes"/>
      <point x="195" y="68"/>
      <point x="183" y="26"/>
    </contour>
    <contour>
      <point x="746" y="537" type="line"/>
      <point x="772" y="537" type="line"/>
      <point x="772" y="611" type="line" smooth="yes"/>
      <point x="772" y="734"/>
      <point x="706" y="787"/>
      <point x="615" y="787" type="curve" smooth="yes"/>
      <point x="552" y="787"/>
      <point x="511" y="765"/>
      <point x="485" y="735" type="curve"/>
      <point x="485" y="929" type="line"/>
      <point x="459" y="929" type="line"/>
      <point x="459" y="693" type="line"/>
      <point x="485" y="693" type="line"/>
      <point x="509" y="731"/>
      <point x="546" y="761"/>
      <point x="616" y="761" type="curve" smooth="yes"/>
      <point x="703" y="761"/>
      <point x="746" y="708"/>
      <point x="746" y="611" type="curve" smooth="yes"/>
    </contour>
  </outline>
</glyph>
<glyph name="uni17A7" format="2">
  <advance width="593"/>
  <unicode hex="17A7"/>
  <note>
uni17A7
</note>
  <outline>
    <contour>
      <point x="457" y="-18" type="line"/>
      <point x="483" y="-18" type="line"/>
      <point x="483" y="234" type="line"/>
      <point x="457" y="234" type="line"/>
      <point x="457" y="152" type="line" smooth="yes"/>
      <point x="457" y="126"/>
      <point x="352" y="27"/>
      <point x="255" y="27" type="curve" smooth="yes"/>
      <point x="181" y="27"/>
      <point x="136" y="68"/>
      <point x="136" y="158" type="curve" smooth="yes"/>
      <point x="136" y="262" type="line"/>
      <point x="267" y="275" type="line" smooth="yes"/>
      <point x="408" y="289"/>
      <point x="483" y="342"/>
      <point x="483" y="447" type="curve" smooth="yes"/>
      <point x="483" y="533"/>
      <point x="421" y="586"/>
      <point x="296" y="586" type="curve" smooth="yes"/>
      <point x="175" y="586"/>
      <point x="112" y="522"/>
      <point x="112" y="432" type="curve" smooth="yes"/>
      <point x="112" y="390"/>
      <point x="138" y="351"/>
      <point x="180" y="351" type="curve" smooth="yes"/>
      <point x="184" y="351" type="line"/>
      <point x="184" y="375" type="line"/>
      <point x="161" y="375"/>
      <point x="138" y="395"/>
      <point x="138" y="432" type="curve" smooth="yes"/>
      <point x="138" y="520"/>
      <point x="206" y="560"/>
      <point x="296" y="560" type="curve" smooth="yes"/>
      <point x="415" y="560"/>
      <point x="457" y="517"/>
      <point x="457" y="446" type="curve" smooth="yes"/>
      <point x="457" y="353"/>
      <point x="388" y="311"/>
      <point x="250" y="299" type="curve" smooth="yes"/>
      <point x="110" y="286" type="line"/>
      <point x="110" y="158" type="line" smooth="yes"/>
      <point x="110" y="48"/>
      <point x="172" y="1"/>
      <point x="254" y="1" type="curve" smooth="yes"/>
      <point x="333" y="1"/>
      <point x="416" y="55"/>
      <point x="456" y="103" type="curve"/>
      <point x="457" y="103" type="line"/>
    </contour>
  </outline>
</glyph>
<glyph name="uni17AA" format="2">
  <advance width="597"/>
  <unicode hex="17AA"/>
  <note>
uni17AA
</note>
  <outline>
    <contour>
      <point x="119" y="544" type="curve"/>
      <point x="138" y="562" type="line"/>
      <point x="107" y="594"/>
      <point x="95" y="611"/>
      <point x="95" y="625" type="curve" smooth="yes"/>
      <point x="95" y="642"/>
      <point x="116" y="670"/>
      <point x="127" y="673" type="curve"/>
      <point x="407" y="673" type="line" smooth="yes"/>
      <point x="488" y="673"/>
      <point x="490" y="688"/>
      <point x="490" y="723" type="curve" smooth="yes"/>
      <point x="490" y="797" type="line"/>
      <point x="464" y="797" type="line"/>
      <point x="464" y="723" type="line" smooth="yes"/>
      <point x="464" y="706"/>
      <point x="459" y="699"/>
      <point x="424" y="699" type="curve" smooth="yes"/>
      <point x="125" y="699" type="line"/>
      <point x="92" y="670"/>
      <point x="69" y="644"/>
      <point x="69" y="619" type="curve" smooth="yes"/>
      <point x="69" y="604"/>
      <point x="74" y="591"/>
    </contour>
    <contour>
      <point x="464" y="-18" type="line"/>
      <point x="490" y="-18" type="line"/>
      <point x="490" y="234" type="line"/>
      <point x="464" y="234" type="line"/>
      <point x="464" y="152" type="line" smooth="yes"/>
      <point x="464" y="126"/>
      <point x="359" y="27"/>
      <point x="262" y="27" type="curve" smooth="yes"/>
      <point x="188" y="27"/>
      <point x="143" y="68"/>
      <point x="143" y="158" type="curve" smooth="yes"/>
      <point x="143" y="262" type="line"/>
      <point x="274" y="275" type="line" smooth="yes"/>
      <point x="415" y="289"/>
      <point x="490" y="342"/>
      <point x="490" y="447" type="curve" smooth="yes"/>
      <point x="490" y="533"/>
      <point x="428" y="586"/>
      <point x="303" y="586" type="curve" smooth="yes"/>
      <point x="182" y="586"/>
      <point x="119" y="522"/>
      <point x="119" y="432" type="curve" smooth="yes"/>
      <point x="119" y="390"/>
      <point x="145" y="351"/>
      <point x="187" y="351" type="curve" smooth="yes"/>
      <point x="191" y="351" type="line"/>
      <point x="191" y="375" type="line"/>
      <point x="168" y="375"/>
      <point x="145" y="395"/>
      <point x="145" y="432" type="curve" smooth="yes"/>
      <point x="145" y="520"/>
      <point x="213" y="560"/>
      <point x="303" y="560" type="curve" smooth="yes"/>
      <point x="422" y="560"/>
      <point x="464" y="517"/>
      <point x="464" y="446" type="curve" smooth="yes"/>
      <point x="464" y="353"/>
      <point x="395" y="311"/>
      <point x="257" y="299" type="curve" smooth="yes"/>
      <point x="117" y="286" type="line"/>
      <point x="117" y="158" type="line" smooth="yes"/>
      <point x="117" y="48"/>
      <point x="179" y="1"/>
      <point x="261" y="1" type="curve" smooth="yes"/>
      <point x="340" y="1"/>
      <point x="423" y="55"/>
      <point x="463" y="103" type="curve"/>
      <point x="464" y="103" type="line"/>
    </contour>
  </outline>
</glyph>
<glyph name="uni17AC" format="2">
  <advance width="625"/>
  <unicode hex="17AC"/>
  <note>
uni17AC
</note>
  <outline>
    <contour>
      <point x="137" y="383" type="line"/>
      <point x="111" y="383" type="line"/>
      <point x="111" y="158" type="line" smooth="yes"/>
      <point x="111" y="53"/>
      <point x="173" y="0"/>
      <point x="297" y="0" type="curve" smooth="yes"/>
      <point x="422" y="0"/>
      <point x="484" y="53"/>
      <point x="484" y="158" type="curve" smooth="yes"/>
      <point x="484" y="383" type="line"/>
      <point x="458" y="383" type="line"/>
      <point x="458" y="158" type="line" smooth="yes"/>
      <point x="458" y="75"/>
      <point x="404" y="25"/>
      <point x="297" y="25" type="curve" smooth="yes"/>
      <point x="190" y="25"/>
      <point x="137" y="75"/>
      <point x="137" y="158" type="curve" smooth="yes"/>
    </contour>
    <contour>
      <point x="458" y="376" type="line"/>
      <point x="484" y="376" type="line"/>
      <point x="484" y="398" type="line"/>
      <point x="402" y="536" type="line"/>
      <point x="410" y="560" type="line"/>
      <point x="503" y="560" type="line"/>
      <point x="503" y="586" type="line"/>
      <point x="412" y="586" type="line"/>
      <point x="397" y="569"/>
      <point x="387" y="547"/>
      <point x="387" y="530" type="curve" smooth="yes"/>
      <point x="387" y="514"/>
      <point x="401" y="486"/>
      <point x="458" y="394" type="curve"/>
    </contour>
    <contour>
      <point x="111" y="376" type="line"/>
      <point x="137" y="376" type="line"/>
      <point x="137" y="398" type="line"/>
      <point x="55" y="536" type="line"/>
      <point x="63" y="560" type="line"/>
      <point x="156" y="560" type="line"/>
      <point x="156" y="586" type="line"/>
      <point x="65" y="586" type="line"/>
      <point x="50" y="569"/>
      <point x="40" y="547"/>
      <point x="40" y="530" type="curve" smooth="yes"/>
      <point x="40" y="514"/>
      <point x="54" y="486"/>
      <point x="111" y="394" type="curve"/>
    </contour>
    <contour>
      <point x="422" y="-163" type="line"/>
      <point x="443" y="-189"/>
      <point x="480" y="-224"/>
      <point x="523" y="-224" type="curve" smooth="yes"/>
      <point x="545" y="-224" type="line"/>
      <point x="545" y="-198" type="line"/>
      <point x="524" y="-198" type="line" smooth="yes"/>
      <point x="487" y="-198"/>
      <point x="461" y="-174"/>
      <point x="443" y="-144" type="curve"/>
    </contour>
    <contour>
      <point x="111" y="-224" type="line"/>
      <point x="155" y="-224" type="line" smooth="yes"/>
      <point x="397" y="-224"/>
      <point x="484" y="-142"/>
      <point x="484" y="-58" type="curve" smooth="yes"/>
      <point x="484" y="-24" type="line"/>
      <point x="404" y="-24" type="line"/>
      <point x="404" y="-50" type="line"/>
      <point x="458" y="-50" type="line"/>
      <point x="458" y="-147"/>
      <point x="351" y="-199"/>
      <point x="152" y="-199" type="curve" smooth="yes"/>
      <point x="111" y="-199" type="line"/>
    </contour>
  </outline>
</glyph>
<glyph name="uni17AE" format="2">
  <advance width="586"/>
  <unicode hex="17AE"/>
  <note>
uni17AE
</note>
  <outline>
    <contour>
      <point x="110" y="187" type="line"/>
      <point x="136" y="187" type="line"/>
      <point x="136" y="458" type="line" smooth="yes"/>
      <point x="136" y="526"/>
      <point x="154" y="560"/>
      <point x="201" y="560" type="curve" smooth="yes"/>
      <point x="248" y="560"/>
      <point x="271" y="499"/>
      <point x="297" y="499" type="curve" smooth="yes"/>
      <point x="327" y="499"/>
      <point x="340" y="559"/>
      <point x="402" y="559" type="curve" smooth="yes"/>
      <point x="440" y="559"/>
      <point x="458" y="524"/>
      <point x="458" y="451" type="curve" smooth="yes"/>
      <point x="458" y="0" type="line"/>
      <point x="484" y="0" type="line"/>
      <point x="484" y="451" type="line" smooth="yes"/>
      <point x="484" y="540"/>
      <point x="460" y="585"/>
      <point x="403" y="585" type="curve" smooth="yes"/>
      <point x="361" y="585"/>
      <point x="334" y="565"/>
      <point x="298" y="525" type="curve"/>
      <point x="296" y="525" type="line"/>
      <point x="265" y="564"/>
      <point x="238" y="586"/>
      <point x="201" y="586" type="curve" smooth="yes"/>
      <point x="140" y="586"/>
      <point x="110" y="540"/>
      <point x="110" y="461" type="curve" smooth="yes"/>
    </contour>
    <contour>
      <point x="110" y="208" type="line" smooth="yes"/>
      <point x="110" y="27" type="line" smooth="yes"/>
      <point x="110" y="3"/>
      <point x="126" y="0"/>
      <point x="139" y="0" type="curve" smooth="yes"/>
      <point x="142" y="0" type="line" smooth="yes"/>
      <point x="178" y="0"/>
      <point x="221" y="33"/>
      <point x="221" y="94" type="curve" smooth="yes"/>
      <point x="221" y="149"/>
      <point x="178" y="168"/>
      <point x="136" y="168" type="curve"/>
      <point x="136" y="208" type="line"/>
    </contour>
    <contour>
      <point x="136" y="26" type="curve"/>
      <point x="136" y="141" type="line"/>
      <point x="180" y="141"/>
      <point x="195" y="121"/>
      <point x="195" y="91" type="curve" smooth="yes"/>
      <point x="195" y="68"/>
      <point x="183" y="26"/>
    </contour>
    <contour>
      <point x="422" y="-163" type="line"/>
      <point x="443" y="-189"/>
      <point x="480" y="-224"/>
      <point x="523" y="-224" type="curve" smooth="yes"/>
      <point x="545" y="-224" type="line"/>
      <point x="545" y="-198" type="line"/>
      <point x="524" y="-198" type="line" smooth="yes"/>
      <point x="487" y="-198"/>
      <point x="461" y="-174"/>
      <point x="443" y="-144" type="curve"/>
    </contour>
    <contour>
      <point x="111" y="-224" type="line"/>
      <point x="155" y="-224" type="line" smooth="yes"/>
      <point x="397" y="-224"/>
      <point x="484" y="-142"/>
      <point x="484" y="-58" type="curve" smooth="yes"/>
      <point x="484" y="-24" type="line"/>
      <point x="404" y="-24" type="line"/>
      <point x="404" y="-50" type="line"/>
      <point x="458" y="-50" type="line"/>
      <point x="458" y="-147"/>
      <point x="351" y="-199"/>
      <point x="152" y="-199" type="curve" smooth="yes"/>
      <point x="111" y="-199" type="line"/>
    </contour>
  </outline>
</glyph>
<glyph name="uni17AF" format="2">
  <advance width="596"/>
  <unicode hex="17AF"/>
  <note>
uni17AF
</note>
  <outline>
    <contour>
      <point x="114" y="0" type="line"/>
      <point x="146" y="0" type="line"/>
      <point x="302" y="134" type="line"/>
      <point x="455" y="0" type="line"/>
      <point x="486" y="0" type="line"/>
      <point x="486" y="424" type="line" smooth="yes"/>
      <point x="486" y="537"/>
      <point x="436" y="586"/>
      <point x="331" y="586" type="curve" smooth="yes"/>
      <point x="219" y="586" type="line" smooth="yes"/>
      <point x="167" y="586"/>
      <point x="141" y="592"/>
      <point x="141" y="685" type="curve" smooth="yes"/>
      <point x="141" y="742" type="line"/>
      <point x="115" y="742" type="line"/>
      <point x="115" y="657" type="line" smooth="yes"/>
      <point x="115" y="583"/>
      <point x="150" y="560"/>
      <point x="225" y="560" type="curve" smooth="yes"/>
      <point x="336" y="560" type="line" smooth="yes"/>
      <point x="419" y="560"/>
      <point x="460" y="513"/>
      <point x="460" y="438" type="curve" smooth="yes"/>
      <point x="460" y="31" type="line"/>
      <point x="302" y="169" type="line"/>
      <point x="140" y="29" type="line"/>
      <point x="140" y="453" type="line" smooth="yes"/>
      <point x="140" y="474"/>
      <point x="133" y="481"/>
      <point x="106" y="481" type="curve" smooth="yes"/>
      <point x="60" y="481" type="line"/>
      <point x="60" y="455" type="line"/>
      <point x="97" y="455"/>
      <point x="114" y="453"/>
      <point x="114" y="440" type="curve" smooth="yes"/>
    </contour>
  </outline>
</glyph>
<glyph name="uni17B0" format="2">
  <advance width="594"/>
  <unicode hex="17B0"/>
  <note>
uni17B0
</note>
  <outline>
    <contour>
      <point x="110" y="187" type="line"/>
      <point x="136" y="187" type="line"/>
      <point x="136" y="458" type="line" smooth="yes"/>
      <point x="136" y="526"/>
      <point x="154" y="560"/>
      <point x="201" y="560" type="curve" smooth="yes"/>
      <point x="248" y="560"/>
      <point x="271" y="499"/>
      <point x="297" y="499" type="curve" smooth="yes"/>
      <point x="327" y="499"/>
      <point x="340" y="559"/>
      <point x="402" y="559" type="curve" smooth="yes"/>
      <point x="440" y="559"/>
      <point x="458" y="524"/>
      <point x="458" y="451" type="curve" smooth="yes"/>
      <point x="458" y="0" type="line"/>
      <point x="484" y="0" type="line"/>
      <point x="484" y="451" type="line" smooth="yes"/>
      <point x="484" y="540"/>
      <point x="460" y="585"/>
      <point x="403" y="585" type="curve" smooth="yes"/>
      <point x="361" y="585"/>
      <point x="334" y="565"/>
      <point x="298" y="525" type="curve"/>
      <point x="296" y="525" type="line"/>
      <point x="265" y="564"/>
      <point x="238" y="586"/>
      <point x="201" y="586" type="curve" smooth="yes"/>
      <point x="140" y="586"/>
      <point x="110" y="540"/>
      <point x="110" y="461" type="curve" smooth="yes"/>
    </contour>
    <contour>
      <point x="110" y="208" type="line" smooth="yes"/>
      <point x="110" y="27" type="line" smooth="yes"/>
      <point x="110" y="3"/>
      <point x="126" y="0"/>
      <point x="139" y="0" type="curve" smooth="yes"/>
      <point x="142" y="0" type="line" smooth="yes"/>
      <point x="178" y="0"/>
      <point x="221" y="33"/>
      <point x="221" y="94" type="curve" smooth="yes"/>
      <point x="221" y="149"/>
      <point x="178" y="168"/>
      <point x="136" y="168" type="curve"/>
      <point x="136" y="208" type="line"/>
    </contour>
    <contour>
      <point x="136" y="26" type="curve"/>
      <point x="136" y="141" type="line"/>
      <point x="180" y="141"/>
      <point x="195" y="121"/>
      <point x="195" y="91" type="curve" smooth="yes"/>
      <point x="195" y="68"/>
      <point x="183" y="26"/>
    </contour>
    <contour>
      <point x="240" y="-193" type="curve" smooth="yes"/>
      <point x="299" y="-193"/>
      <point x="328" y="-158"/>
      <point x="336" y="-130" type="curve"/>
      <point x="355" y="-148"/>
      <point x="377" y="-158"/>
      <point x="407" y="-158" type="curve" smooth="yes"/>
      <point x="443" y="-158"/>
      <point x="484" y="-148"/>
      <point x="484" y="-84" type="curve" smooth="yes"/>
      <point x="484" y="1" type="line"/>
      <point x="458" y="1" type="line"/>
      <point x="441" y="-10"/>
      <point x="383" y="-25"/>
      <point x="158" y="-74" type="curve"/>
      <point x="158" y="-124" type="line" smooth="yes"/>
      <point x="158" y="-165"/>
      <point x="194" y="-193"/>
    </contour>
    <contour>
      <point x="246" y="-167" type="curve" smooth="yes"/>
      <point x="221" y="-167"/>
      <point x="184" y="-161"/>
      <point x="184" y="-119" type="curve" smooth="yes"/>
      <point x="184" y="-96" type="line"/>
      <point x="312" y="-67" type="line"/>
      <point x="312" y="-98" type="line" smooth="yes"/>
      <point x="312" y="-154"/>
      <point x="278" y="-167"/>
    </contour>
    <contour>
      <point x="458" y="-88" type="line" smooth="yes"/>
      <point x="458" y="-119"/>
      <point x="442" y="-134"/>
      <point x="406" y="-134" type="curve" smooth="yes"/>
      <point x="376" y="-134"/>
      <point x="338" y="-113"/>
      <point x="338" y="-101" type="curve" smooth="yes"/>
      <point x="338" y="-61" type="line"/>
      <point x="458" y="-34" type="line"/>
    </contour>
  </outline>
</glyph>
<glyph name="uni17B1" format="2">
  <advance width="592"/>
  <unicode hex="17B1"/>
  <note>
uni17B1
</note>
  <outline>
    <contour>
      <point x="109" y="544" type="curve"/>
      <point x="128" y="562" type="line"/>
      <point x="97" y="594"/>
      <point x="85" y="611"/>
      <point x="85" y="625" type="curve" smooth="yes"/>
      <point x="85" y="642"/>
      <point x="106" y="670"/>
      <point x="117" y="673" type="curve"/>
      <point x="396" y="673" type="line" smooth="yes"/>
      <point x="459" y="673"/>
      <point x="478" y="636"/>
      <point x="483" y="577" type="curve"/>
      <point x="516" y="595" type="line"/>
      <point x="500" y="663"/>
      <point x="467" y="699"/>
      <point x="386" y="699" type="curve" smooth="yes"/>
      <point x="115" y="699" type="line"/>
      <point x="82" y="670"/>
      <point x="59" y="644"/>
      <point x="59" y="619" type="curve" smooth="yes"/>
      <point x="59" y="604"/>
      <point x="64" y="591"/>
    </contour>
    <contour>
      <point x="459" y="-18" type="line"/>
      <point x="485" y="-18" type="line"/>
      <point x="485" y="234" type="line"/>
      <point x="459" y="234" type="line"/>
      <point x="459" y="152" type="line" smooth="yes"/>
      <point x="459" y="126"/>
      <point x="354" y="27"/>
      <point x="257" y="27" type="curve" smooth="yes"/>
      <point x="183" y="27"/>
      <point x="138" y="68"/>
      <point x="138" y="158" type="curve" smooth="yes"/>
      <point x="138" y="262" type="line"/>
      <point x="269" y="275" type="line" smooth="yes"/>
      <point x="410" y="289"/>
      <point x="485" y="342"/>
      <point x="485" y="447" type="curve" smooth="yes"/>
      <point x="485" y="533"/>
      <point x="423" y="586"/>
      <point x="298" y="586" type="curve" smooth="yes"/>
      <point x="177" y="586"/>
      <point x="114" y="522"/>
      <point x="114" y="432" type="curve" smooth="yes"/>
      <point x="114" y="390"/>
      <point x="140" y="351"/>
      <point x="182" y="351" type="curve" smooth="yes"/>
      <point x="186" y="351" type="line"/>
      <point x="186" y="375" type="line"/>
      <point x="163" y="375"/>
      <point x="140" y="395"/>
      <point x="140" y="432" type="curve" smooth="yes"/>
      <point x="140" y="520"/>
      <point x="208" y="560"/>
      <point x="298" y="560" type="curve" smooth="yes"/>
      <point x="417" y="560"/>
      <point x="459" y="517"/>
      <point x="459" y="446" type="curve" smooth="yes"/>
      <point x="459" y="353"/>
      <point x="390" y="311"/>
      <point x="252" y="299" type="curve" smooth="yes"/>
      <point x="112" y="286" type="line"/>
      <point x="112" y="158" type="line" smooth="yes"/>
      <point x="112" y="48"/>
      <point x="174" y="1"/>
      <point x="256" y="1" type="curve" smooth="yes"/>
      <point x="335" y="1"/>
      <point x="418" y="55"/>
      <point x="458" y="103" type="curve"/>
      <point x="459" y="103" type="line"/>
    </contour>
  </outline>
</glyph>
<glyph name="uni17B2" format="2">
  <advance width="609"/>
  <unicode hex="17B2"/>
  <note>
uni17B2
</note>
  <outline>
    <contour>
      <point x="299" y="0" type="curve" smooth="yes"/>
      <point x="438" y="0"/>
      <point x="519" y="78"/>
      <point x="519" y="175" type="curve" smooth="yes"/>
      <point x="519" y="232"/>
      <point x="479" y="296"/>
      <point x="442" y="331" type="curve"/>
      <point x="487" y="373"/>
      <point x="510" y="384"/>
      <point x="510" y="401" type="curve" smooth="yes"/>
      <point x="510" y="411"/>
      <point x="507" y="414"/>
      <point x="488" y="436" type="curve"/>
      <point x="296" y="436" type="line"/>
      <point x="296" y="410" type="line"/>
      <point x="489" y="410" type="line"/>
      <point x="304" y="245" type="line"/>
      <point x="324" y="225" type="line"/>
      <point x="424" y="315" type="line"/>
      <point x="438" y="301"/>
      <point x="492" y="242"/>
      <point x="492" y="169" type="curve" smooth="yes"/>
      <point x="492" y="76"/>
      <point x="397" y="26"/>
      <point x="299" y="26" type="curve" smooth="yes"/>
      <point x="205" y="26"/>
      <point x="136" y="63"/>
      <point x="136" y="158" type="curve" smooth="yes"/>
      <point x="136" y="428" type="line" smooth="yes"/>
      <point x="136" y="488"/>
      <point x="187" y="559"/>
      <point x="305" y="559" type="curve" smooth="yes"/>
      <point x="362" y="559"/>
      <point x="438" y="543"/>
      <point x="477" y="518" type="curve"/>
      <point x="495" y="541" type="line"/>
      <point x="449" y="568"/>
      <point x="380" y="585"/>
      <point x="311" y="585" type="curve" smooth="yes"/>
      <point x="187" y="585"/>
      <point x="110" y="518"/>
      <point x="110" y="428" type="curve" smooth="yes"/>
      <point x="110" y="158" type="line" smooth="yes"/>
      <point x="110" y="68"/>
      <point x="159" y="0"/>
    </contour>
  </outline>
</glyph>
<glyph name="uni17B3" format="2">
  <advance width="562"/>
  <unicode hex="17B3"/>
  <note>
uni17B3
</note>
  <outline>
    <contour>
      <point x="120" y="544" type="curve"/>
      <point x="139" y="562" type="line"/>
      <point x="108" y="594"/>
      <point x="96" y="611"/>
      <point x="96" y="625" type="curve" smooth="yes"/>
      <point x="96" y="642"/>
      <point x="117" y="670"/>
      <point x="128" y="673" type="curve"/>
      <point x="408" y="673" type="line"/>
      <point x="501" y="567" type="line"/>
      <point x="522" y="584" type="line"/>
      <point x="503" y="635"/>
      <point x="484" y="683"/>
      <point x="422" y="699" type="curve"/>
      <point x="394" y="728"/>
      <point x="374" y="749"/>
      <point x="374" y="791" type="curve" smooth="yes"/>
      <point x="374" y="818"/>
      <point x="381" y="862"/>
      <point x="426" y="908" type="curve"/>
      <point x="405" y="923" type="line"/>
      <point x="367" y="881"/>
      <point x="348" y="834"/>
      <point x="348" y="791" type="curve" smooth="yes"/>
      <point x="348" y="752"/>
      <point x="364" y="722"/>
      <point x="385" y="699" type="curve"/>
      <point x="126" y="699" type="line"/>
      <point x="93" y="670"/>
      <point x="70" y="644"/>
      <point x="70" y="619" type="curve" smooth="yes"/>
      <point x="70" y="604"/>
      <point x="75" y="591"/>
    </contour>
    <contour>
      <point x="460" y="-18" type="line"/>
      <point x="486" y="-18" type="line"/>
      <point x="486" y="234" type="line"/>
      <point x="460" y="234" type="line"/>
      <point x="460" y="152" type="line" smooth="yes"/>
      <point x="460" y="126"/>
      <point x="355" y="27"/>
      <point x="258" y="27" type="curve" smooth="yes"/>
      <point x="184" y="27"/>
      <point x="139" y="68"/>
      <point x="139" y="158" type="curve" smooth="yes"/>
      <point x="139" y="262" type="line"/>
      <point x="270" y="275" type="line" smooth="yes"/>
      <point x="411" y="289"/>
      <point x="486" y="342"/>
      <point x="486" y="447" type="curve" smooth="yes"/>
      <point x="486" y="533"/>
      <point x="424" y="586"/>
      <point x="299" y="586" type="curve" smooth="yes"/>
      <point x="178" y="586"/>
      <point x="115" y="522"/>
      <point x="115" y="432" type="curve" smooth="yes"/>
      <point x="115" y="390"/>
      <point x="141" y="351"/>
      <point x="183" y="351" type="curve" smooth="yes"/>
      <point x="187" y="351" type="line"/>
      <point x="187" y="375" type="line"/>
      <point x="164" y="375"/>
      <point x="141" y="395"/>
      <point x="141" y="432" type="curve" smooth="yes"/>
      <point x="141" y="520"/>
      <point x="209" y="560"/>
      <point x="299" y="560" type="curve" smooth="yes"/>
      <point x="418" y="560"/>
      <point x="460" y="517"/>
      <point x="460" y="446" type="curve" smooth="yes"/>
      <point x="460" y="353"/>
      <point x="391" y="311"/>
      <point x="253" y="299" type="curve" smooth="yes"/>
      <point x="113" y="286" type="line"/>
      <point x="113" y="158" type="line" smooth="yes"/>
      <point x="113" y="48"/>
      <point x="175" y="1"/>
      <point x="257" y="1" type="curve" smooth="yes"/>
      <point x="336" y="1"/>
      <point x="419" y="55"/>
      <point x="459" y="103" type="curve"/>
      <point x="460" y="103" type="line"/>
    </contour>
  </outline>
</glyph>
<glyph name="uni17B4" format="2">
  <advance width="237"/>
  <unicode hex="17B4"/>
  <note>
uni17B4
</note>
  <outline>
    <contour>
      <point x="122" y="605" type="line"/>
      <point x="122" y="804" type="line" smooth="yes"/>
      <point x="122" y="851"/>
      <point x="88" y="854"/>
      <point x="57" y="854" type="curve" smooth="yes"/>
      <point x="-34" y="854" type="line"/>
      <point x="-34" y="828" type="line"/>
      <point x="68" y="828" type="line" smooth="yes"/>
      <point x="90" y="828"/>
      <point x="96" y="812"/>
      <point x="96" y="783" type="curve" smooth="yes"/>
      <point x="96" y="605" type="line"/>
    </contour>
    <contour>
      <point x="101" y="0" type="line"/>
      <point x="127" y="0" type="line"/>
      <point x="127" y="494" type="line" smooth="yes"/>
      <point x="127" y="568"/>
      <point x="97" y="586"/>
      <point x="3" y="586" type="curve" smooth="yes"/>
      <point x="-128" y="586" type="line"/>
      <point x="-128" y="560" type="line"/>
      <point x="23" y="560" type="line" smooth="yes"/>
      <point x="84" y="560"/>
      <point x="101" y="535"/>
      <point x="101" y="483" type="curve" smooth="yes"/>
    </contour>
  </outline>
</glyph>
<glyph name="uni17B5" format="2">
  <advance width="237"/>
  <unicode hex="17B5"/>
  <note>
uni17B5
</note>
  <outline>
    <contour>
      <point x="101" y="0" type="line"/>
      <point x="127" y="0" type="line"/>
      <point x="127" y="494" type="line" smooth="yes"/>
      <point x="127" y="568"/>
      <point x="97" y="586"/>
      <point x="3" y="586" type="curve" smooth="yes"/>
      <point x="-128" y="586" type="line"/>
      <point x="-128" y="560" type="line"/>
      <point x="23" y="560" type="line" smooth="yes"/>
      <point x="84" y="560"/>
      <point x="101" y="535"/>
      <point x="101" y="483" type="curve" smooth="yes"/>
    </contour>
  </outline>
</glyph>
<glyph name="uni17B6" format="2">
  <advance width="237"/>
  <unicode hex="17B6"/>
  <note>
uni17B6
</note>
  <outline>
    <contour>
      <point x="101" y="0" type="line"/>
      <point x="127" y="0" type="line"/>
      <point x="127" y="494" type="line" smooth="yes"/>
      <point x="127" y="568"/>
      <point x="97" y="586"/>
      <point x="3" y="586" type="curve" smooth="yes"/>
      <point x="-128" y="586" type="line"/>
      <point x="-128" y="560" type="line"/>
      <point x="23" y="560" type="line" smooth="yes"/>
      <point x="84" y="560"/>
      <point x="101" y="535"/>
      <point x="101" y="483" type="curve" smooth="yes"/>
    </contour>
  </outline>
</glyph>
<glyph name="uni17B7" format="2">
  <unicode hex="17B7"/>
  <note>
uni17B7
</note>
  <outline>
    <contour>
      <point x="-445" y="684" type="curve" smooth="yes"/>
      <point x="-101" y="684" type="line"/>
      <point x="-101" y="718" type="line"/>
      <point x="-143" y="794"/>
      <point x="-256" y="861"/>
      <point x="-338" y="861" type="curve" smooth="yes"/>
      <point x="-444" y="861"/>
      <point x="-478" y="782"/>
      <point x="-478" y="717" type="curve" smooth="yes"/>
      <point x="-478" y="692"/>
      <point x="-469" y="684"/>
    </contour>
    <contour>
      <point x="-451" y="710" type="line"/>
      <point x="-451" y="790"/>
      <point x="-414" y="835"/>
      <point x="-338" y="835" type="curve" smooth="yes"/>
      <point x="-259" y="835"/>
      <point x="-154" y="761"/>
      <point x="-127" y="710" type="curve"/>
    </contour>
  </outline>
</glyph>
<glyph name="uni17B9" format="2">
  <unicode hex="17B9"/>
  <note>
uni17B9
</note>
  <outline>
    <contour>
      <point x="-279" y="839" type="curve"/>
      <point x="-135" y="748" type="line"/>
      <point x="-120" y="765"/>
      <point x="-103" y="803"/>
      <point x="-103" y="834" type="curve" smooth="yes"/>
      <point x="-103" y="870"/>
      <point x="-129" y="910"/>
      <point x="-178" y="910" type="curve" smooth="yes"/>
      <point x="-220" y="910"/>
      <point x="-261" y="877"/>
    </contour>
    <contour>
      <point x="-251" y="836" type="line"/>
      <point x="-237" y="863"/>
      <point x="-206" y="884"/>
      <point x="-179" y="884" type="curve" smooth="yes"/>
      <point x="-149" y="884"/>
      <point x="-129" y="862"/>
      <point x="-129" y="835" type="curve" smooth="yes"/>
      <point x="-129" y="812"/>
      <point x="-142" y="782"/>
      <point x="-151" y="773" type="curve"/>
    </contour>
    <contour>
      <point x="-445" y="684" type="curve" smooth="yes"/>
      <point x="-101" y="684" type="line"/>
      <point x="-101" y="718" type="line"/>
      <point x="-143" y="794"/>
      <point x="-256" y="861"/>
      <point x="-338" y="861" type="curve" smooth="yes"/>
      <point x="-444" y="861"/>
      <point x="-478" y="782"/>
      <point x="-478" y="717" type="curve" smooth="yes"/>
      <point x="-478" y="692"/>
      <point x="-469" y="684"/>
    </contour>
    <contour>
      <point x="-451" y="710" type="line"/>
      <point x="-451" y="790"/>
      <point x="-414" y="835"/>
      <point x="-338" y="835" type="curve" smooth="yes"/>
      <point x="-259" y="835"/>
      <point x="-154" y="761"/>
      <point x="-127" y="710" type="curve"/>
    </contour>
  </outline>
</glyph>
<glyph name="uni17BD" format="2">
  <unicode hex="17BD"/>
  <note>
uni17BD
</note>
  <outline>
    <contour>
      <point x="-441" y="-230" type="line"/>
      <point x="-406" y="-230" type="line"/>
      <point x="-297" y="-144" type="line"/>
      <point x="-183" y="-230" type="line"/>
      <point x="-153" y="-230" type="line"/>
      <point x="-153" y="-34" type="line"/>
      <point x="-179" y="-34" type="line"/>
      <point x="-179" y="-201" type="line"/>
      <point x="-297" y="-112" type="line"/>
      <point x="-415" y="-205" type="line"/>
      <point x="-415" y="-34" type="line"/>
      <point x="-441" y="-34" type="line"/>
    </contour>
  </outline>
</glyph>
<glyph name="uni17BE" format="2">
  <unicode hex="17BE"/>
  <note>
uni17BE
</note>
  <outline>
    <contour>
      <point x="742" y="644" type="line"/>
      <point x="742" y="857" type="line"/>
      <point x="716" y="857" type="line"/>
      <point x="716" y="644" type="line"/>
    </contour>
    <contour>
      <point x="398" y="644" type="curve" smooth="yes"/>
      <point x="742" y="644" type="line"/>
      <point x="742" y="678" type="line"/>
      <point x="700" y="754"/>
      <point x="587" y="821"/>
      <point x="505" y="821" type="curve" smooth="yes"/>
      <point x="399" y="821"/>
      <point x="365" y="742"/>
      <point x="365" y="677" type="curve" smooth="yes"/>
      <point x="365" y="652"/>
      <point x="374" y="644"/>
    </contour>
    <contour>
      <point x="392" y="670" type="line"/>
      <point x="392" y="750"/>
      <point x="429" y="795"/>
      <point x="505" y="795" type="curve" smooth="yes"/>
      <point x="584" y="795"/>
      <point x="689" y="721"/>
      <point x="716" y="670" type="curve"/>
    </contour>
    <contour>
      <point x="137" y="384" type="line"/>
      <point x="111" y="384" type="line"/>
      <point x="111" y="65" type="line" smooth="yes"/>
      <point x="111" y="17"/>
      <point x="135" y="0"/>
      <point x="184" y="0" type="curve" smooth="yes"/>
      <point x="248" y="0" type="line"/>
      <point x="248" y="26" type="line"/>
      <point x="173" y="26" type="line" smooth="yes"/>
      <point x="144" y="26"/>
      <point x="137" y="42"/>
      <point x="137" y="65" type="curve" smooth="yes"/>
    </contour>
    <contour>
      <point x="111" y="376" type="line"/>
      <point x="137" y="376" type="line"/>
      <point x="137" y="398" type="line"/>
      <point x="55" y="536" type="line"/>
      <point x="63" y="560" type="line"/>
      <point x="156" y="560" type="line"/>
      <point x="156" y="586" type="line"/>
      <point x="65" y="586" type="line"/>
      <point x="50" y="569"/>
      <point x="40" y="547"/>
      <point x="40" y="530" type="curve" smooth="yes"/>
      <point x="40" y="514"/>
      <point x="54" y="486"/>
      <point x="111" y="394" type="curve"/>
    </contour>
    <contour>
      <point x="346" y="276" type="curve" smooth="yes"/>
      <point x="354" y="276"/>
      <point x="361" y="283"/>
      <point x="361" y="291" type="curve" smooth="yes"/>
      <point x="361" y="299"/>
      <point x="354" y="306"/>
      <point x="346" y="306" type="curve" smooth="yes"/>
      <point x="338" y="306"/>
      <point x="331" y="299"/>
      <point x="331" y="291" type="curve" smooth="yes"/>
      <point x="331" y="283"/>
      <point x="338" y="276"/>
    </contour>
    <contour>
      <point x="372" y="377" type="curve" smooth="yes"/>
      <point x="380" y="377"/>
      <point x="387" y="384"/>
      <point x="387" y="392" type="curve" smooth="yes"/>
      <point x="387" y="400"/>
      <point x="380" y="407"/>
      <point x="372" y="407" type="curve" smooth="yes"/>
      <point x="364" y="407"/>
      <point x="357" y="400"/>
      <point x="357" y="392" type="curve" smooth="yes"/>
      <point x="357" y="384"/>
      <point x="364" y="377"/>
    </contour>
    <contour>
      <point x="443" y="447" type="curve" smooth="yes"/>
      <point x="451" y="447"/>
      <point x="458" y="454"/>
      <point x="458" y="462" type="curve" smooth="yes"/>
      <point x="458" y="470"/>
      <point x="451" y="477"/>
      <point x="443" y="477" type="curve" smooth="yes"/>
      <point x="435" y="477"/>
      <point x="428" y="470"/>
      <point x="428" y="462" type="curve" smooth="yes"/>
      <point x="428" y="454"/>
      <point x="435" y="447"/>
    </contour>
    <contour>
      <point x="540" y="471" type="curve" smooth="yes"/>
      <point x="548" y="471"/>
      <point x="555" y="478"/>
      <point x="555" y="486" type="curve" smooth="yes"/>
      <point x="555" y="494"/>
      <point x="548" y="501"/>
      <point x="540" y="501" type="curve" smooth="yes"/>
      <point x="532" y="501"/>
      <point x="525" y="494"/>
      <point x="525" y="486" type="curve" smooth="yes"/>
      <point x="525" y="478"/>
      <point x="532" y="471"/>
    </contour>
    <contour>
      <point x="637" y="447" type="curve" smooth="yes"/>
      <point x="645" y="447"/>
      <point x="652" y="454"/>
      <point x="652" y="462" type="curve" smooth="yes"/>
      <point x="652" y="470"/>
      <point x="645" y="477"/>
      <point x="637" y="477" type="curve" smooth="yes"/>
      <point x="629" y="477"/>
      <point x="622" y="470"/>
      <point x="622" y="462" type="curve" smooth="yes"/>
      <point x="622" y="454"/>
      <point x="629" y="447"/>
    </contour>
    <contour>
      <point x="707" y="375" type="curve" smooth="yes"/>
      <point x="715" y="375"/>
      <point x="722" y="382"/>
      <point x="722" y="390" type="curve" smooth="yes"/>
      <point x="722" y="398"/>
      <point x="715" y="405"/>
      <point x="707" y="405" type="curve" smooth="yes"/>
      <point x="699" y="405"/>
      <point x="692" y="398"/>
      <point x="692" y="390" type="curve" smooth="yes"/>
      <point x="692" y="382"/>
      <point x="699" y="375"/>
    </contour>
    <contour>
      <point x="737" y="276" type="curve" smooth="yes"/>
      <point x="745" y="276"/>
      <point x="752" y="283"/>
      <point x="752" y="291" type="curve" smooth="yes"/>
      <point x="752" y="299"/>
      <point x="745" y="306"/>
      <point x="737" y="306" type="curve" smooth="yes"/>
      <point x="729" y="306"/>
      <point x="722" y="299"/>
      <point x="722" y="291" type="curve" smooth="yes"/>
      <point x="722" y="283"/>
      <point x="729" y="276"/>
    </contour>
    <contour>
      <point x="709" y="182" type="curve" smooth="yes"/>
      <point x="717" y="182"/>
      <point x="724" y="189"/>
      <point x="724" y="197" type="curve" smooth="yes"/>
      <point x="724" y="205"/>
      <point x="717" y="212"/>
      <point x="709" y="212" type="curve" smooth="yes"/>
      <point x="701" y="212"/>
      <point x="694" y="205"/>
      <point x="694" y="197" type="curve" smooth="yes"/>
      <point x="694" y="189"/>
      <point x="701" y="182"/>
    </contour>
    <contour>
      <point x="638" y="110" type="curve" smooth="yes"/>
      <point x="646" y="110"/>
      <point x="653" y="117"/>
      <point x="653" y="125" type="curve" smooth="yes"/>
      <point x="653" y="133"/>
      <point x="646" y="140"/>
      <point x="638" y="140" type="curve" smooth="yes"/>
      <point x="630" y="140"/>
      <point x="623" y="133"/>
      <point x="623" y="125" type="curve" smooth="yes"/>
      <point x="623" y="117"/>
      <point x="630" y="110"/>
    </contour>
    <contour>
      <point x="540" y="82" type="curve" smooth="yes"/>
      <point x="548" y="82"/>
      <point x="555" y="89"/>
      <point x="555" y="97" type="curve" smooth="yes"/>
      <point x="555" y="105"/>
      <point x="548" y="112"/>
      <point x="540" y="112" type="curve" smooth="yes"/>
      <point x="532" y="112"/>
      <point x="525" y="105"/>
      <point x="525" y="97" type="curve" smooth="yes"/>
      <point x="525" y="89"/>
      <point x="532" y="82"/>
    </contour>
    <contour>
      <point x="443" y="109" type="curve" smooth="yes"/>
      <point x="451" y="109"/>
      <point x="458" y="116"/>
      <point x="458" y="124" type="curve" smooth="yes"/>
      <point x="458" y="132"/>
      <point x="451" y="139"/>
      <point x="443" y="139" type="curve" smooth="yes"/>
      <point x="435" y="139"/>
      <point x="428" y="132"/>
      <point x="428" y="124" type="curve" smooth="yes"/>
      <point x="428" y="116"/>
      <point x="435" y="109"/>
    </contour>
    <contour>
      <point x="370" y="181" type="curve" smooth="yes"/>
      <point x="378" y="181"/>
      <point x="385" y="188"/>
      <point x="385" y="196" type="curve" smooth="yes"/>
      <point x="385" y="204"/>
      <point x="378" y="211"/>
      <point x="370" y="211" type="curve" smooth="yes"/>
      <point x="362" y="211"/>
      <point x="355" y="204"/>
      <point x="355" y="196" type="curve" smooth="yes"/>
      <point x="355" y="188"/>
      <point x="362" y="181"/>
    </contour>
  </outline>
</glyph>
<glyph name="uni17BF" format="2">
  <advance width="1125"/>
  <unicode hex="17BF"/>
  <note>
uni17BF
</note>
  <outline>
    <contour>
      <point x="137" y="384" type="line"/>
      <point x="111" y="384" type="line"/>
      <point x="111" y="65" type="line" smooth="yes"/>
      <point x="111" y="17"/>
      <point x="135" y="0"/>
      <point x="184" y="0" type="curve" smooth="yes"/>
      <point x="248" y="0" type="line"/>
      <point x="248" y="26" type="line"/>
      <point x="173" y="26" type="line" smooth="yes"/>
      <point x="144" y="26"/>
      <point x="137" y="42"/>
      <point x="137" y="65" type="curve" smooth="yes"/>
    </contour>
    <contour>
      <point x="111" y="376" type="line"/>
      <point x="137" y="376" type="line"/>
      <point x="137" y="398" type="line"/>
      <point x="55" y="536" type="line"/>
      <point x="63" y="560" type="line"/>
      <point x="156" y="560" type="line"/>
      <point x="156" y="586" type="line"/>
      <point x="65" y="586" type="line"/>
      <point x="50" y="569"/>
      <point x="40" y="547"/>
      <point x="40" y="530" type="curve" smooth="yes"/>
      <point x="40" y="514"/>
      <point x="54" y="486"/>
      <point x="111" y="394" type="curve"/>
    </contour>
    <contour>
      <point x="383" y="276" type="curve" smooth="yes"/>
      <point x="391" y="276"/>
      <point x="398" y="283"/>
      <point x="398" y="291" type="curve" smooth="yes"/>
      <point x="398" y="299"/>
      <point x="391" y="306"/>
      <point x="383" y="306" type="curve" smooth="yes"/>
      <point x="375" y="306"/>
      <point x="368" y="299"/>
      <point x="368" y="291" type="curve" smooth="yes"/>
      <point x="368" y="283"/>
      <point x="375" y="276"/>
    </contour>
    <contour>
      <point x="409" y="377" type="curve" smooth="yes"/>
      <point x="417" y="377"/>
      <point x="424" y="384"/>
      <point x="424" y="392" type="curve" smooth="yes"/>
      <point x="424" y="400"/>
      <point x="417" y="407"/>
      <point x="409" y="407" type="curve" smooth="yes"/>
      <point x="401" y="407"/>
      <point x="394" y="400"/>
      <point x="394" y="392" type="curve" smooth="yes"/>
      <point x="394" y="384"/>
      <point x="401" y="377"/>
    </contour>
    <contour>
      <point x="480" y="447" type="curve" smooth="yes"/>
      <point x="488" y="447"/>
      <point x="495" y="454"/>
      <point x="495" y="462" type="curve" smooth="yes"/>
      <point x="495" y="470"/>
      <point x="488" y="477"/>
      <point x="480" y="477" type="curve" smooth="yes"/>
      <point x="472" y="477"/>
      <point x="465" y="470"/>
      <point x="465" y="462" type="curve" smooth="yes"/>
      <point x="465" y="454"/>
      <point x="472" y="447"/>
    </contour>
    <contour>
      <point x="577" y="471" type="curve" smooth="yes"/>
      <point x="585" y="471"/>
      <point x="592" y="478"/>
      <point x="592" y="486" type="curve" smooth="yes"/>
      <point x="592" y="494"/>
      <point x="585" y="501"/>
      <point x="577" y="501" type="curve" smooth="yes"/>
      <point x="569" y="501"/>
      <point x="562" y="494"/>
      <point x="562" y="486" type="curve" smooth="yes"/>
      <point x="562" y="478"/>
      <point x="569" y="471"/>
    </contour>
    <contour>
      <point x="674" y="447" type="curve" smooth="yes"/>
      <point x="682" y="447"/>
      <point x="689" y="454"/>
      <point x="689" y="462" type="curve" smooth="yes"/>
      <point x="689" y="470"/>
      <point x="682" y="477"/>
      <point x="674" y="477" type="curve" smooth="yes"/>
      <point x="666" y="477"/>
      <point x="659" y="470"/>
      <point x="659" y="462" type="curve" smooth="yes"/>
      <point x="659" y="454"/>
      <point x="666" y="447"/>
    </contour>
    <contour>
      <point x="744" y="375" type="curve" smooth="yes"/>
      <point x="752" y="375"/>
      <point x="759" y="382"/>
      <point x="759" y="390" type="curve" smooth="yes"/>
      <point x="759" y="398"/>
      <point x="752" y="405"/>
      <point x="744" y="405" type="curve" smooth="yes"/>
      <point x="736" y="405"/>
      <point x="729" y="398"/>
      <point x="729" y="390" type="curve" smooth="yes"/>
      <point x="729" y="382"/>
      <point x="736" y="375"/>
    </contour>
    <contour>
      <point x="774" y="276" type="curve" smooth="yes"/>
      <point x="782" y="276"/>
      <point x="789" y="283"/>
      <point x="789" y="291" type="curve" smooth="yes"/>
      <point x="789" y="299"/>
      <point x="782" y="306"/>
      <point x="774" y="306" type="curve" smooth="yes"/>
      <point x="766" y="306"/>
      <point x="759" y="299"/>
      <point x="759" y="291" type="curve" smooth="yes"/>
      <point x="759" y="283"/>
      <point x="766" y="276"/>
    </contour>
    <contour>
      <point x="746" y="182" type="curve" smooth="yes"/>
      <point x="754" y="182"/>
      <point x="761" y="189"/>
      <point x="761" y="197" type="curve" smooth="yes"/>
      <point x="761" y="205"/>
      <point x="754" y="212"/>
      <point x="746" y="212" type="curve" smooth="yes"/>
      <point x="738" y="212"/>
      <point x="731" y="205"/>
      <point x="731" y="197" type="curve" smooth="yes"/>
      <point x="731" y="189"/>
      <point x="738" y="182"/>
    </contour>
    <contour>
      <point x="675" y="110" type="curve" smooth="yes"/>
      <point x="683" y="110"/>
      <point x="690" y="117"/>
      <point x="690" y="125" type="curve" smooth="yes"/>
      <point x="690" y="133"/>
      <point x="683" y="140"/>
      <point x="675" y="140" type="curve" smooth="yes"/>
      <point x="667" y="140"/>
      <point x="660" y="133"/>
      <point x="660" y="125" type="curve" smooth="yes"/>
      <point x="660" y="117"/>
      <point x="667" y="110"/>
    </contour>
    <contour>
      <point x="577" y="82" type="curve" smooth="yes"/>
      <point x="585" y="82"/>
      <point x="592" y="89"/>
      <point x="592" y="97" type="curve" smooth="yes"/>
      <point x="592" y="105"/>
      <point x="585" y="112"/>
      <point x="577" y="112" type="curve" smooth="yes"/>
      <point x="569" y="112"/>
      <point x="562" y="105"/>
      <point x="562" y="97" type="curve" smooth="yes"/>
      <point x="562" y="89"/>
      <point x="569" y="82"/>
    </contour>
    <contour>
      <point x="480" y="109" type="curve" smooth="yes"/>
      <point x="488" y="109"/>
      <point x="495" y="116"/>
      <point x="495" y="124" type="curve" smooth="yes"/>
      <point x="495" y="132"/>
      <point x="488" y="139"/>
      <point x="480" y="139" type="curve" smooth="yes"/>
      <point x="472" y="139"/>
      <point x="465" y="132"/>
      <point x="465" y="124" type="curve" smooth="yes"/>
      <point x="465" y="116"/>
      <point x="472" y="109"/>
    </contour>
    <contour>
      <point x="407" y="181" type="curve" smooth="yes"/>
      <point x="415" y="181"/>
      <point x="422" y="188"/>
      <point x="422" y="196" type="curve" smooth="yes"/>
      <point x="422" y="204"/>
      <point x="415" y="211"/>
      <point x="407" y="211" type="curve" smooth="yes"/>
      <point x="399" y="211"/>
      <point x="392" y="204"/>
      <point x="392" y="196" type="curve" smooth="yes"/>
      <point x="392" y="188"/>
      <point x="399" y="181"/>
    </contour>
    <contour>
      <point x="1015" y="544" type="line"/>
      <point x="989" y="544" type="line"/>
      <point x="989" y="-127" type="line" smooth="yes"/>
      <point x="989" y="-172"/>
      <point x="946" y="-218"/>
      <point x="859" y="-218" type="curve" smooth="yes"/>
      <point x="772" y="-218"/>
      <point x="728" y="-172"/>
      <point x="728" y="-127" type="curve" smooth="yes"/>
      <point x="728" y="-75" type="line"/>
      <point x="753" y="-75" type="line"/>
      <point x="753" y="-49" type="line"/>
      <point x="703" y="-49" type="line"/>
      <point x="703" y="-127" type="line" smooth="yes"/>
      <point x="703" y="-205"/>
      <point x="755" y="-244"/>
      <point x="859" y="-244" type="curve" smooth="yes"/>
      <point x="963" y="-244"/>
      <point x="1015" y="-205"/>
      <point x="1015" y="-127" type="curve" smooth="yes"/>
    </contour>
    <contour>
      <point x="989" y="540" type="line"/>
      <point x="1015" y="540" type="line"/>
      <point x="1015" y="551" type="line" smooth="yes"/>
      <point x="1015" y="648"/>
      <point x="974" y="714"/>
      <point x="885" y="793" type="curve" smooth="yes"/>
      <point x="804" y="865"/>
      <point x="771" y="880"/>
      <point x="713" y="880" type="curve" smooth="yes"/>
      <point x="639" y="880"/>
      <point x="601" y="825"/>
      <point x="601" y="766" type="curve" smooth="yes"/>
      <point x="601" y="732"/>
      <point x="605" y="723"/>
      <point x="633" y="723" type="curve" smooth="yes"/>
      <point x="911" y="723" type="line" smooth="yes"/>
      <point x="930" y="723"/>
      <point x="989" y="650"/>
      <point x="989" y="551" type="curve" smooth="yes"/>
    </contour>
    <contour>
      <point x="627" y="749" type="line"/>
      <point x="627" y="816"/>
      <point x="653" y="854"/>
      <point x="716" y="854" type="curve" smooth="yes"/>
      <point x="783" y="854"/>
      <point x="849" y="795"/>
      <point x="893" y="749" type="curve"/>
    </contour>
    <contour>
      <point x="859" y="809" type="line"/>
      <point x="859" y="934" type="line"/>
      <point x="833" y="934" type="line"/>
      <point x="833" y="830" type="line"/>
    </contour>
    <contour>
      <point x="951" y="719" type="line"/>
      <point x="951" y="918" type="line"/>
      <point x="925" y="918" type="line"/>
      <point x="925" y="752" type="line"/>
    </contour>
  </outline>
</glyph>
<glyph name="uni17C0" format="2">
  <advance width="1127"/>
  <unicode hex="17C0"/>
  <note>
uni17C0
</note>
  <outline>
    <contour>
      <point x="137" y="384" type="line"/>
      <point x="111" y="384" type="line"/>
      <point x="111" y="65" type="line" smooth="yes"/>
      <point x="111" y="17"/>
      <point x="135" y="0"/>
      <point x="184" y="0" type="curve" smooth="yes"/>
      <point x="248" y="0" type="line"/>
      <point x="248" y="26" type="line"/>
      <point x="173" y="26" type="line" smooth="yes"/>
      <point x="144" y="26"/>
      <point x="137" y="42"/>
      <point x="137" y="65" type="curve" smooth="yes"/>
    </contour>
    <contour>
      <point x="111" y="376" type="line"/>
      <point x="137" y="376" type="line"/>
      <point x="137" y="398" type="line"/>
      <point x="55" y="536" type="line"/>
      <point x="63" y="560" type="line"/>
      <point x="156" y="560" type="line"/>
      <point x="156" y="586" type="line"/>
      <point x="65" y="586" type="line"/>
      <point x="50" y="569"/>
      <point x="40" y="547"/>
      <point x="40" y="530" type="curve" smooth="yes"/>
      <point x="40" y="514"/>
      <point x="54" y="486"/>
      <point x="111" y="394" type="curve"/>
    </contour>
    <contour>
      <point x="385" y="276" type="curve" smooth="yes"/>
      <point x="393" y="276"/>
      <point x="400" y="283"/>
      <point x="400" y="291" type="curve" smooth="yes"/>
      <point x="400" y="299"/>
      <point x="393" y="306"/>
      <point x="385" y="306" type="curve" smooth="yes"/>
      <point x="377" y="306"/>
      <point x="370" y="299"/>
      <point x="370" y="291" type="curve" smooth="yes"/>
      <point x="370" y="283"/>
      <point x="377" y="276"/>
    </contour>
    <contour>
      <point x="411" y="377" type="curve" smooth="yes"/>
      <point x="419" y="377"/>
      <point x="426" y="384"/>
      <point x="426" y="392" type="curve" smooth="yes"/>
      <point x="426" y="400"/>
      <point x="419" y="407"/>
      <point x="411" y="407" type="curve" smooth="yes"/>
      <point x="403" y="407"/>
      <point x="396" y="400"/>
      <point x="396" y="392" type="curve" smooth="yes"/>
      <point x="396" y="384"/>
      <point x="403" y="377"/>
    </contour>
    <contour>
      <point x="482" y="447" type="curve" smooth="yes"/>
      <point x="490" y="447"/>
      <point x="497" y="454"/>
      <point x="497" y="462" type="curve" smooth="yes"/>
      <point x="497" y="470"/>
      <point x="490" y="477"/>
      <point x="482" y="477" type="curve" smooth="yes"/>
      <point x="474" y="477"/>
      <point x="467" y="470"/>
      <point x="467" y="462" type="curve" smooth="yes"/>
      <point x="467" y="454"/>
      <point x="474" y="447"/>
    </contour>
    <contour>
      <point x="579" y="471" type="curve" smooth="yes"/>
      <point x="587" y="471"/>
      <point x="594" y="478"/>
      <point x="594" y="486" type="curve" smooth="yes"/>
      <point x="594" y="494"/>
      <point x="587" y="501"/>
      <point x="579" y="501" type="curve" smooth="yes"/>
      <point x="571" y="501"/>
      <point x="564" y="494"/>
      <point x="564" y="486" type="curve" smooth="yes"/>
      <point x="564" y="478"/>
      <point x="571" y="471"/>
    </contour>
    <contour>
      <point x="676" y="447" type="curve" smooth="yes"/>
      <point x="684" y="447"/>
      <point x="691" y="454"/>
      <point x="691" y="462" type="curve" smooth="yes"/>
      <point x="691" y="470"/>
      <point x="684" y="477"/>
      <point x="676" y="477" type="curve" smooth="yes"/>
      <point x="668" y="477"/>
      <point x="661" y="470"/>
      <point x="661" y="462" type="curve" smooth="yes"/>
      <point x="661" y="454"/>
      <point x="668" y="447"/>
    </contour>
    <contour>
      <point x="746" y="375" type="curve" smooth="yes"/>
      <point x="754" y="375"/>
      <point x="761" y="382"/>
      <point x="761" y="390" type="curve" smooth="yes"/>
      <point x="761" y="398"/>
      <point x="754" y="405"/>
      <point x="746" y="405" type="curve" smooth="yes"/>
      <point x="738" y="405"/>
      <point x="731" y="398"/>
      <point x="731" y="390" type="curve" smooth="yes"/>
      <point x="731" y="382"/>
      <point x="738" y="375"/>
    </contour>
    <contour>
      <point x="776" y="276" type="curve" smooth="yes"/>
      <point x="784" y="276"/>
      <point x="791" y="283"/>
      <point x="791" y="291" type="curve" smooth="yes"/>
      <point x="791" y="299"/>
      <point x="784" y="306"/>
      <point x="776" y="306" type="curve" smooth="yes"/>
      <point x="768" y="306"/>
      <point x="761" y="299"/>
      <point x="761" y="291" type="curve" smooth="yes"/>
      <point x="761" y="283"/>
      <point x="768" y="276"/>
    </contour>
    <contour>
      <point x="748" y="182" type="curve" smooth="yes"/>
      <point x="756" y="182"/>
      <point x="763" y="189"/>
      <point x="763" y="197" type="curve" smooth="yes"/>
      <point x="763" y="205"/>
      <point x="756" y="212"/>
      <point x="748" y="212" type="curve" smooth="yes"/>
      <point x="740" y="212"/>
      <point x="733" y="205"/>
      <point x="733" y="197" type="curve" smooth="yes"/>
      <point x="733" y="189"/>
      <point x="740" y="182"/>
    </contour>
    <contour>
      <point x="677" y="110" type="curve" smooth="yes"/>
      <point x="685" y="110"/>
      <point x="692" y="117"/>
      <point x="692" y="125" type="curve" smooth="yes"/>
      <point x="692" y="133"/>
      <point x="685" y="140"/>
      <point x="677" y="140" type="curve" smooth="yes"/>
      <point x="669" y="140"/>
      <point x="662" y="133"/>
      <point x="662" y="125" type="curve" smooth="yes"/>
      <point x="662" y="117"/>
      <point x="669" y="110"/>
    </contour>
    <contour>
      <point x="579" y="82" type="curve" smooth="yes"/>
      <point x="587" y="82"/>
      <point x="594" y="89"/>
      <point x="594" y="97" type="curve" smooth="yes"/>
      <point x="594" y="105"/>
      <point x="587" y="112"/>
      <point x="579" y="112" type="curve" smooth="yes"/>
      <point x="571" y="112"/>
      <point x="564" y="105"/>
      <point x="564" y="97" type="curve" smooth="yes"/>
      <point x="564" y="89"/>
      <point x="571" y="82"/>
    </contour>
    <contour>
      <point x="482" y="109" type="curve" smooth="yes"/>
      <point x="490" y="109"/>
      <point x="497" y="116"/>
      <point x="497" y="124" type="curve" smooth="yes"/>
      <point x="497" y="132"/>
      <point x="490" y="139"/>
      <point x="482" y="139" type="curve" smooth="yes"/>
      <point x="474" y="139"/>
      <point x="467" y="132"/>
      <point x="467" y="124" type="curve" smooth="yes"/>
      <point x="467" y="116"/>
      <point x="474" y="109"/>
    </contour>
    <contour>
      <point x="409" y="181" type="curve" smooth="yes"/>
      <point x="417" y="181"/>
      <point x="424" y="188"/>
      <point x="424" y="196" type="curve" smooth="yes"/>
      <point x="424" y="204"/>
      <point x="417" y="211"/>
      <point x="409" y="211" type="curve" smooth="yes"/>
      <point x="401" y="211"/>
      <point x="394" y="204"/>
      <point x="394" y="196" type="curve" smooth="yes"/>
      <point x="394" y="188"/>
      <point x="401" y="181"/>
    </contour>
    <contour>
      <point x="1017" y="582" type="line"/>
      <point x="991" y="582" type="line"/>
      <point x="991" y="-127" type="line" smooth="yes"/>
      <point x="991" y="-172"/>
      <point x="954" y="-218"/>
      <point x="861" y="-218" type="curve" smooth="yes"/>
      <point x="768" y="-218"/>
      <point x="731" y="-172"/>
      <point x="731" y="-127" type="curve" smooth="yes"/>
      <point x="731" y="-75" type="line"/>
      <point x="755" y="-75" type="line"/>
      <point x="755" y="-49" type="line"/>
      <point x="705" y="-49" type="line"/>
      <point x="705" y="-127" type="line" smooth="yes"/>
      <point x="705" y="-205"/>
      <point x="777" y="-244"/>
      <point x="861" y="-244" type="curve" smooth="yes"/>
      <point x="945" y="-244"/>
      <point x="1017" y="-205"/>
      <point x="1017" y="-127" type="curve" smooth="yes"/>
    </contour>
    <contour>
      <point x="991" y="566" type="line"/>
      <point x="1017" y="566" type="line"/>
      <point x="1017" y="640" type="line" smooth="yes"/>
      <point x="1017" y="763"/>
      <point x="951" y="816"/>
      <point x="860" y="816" type="curve" smooth="yes"/>
      <point x="797" y="816"/>
      <point x="756" y="794"/>
      <point x="730" y="764" type="curve"/>
      <point x="730" y="958" type="line"/>
      <point x="704" y="958" type="line"/>
      <point x="704" y="722" type="line"/>
      <point x="730" y="722" type="line"/>
      <point x="754" y="760"/>
      <point x="791" y="790"/>
      <point x="861" y="790" type="curve" smooth="yes"/>
      <point x="948" y="790"/>
      <point x="991" y="737"/>
      <point x="991" y="640" type="curve" smooth="yes"/>
    </contour>
  </outline>
</glyph>
<glyph name="uni17C1" format="2">
  <advance width="248"/>
  <unicode hex="17C1"/>
  <note>
uni17C1
</note>
  <outline>
    <contour>
      <point x="137" y="384" type="line"/>
      <point x="111" y="384" type="line"/>
      <point x="111" y="65" type="line" smooth="yes"/>
      <point x="111" y="17"/>
      <point x="135" y="0"/>
      <point x="184" y="0" type="curve" smooth="yes"/>
      <point x="248" y="0" type="line"/>
      <point x="248" y="26" type="line"/>
      <point x="173" y="26" type="line" smooth="yes"/>
      <point x="144" y="26"/>
      <point x="137" y="42"/>
      <point x="137" y="65" type="curve" smooth="yes"/>
    </contour>
    <contour>
      <point x="111" y="376" type="line"/>
      <point x="137" y="376" type="line"/>
      <point x="137" y="398" type="line"/>
      <point x="55" y="536" type="line"/>
      <point x="63" y="560" type="line"/>
      <point x="156" y="560" type="line"/>
      <point x="156" y="586" type="line"/>
      <point x="65" y="586" type="line"/>
      <point x="50" y="569"/>
      <point x="40" y="547"/>
      <point x="40" y="530" type="curve" smooth="yes"/>
      <point x="40" y="514"/>
      <point x="54" y="486"/>
      <point x="111" y="394" type="curve"/>
    </contour>
  </outline>
</glyph>
<glyph name="uni17C2" format="2">
  <advance width="248"/>
  <unicode hex="17C2"/>
  <note>
uni17C2
</note>
  <outline>
    <contour>
      <point x="107" y="635" type="curve" smooth="yes"/>
      <point x="202" y="635"/>
      <point x="264" y="720"/>
      <point x="264" y="854" type="curve"/>
      <point x="238" y="854" type="line"/>
      <point x="238" y="754"/>
      <point x="197" y="661"/>
      <point x="107" y="661" type="curve" smooth="yes"/>
      <point x="56" y="661"/>
      <point x="26" y="688"/>
      <point x="26" y="724" type="curve" smooth="yes"/>
      <point x="26" y="768"/>
      <point x="62" y="789"/>
      <point x="111" y="789" type="curve"/>
      <point x="111" y="815" type="line"/>
      <point x="50" y="815"/>
      <point x="0" y="785"/>
      <point x="0" y="724" type="curve" smooth="yes"/>
      <point x="0" y="665"/>
      <point x="51" y="635"/>
    </contour>
    <contour>
      <point x="137" y="384" type="line"/>
      <point x="111" y="384" type="line"/>
      <point x="111" y="65" type="line" smooth="yes"/>
      <point x="111" y="17"/>
      <point x="135" y="0"/>
      <point x="184" y="0" type="curve" smooth="yes"/>
      <point x="248" y="0" type="line"/>
      <point x="248" y="26" type="line"/>
      <point x="173" y="26" type="line" smooth="yes"/>
      <point x="144" y="26"/>
      <point x="137" y="42"/>
      <point x="137" y="65" type="curve" smooth="yes"/>
    </contour>
    <contour>
      <point x="111" y="376" type="line"/>
      <point x="137" y="376" type="line"/>
      <point x="137" y="398" type="line"/>
      <point x="55" y="536" type="line"/>
      <point x="63" y="560" type="line"/>
      <point x="156" y="560" type="line"/>
      <point x="156" y="586" type="line"/>
      <point x="65" y="586" type="line"/>
      <point x="50" y="569"/>
      <point x="40" y="547"/>
      <point x="40" y="530" type="curve" smooth="yes"/>
      <point x="40" y="514"/>
      <point x="54" y="486"/>
      <point x="111" y="394" type="curve"/>
    </contour>
  </outline>
</glyph>
<glyph name="uni17C3" format="2">
  <advance width="248"/>
  <unicode hex="17C3"/>
  <note>
uni17C3
</note>
  <outline>
    <contour>
      <point x="43" y="635" type="line"/>
      <point x="115" y="635" type="line" smooth="yes"/>
      <point x="189" y="635"/>
      <point x="231" y="675"/>
      <point x="231" y="736" type="curve" smooth="yes"/>
      <point x="231" y="802"/>
      <point x="186" y="830"/>
      <point x="139" y="830" type="curve" smooth="yes"/>
      <point x="105" y="830"/>
      <point x="81" y="815"/>
      <point x="69" y="797" type="curve"/>
      <point x="69" y="907" type="line" smooth="yes"/>
      <point x="69" y="924"/>
      <point x="59" y="928"/>
      <point x="41" y="928" type="curve" smooth="yes"/>
      <point x="19" y="928" type="line"/>
      <point x="19" y="903" type="line"/>
      <point x="38" y="903"/>
      <point x="43" y="899"/>
      <point x="43" y="883" type="curve" smooth="yes"/>
      <point x="43" y="747" type="line"/>
      <point x="69" y="747" type="line"/>
      <point x="73" y="771"/>
      <point x="90" y="803"/>
      <point x="136" y="803" type="curve" smooth="yes"/>
      <point x="175" y="803"/>
      <point x="205" y="779"/>
      <point x="205" y="736" type="curve" smooth="yes"/>
      <point x="205" y="696"/>
      <point x="179" y="661"/>
      <point x="115" y="661" type="curve" smooth="yes"/>
      <point x="43" y="661" type="line"/>
    </contour>
    <contour>
      <point x="137" y="384" type="line"/>
      <point x="111" y="384" type="line"/>
      <point x="111" y="65" type="line" smooth="yes"/>
      <point x="111" y="17"/>
      <point x="135" y="0"/>
      <point x="184" y="0" type="curve" smooth="yes"/>
      <point x="248" y="0" type="line"/>
      <point x="248" y="26" type="line"/>
      <point x="173" y="26" type="line" smooth="yes"/>
      <point x="144" y="26"/>
      <point x="137" y="42"/>
      <point x="137" y="65" type="curve" smooth="yes"/>
    </contour>
    <contour>
      <point x="111" y="376" type="line"/>
      <point x="137" y="376" type="line"/>
      <point x="137" y="398" type="line"/>
      <point x="55" y="536" type="line"/>
      <point x="63" y="560" type="line"/>
      <point x="156" y="560" type="line"/>
      <point x="156" y="586" type="line"/>
      <point x="65" y="586" type="line"/>
      <point x="50" y="569"/>
      <point x="40" y="547"/>
      <point x="40" y="530" type="curve" smooth="yes"/>
      <point x="40" y="514"/>
      <point x="54" y="486"/>
      <point x="111" y="394" type="curve"/>
    </contour>
  </outline>
</glyph>
<glyph name="uni17C5" format="2">
  <advance width="1028"/>
  <unicode hex="17C5"/>
  <note>
uni17C5
</note>
  <outline>
    <contour>
      <point x="137" y="384" type="line"/>
      <point x="111" y="384" type="line"/>
      <point x="111" y="65" type="line" smooth="yes"/>
      <point x="111" y="17"/>
      <point x="135" y="0"/>
      <point x="184" y="0" type="curve" smooth="yes"/>
      <point x="248" y="0" type="line"/>
      <point x="248" y="26" type="line"/>
      <point x="173" y="26" type="line" smooth="yes"/>
      <point x="144" y="26"/>
      <point x="137" y="42"/>
      <point x="137" y="65" type="curve" smooth="yes"/>
    </contour>
    <contour>
      <point x="111" y="376" type="line"/>
      <point x="137" y="376" type="line"/>
      <point x="137" y="398" type="line"/>
      <point x="55" y="536" type="line"/>
      <point x="63" y="560" type="line"/>
      <point x="156" y="560" type="line"/>
      <point x="156" y="586" type="line"/>
      <point x="65" y="586" type="line"/>
      <point x="50" y="569"/>
      <point x="40" y="547"/>
      <point x="40" y="530" type="curve" smooth="yes"/>
      <point x="40" y="514"/>
      <point x="54" y="486"/>
      <point x="111" y="394" type="curve"/>
    </contour>
    <contour>
      <point x="312" y="276" type="curve" smooth="yes"/>
      <point x="320" y="276"/>
      <point x="327" y="283"/>
      <point x="327" y="291" type="curve" smooth="yes"/>
      <point x="327" y="299"/>
      <point x="320" y="306"/>
      <point x="312" y="306" type="curve" smooth="yes"/>
      <point x="304" y="306"/>
      <point x="297" y="299"/>
      <point x="297" y="291" type="curve" smooth="yes"/>
      <point x="297" y="283"/>
      <point x="304" y="276"/>
    </contour>
    <contour>
      <point x="338" y="377" type="curve" smooth="yes"/>
      <point x="346" y="377"/>
      <point x="353" y="384"/>
      <point x="353" y="392" type="curve" smooth="yes"/>
      <point x="353" y="400"/>
      <point x="346" y="407"/>
      <point x="338" y="407" type="curve" smooth="yes"/>
      <point x="330" y="407"/>
      <point x="323" y="400"/>
      <point x="323" y="392" type="curve" smooth="yes"/>
      <point x="323" y="384"/>
      <point x="330" y="377"/>
    </contour>
    <contour>
      <point x="409" y="447" type="curve" smooth="yes"/>
      <point x="417" y="447"/>
      <point x="424" y="454"/>
      <point x="424" y="462" type="curve" smooth="yes"/>
      <point x="424" y="470"/>
      <point x="417" y="477"/>
      <point x="409" y="477" type="curve" smooth="yes"/>
      <point x="401" y="477"/>
      <point x="394" y="470"/>
      <point x="394" y="462" type="curve" smooth="yes"/>
      <point x="394" y="454"/>
      <point x="401" y="447"/>
    </contour>
    <contour>
      <point x="506" y="471" type="curve" smooth="yes"/>
      <point x="514" y="471"/>
      <point x="521" y="478"/>
      <point x="521" y="486" type="curve" smooth="yes"/>
      <point x="521" y="494"/>
      <point x="514" y="501"/>
      <point x="506" y="501" type="curve" smooth="yes"/>
      <point x="498" y="501"/>
      <point x="491" y="494"/>
      <point x="491" y="486" type="curve" smooth="yes"/>
      <point x="491" y="478"/>
      <point x="498" y="471"/>
    </contour>
    <contour>
      <point x="603" y="447" type="curve" smooth="yes"/>
      <point x="611" y="447"/>
      <point x="618" y="454"/>
      <point x="618" y="462" type="curve" smooth="yes"/>
      <point x="618" y="470"/>
      <point x="611" y="477"/>
      <point x="603" y="477" type="curve" smooth="yes"/>
      <point x="595" y="477"/>
      <point x="588" y="470"/>
      <point x="588" y="462" type="curve" smooth="yes"/>
      <point x="588" y="454"/>
      <point x="595" y="447"/>
    </contour>
    <contour>
      <point x="673" y="375" type="curve" smooth="yes"/>
      <point x="681" y="375"/>
      <point x="688" y="382"/>
      <point x="688" y="390" type="curve" smooth="yes"/>
      <point x="688" y="398"/>
      <point x="681" y="405"/>
      <point x="673" y="405" type="curve" smooth="yes"/>
      <point x="665" y="405"/>
      <point x="658" y="398"/>
      <point x="658" y="390" type="curve" smooth="yes"/>
      <point x="658" y="382"/>
      <point x="665" y="375"/>
    </contour>
    <contour>
      <point x="703" y="276" type="curve" smooth="yes"/>
      <point x="711" y="276"/>
      <point x="718" y="283"/>
      <point x="718" y="291" type="curve" smooth="yes"/>
      <point x="718" y="299"/>
      <point x="711" y="306"/>
      <point x="703" y="306" type="curve" smooth="yes"/>
      <point x="695" y="306"/>
      <point x="688" y="299"/>
      <point x="688" y="291" type="curve" smooth="yes"/>
      <point x="688" y="283"/>
      <point x="695" y="276"/>
    </contour>
    <contour>
      <point x="675" y="182" type="curve" smooth="yes"/>
      <point x="683" y="182"/>
      <point x="690" y="189"/>
      <point x="690" y="197" type="curve" smooth="yes"/>
      <point x="690" y="205"/>
      <point x="683" y="212"/>
      <point x="675" y="212" type="curve" smooth="yes"/>
      <point x="667" y="212"/>
      <point x="660" y="205"/>
      <point x="660" y="197" type="curve" smooth="yes"/>
      <point x="660" y="189"/>
      <point x="667" y="182"/>
    </contour>
    <contour>
      <point x="604" y="110" type="curve" smooth="yes"/>
      <point x="612" y="110"/>
      <point x="619" y="117"/>
      <point x="619" y="125" type="curve" smooth="yes"/>
      <point x="619" y="133"/>
      <point x="612" y="140"/>
      <point x="604" y="140" type="curve" smooth="yes"/>
      <point x="596" y="140"/>
      <point x="589" y="133"/>
      <point x="589" y="125" type="curve" smooth="yes"/>
      <point x="589" y="117"/>
      <point x="596" y="110"/>
    </contour>
    <contour>
      <point x="506" y="82" type="curve" smooth="yes"/>
      <point x="514" y="82"/>
      <point x="521" y="89"/>
      <point x="521" y="97" type="curve" smooth="yes"/>
      <point x="521" y="105"/>
      <point x="514" y="112"/>
      <point x="506" y="112" type="curve" smooth="yes"/>
      <point x="498" y="112"/>
      <point x="491" y="105"/>
      <point x="491" y="97" type="curve" smooth="yes"/>
      <point x="491" y="89"/>
      <point x="498" y="82"/>
    </contour>
    <contour>
      <point x="409" y="109" type="curve" smooth="yes"/>
      <point x="417" y="109"/>
      <point x="424" y="116"/>
      <point x="424" y="124" type="curve" smooth="yes"/>
      <point x="424" y="132"/>
      <point x="417" y="139"/>
      <point x="409" y="139" type="curve" smooth="yes"/>
      <point x="401" y="139"/>
      <point x="394" y="132"/>
      <point x="394" y="124" type="curve" smooth="yes"/>
      <point x="394" y="116"/>
      <point x="401" y="109"/>
    </contour>
    <contour>
      <point x="336" y="181" type="curve" smooth="yes"/>
      <point x="344" y="181"/>
      <point x="351" y="188"/>
      <point x="351" y="196" type="curve" smooth="yes"/>
      <point x="351" y="204"/>
      <point x="344" y="211"/>
      <point x="336" y="211" type="curve" smooth="yes"/>
      <point x="328" y="211"/>
      <point x="321" y="204"/>
      <point x="321" y="196" type="curve" smooth="yes"/>
      <point x="321" y="188"/>
      <point x="328" y="181"/>
    </contour>
    <contour>
      <point x="913" y="605" type="line"/>
      <point x="913" y="804" type="line" smooth="yes"/>
      <point x="913" y="851"/>
      <point x="879" y="854"/>
      <point x="848" y="854" type="curve" smooth="yes"/>
      <point x="757" y="854" type="line"/>
      <point x="757" y="828" type="line"/>
      <point x="859" y="828" type="line" smooth="yes"/>
      <point x="881" y="828"/>
      <point x="887" y="812"/>
      <point x="887" y="783" type="curve" smooth="yes"/>
      <point x="887" y="605" type="line"/>
    </contour>
    <contour>
      <point x="892" y="0" type="line"/>
      <point x="918" y="0" type="line"/>
      <point x="918" y="494" type="line" smooth="yes"/>
      <point x="918" y="568"/>
      <point x="888" y="586"/>
      <point x="794" y="586" type="curve" smooth="yes"/>
      <point x="663" y="586" type="line"/>
      <point x="663" y="560" type="line"/>
      <point x="814" y="560" type="line" smooth="yes"/>
      <point x="875" y="560"/>
      <point x="892" y="535"/>
      <point x="892" y="483" type="curve" smooth="yes"/>
    </contour>
  </outline>
</glyph>
<glyph name="uni17C6" format="2">
  <unicode hex="17C6"/>
  <note>
uni17C6
</note>
  <outline>
    <contour>
      <point x="-297" y="684" type="curve" smooth="yes"/>
      <point x="-236" y="684"/>
      <point x="-187" y="733"/>
      <point x="-187" y="794" type="curve" smooth="yes"/>
      <point x="-187" y="855"/>
      <point x="-236" y="904"/>
      <point x="-297" y="904" type="curve" smooth="yes"/>
      <point x="-358" y="904"/>
      <point x="-407" y="855"/>
      <point x="-407" y="794" type="curve" smooth="yes"/>
      <point x="-407" y="733"/>
      <point x="-358" y="684"/>
    </contour>
    <contour>
      <point x="-297" y="710" type="curve" smooth="yes"/>
      <point x="-343" y="710"/>
      <point x="-381" y="748"/>
      <point x="-381" y="794" type="curve" smooth="yes"/>
      <point x="-381" y="840"/>
      <point x="-343" y="878"/>
      <point x="-297" y="878" type="curve" smooth="yes"/>
      <point x="-251" y="878"/>
      <point x="-213" y="840"/>
      <point x="-213" y="794" type="curve" smooth="yes"/>
      <point x="-213" y="748"/>
      <point x="-251" y="710"/>
    </contour>
  </outline>
</glyph>
<glyph name="uni17C7" format="2">
  <advance width="399"/>
  <unicode hex="17C7"/>
  <note>
uni17C7
</note>
  <outline>
    <contour>
      <point x="200" y="366" type="curve" smooth="yes"/>
      <point x="261" y="366"/>
      <point x="310" y="415"/>
      <point x="310" y="476" type="curve" smooth="yes"/>
      <point x="310" y="537"/>
      <point x="261" y="586"/>
      <point x="200" y="586" type="curve" smooth="yes"/>
      <point x="139" y="586"/>
      <point x="90" y="537"/>
      <point x="90" y="476" type="curve" smooth="yes"/>
      <point x="90" y="415"/>
      <point x="139" y="366"/>
    </contour>
    <contour>
      <point x="200" y="392" type="curve" smooth="yes"/>
      <point x="154" y="392"/>
      <point x="116" y="430"/>
      <point x="116" y="476" type="curve" smooth="yes"/>
      <point x="116" y="522"/>
      <point x="154" y="560"/>
      <point x="200" y="560" type="curve" smooth="yes"/>
      <point x="246" y="560"/>
      <point x="284" y="522"/>
      <point x="284" y="476" type="curve" smooth="yes"/>
      <point x="284" y="430"/>
      <point x="246" y="392"/>
    </contour>
    <contour>
      <point x="200" y="0" type="curve" smooth="yes"/>
      <point x="261" y="0"/>
      <point x="310" y="49"/>
      <point x="310" y="110" type="curve" smooth="yes"/>
      <point x="310" y="171"/>
      <point x="261" y="220"/>
      <point x="200" y="220" type="curve" smooth="yes"/>
      <point x="139" y="220"/>
      <point x="90" y="171"/>
      <point x="90" y="110" type="curve" smooth="yes"/>
      <point x="90" y="49"/>
      <point x="139" y="0"/>
    </contour>
    <contour>
      <point x="200" y="26" type="curve" smooth="yes"/>
      <point x="154" y="26"/>
      <point x="116" y="64"/>
      <point x="116" y="110" type="curve" smooth="yes"/>
      <point x="116" y="156"/>
      <point x="154" y="194"/>
      <point x="200" y="194" type="curve" smooth="yes"/>
      <point x="246" y="194"/>
      <point x="284" y="156"/>
      <point x="284" y="110" type="curve" smooth="yes"/>
      <point x="284" y="64"/>
      <point x="246" y="26"/>
    </contour>
  </outline>
</glyph>
<glyph name="uni17C9" format="2">
  <unicode hex="17C9"/>
  <note>
uni17C9
</note>
  <outline>
    <contour>
      <point x="-379" y="684" type="line"/>
      <point x="-351" y="684" type="line"/>
      <point x="-351" y="879" type="line"/>
      <point x="-379" y="879" type="line"/>
    </contour>
    <contour>
      <point x="-243" y="684" type="line"/>
      <point x="-215" y="684" type="line"/>
      <point x="-215" y="879" type="line"/>
      <point x="-243" y="879" type="line"/>
    </contour>
  </outline>
</glyph>
<glyph name="uni17CA" format="2">
  <unicode hex="17CA"/>
  <note>
uni17CA
</note>
  <outline>
    <contour>
      <point x="-483" y="684" type="line"/>
      <point x="-112" y="684" type="line"/>
      <point x="-112" y="710" type="line"/>
      <point x="-265" y="710" type="line"/>
      <point x="-298" y="686" type="line"/>
      <point x="-330" y="710" type="line"/>
      <point x="-483" y="710" type="line"/>
    </contour>
  </outline>
</glyph>
<glyph name="uni17CB" format="2">
  <unicode hex="17CB"/>
  <note>
uni17CB
</note>
  <outline>
    <contour>
      <point x="-310" y="684" type="line"/>
      <point x="-284" y="684" type="line"/>
      <point x="-284" y="879" type="line"/>
      <point x="-310" y="879" type="line"/>
    </contour>
  </outline>
</glyph>
<glyph name="uni17CC" format="2">
  <unicode hex="17CC"/>
  <note>
uni17CC
</note>
  <outline>
    <contour>
      <point x="-433" y="702" type="line"/>
      <point x="-377" y="742"/>
      <point x="-355" y="758"/>
      <point x="-300" y="758" type="curve" smooth="yes"/>
      <point x="-250" y="758"/>
      <point x="-212" y="742"/>
      <point x="-178" y="698" type="curve"/>
      <point x="-157" y="715" type="line"/>
      <point x="-200" y="761"/>
      <point x="-244" y="793"/>
      <point x="-333" y="781" type="curve"/>
      <point x="-293" y="823"/>
      <point x="-273" y="850"/>
      <point x="-232" y="911" type="curve"/>
      <point x="-257" y="919" type="line"/>
      <point x="-291" y="858"/>
      <point x="-354" y="788"/>
      <point x="-448" y="723" type="curve"/>
    </contour>
  </outline>
</glyph>
<glyph name="uni17CD" format="2">
  <unicode hex="17CD"/>
  <note>
uni17CD
</note>
  <outline>
    <contour>
      <point x="-392" y="684" type="curve" smooth="yes"/>
      <point x="-360" y="684" type="line"/>
      <point x="-360" y="710" type="line"/>
      <point x="-378" y="710" type="line" smooth="yes"/>
      <point x="-427" y="710"/>
      <point x="-440" y="723"/>
      <point x="-440" y="750" type="curve" smooth="yes"/>
      <point x="-440" y="775"/>
      <point x="-424" y="787"/>
      <point x="-386" y="787" type="curve" smooth="yes"/>
      <point x="-279" y="787" type="line" smooth="yes"/>
      <point x="-188" y="787"/>
      <point x="-132" y="828"/>
      <point x="-132" y="908" type="curve"/>
      <point x="-158" y="908" type="line"/>
      <point x="-158" y="839"/>
      <point x="-203" y="813"/>
      <point x="-275" y="813" type="curve" smooth="yes"/>
      <point x="-378" y="813" type="line" smooth="yes"/>
      <point x="-432" y="813"/>
      <point x="-466" y="797"/>
      <point x="-466" y="748" type="curve" smooth="yes"/>
      <point x="-466" y="705"/>
      <point x="-440" y="684"/>
    </contour>
  </outline>
</glyph>
<glyph name="uni17CF" format="2">
  <unicode hex="17CF"/>
  <note>
uni17CF
</note>
  <outline>
    <contour>
      <point x="-469" y="684" type="line"/>
      <point x="-439" y="684" type="line"/>
      <point x="-297" y="739" type="line"/>
      <point x="-155" y="684" type="line"/>
      <point x="-125" y="684" type="line"/>
      <point x="-125" y="767" type="line"/>
      <point x="-151" y="767" type="line"/>
      <point x="-151" y="710" type="line"/>
      <point x="-296" y="767" type="line"/>
      <point x="-443" y="710" type="line"/>
      <point x="-443" y="768" type="line" smooth="yes"/>
      <point x="-443" y="797"/>
      <point x="-443" y="816"/>
      <point x="-409" y="816" type="curve" smooth="yes"/>
      <point x="-189" y="816" type="line" smooth="yes"/>
      <point x="-150" y="816"/>
      <point x="-131" y="833"/>
      <point x="-131" y="862" type="curve" smooth="yes"/>
      <point x="-131" y="881" type="line"/>
      <point x="-157" y="881" type="line"/>
      <point x="-157" y="842"/>
      <point x="-166" y="842"/>
      <point x="-214" y="842" type="curve" smooth="yes"/>
      <point x="-403" y="842" type="line" smooth="yes"/>
      <point x="-462" y="842"/>
      <point x="-469" y="815"/>
      <point x="-469" y="768" type="curve" smooth="yes"/>
    </contour>
  </outline>
</glyph>
<glyph name="uni17D0" format="2">
  <unicode hex="17D0"/>
  <note>
uni17D0
</note>
  <outline>
    <contour>
      <point x="-320" y="685" type="curve" smooth="yes"/>
      <point x="-203" y="685"/>
      <point x="-126.5" y="754"/>
      <point x="-122.9" y="891" type="curve"/>
      <point x="-149" y="891" type="line"/>
      <point x="-153.5" y="784"/>
      <point x="-196.7" y="711"/>
      <point x="-320" y="711" type="curve" smooth="yes"/>
      <point x="-372.2" y="711"/>
      <point x="-404.6" y="732"/>
      <point x="-404.6" y="769" type="curve" smooth="yes"/>
      <point x="-404.6" y="807"/>
      <point x="-373.1" y="827"/>
      <point x="-302.9" y="827" type="curve"/>
      <point x="-302.9" y="855" type="line"/>
      <point x="-383" y="855"/>
      <point x="-428" y="823"/>
      <point x="-428" y="768" type="curve" smooth="yes"/>
      <point x="-428" y="706"/>
      <point x="-377.6" y="685"/>
    </contour>
  </outline>
</glyph>
<glyph name="uni17D2" format="2">
  <unicode hex="17D2"/>
  <note>
uni17D2
</note>
  <outline>
    <contour>
      <point x="-311" y="-244" type="line"/>
      <point x="-285" y="-244" type="line"/>
      <point x="-285" y="-147" type="line"/>
      <point x="-182" y="-147" type="line"/>
      <point x="-182" y="-121" type="line"/>
      <point x="-285" y="-121" type="line"/>
      <point x="-285" y="-24" type="line"/>
      <point x="-311" y="-24" type="line"/>
      <point x="-311" y="-121" type="line"/>
      <point x="-411" y="-121" type="line"/>
      <point x="-411" y="-147" type="line"/>
      <point x="-311" y="-147" type="line"/>
    </contour>
  </outline>
</glyph>
<glyph name="uni17D3" format="2">
  <unicode hex="17D3"/>
  <note>
uni17D3
</note>
  <outline>
    <contour>
      <point x="-297" y="685" type="curve" smooth="yes"/>
      <point x="-206" y="685"/>
      <point x="-102" y="717"/>
      <point x="-102" y="807" type="curve" smooth="yes"/>
      <point x="-102" y="893"/>
      <point x="-193" y="929"/>
      <point x="-297" y="929" type="curve" smooth="yes"/>
      <point x="-388" y="929"/>
      <point x="-493" y="891"/>
      <point x="-493" y="807" type="curve" smooth="yes"/>
      <point x="-493" y="722"/>
      <point x="-391" y="685"/>
    </contour>
    <contour>
      <point x="-297" y="711" type="curve" smooth="yes"/>
      <point x="-393" y="711"/>
      <point x="-467" y="741"/>
      <point x="-467" y="807" type="curve" smooth="yes"/>
      <point x="-467" y="880"/>
      <point x="-364" y="903"/>
      <point x="-297" y="903" type="curve" smooth="yes"/>
      <point x="-204" y="903"/>
      <point x="-128" y="876"/>
      <point x="-128" y="807" type="curve" smooth="yes"/>
      <point x="-128" y="742"/>
      <point x="-200" y="711"/>
    </contour>
  </outline>
</glyph>
<glyph name="uni17D4" format="2">
  <advance width="586"/>
  <unicode hex="17D4"/>
  <note>
uni17D4
</note>
  <outline>
    <contour>
      <point x="429" y="0" type="line"/>
      <point x="455" y="0" type="line"/>
      <point x="455" y="586" type="line"/>
      <point x="429" y="586" type="line"/>
      <point x="392" y="524"/>
      <point x="323" y="431"/>
      <point x="241" y="431" type="curve" smooth="yes"/>
      <point x="176" y="431"/>
      <point x="157" y="472"/>
      <point x="157" y="502" type="curve" smooth="yes"/>
      <point x="157" y="526"/>
      <point x="177" y="560"/>
      <point x="235" y="560" type="curve" smooth="yes"/>
      <point x="244" y="560" type="line"/>
      <point x="244" y="586" type="line"/>
      <point x="243" y="586" type="line" smooth="yes"/>
      <point x="168" y="586"/>
      <point x="131" y="553"/>
      <point x="131" y="501" type="curve" smooth="yes"/>
      <point x="131" y="439"/>
      <point x="178" y="405"/>
      <point x="240" y="405" type="curve" smooth="yes"/>
      <point x="323" y="405"/>
      <point x="392" y="483"/>
      <point x="429" y="538" type="curve"/>
    </contour>
  </outline>
</glyph>
<glyph name="uni17D5" format="2">
  <advance width="627"/>
  <unicode hex="17D5"/>
  <note>
uni17D5
</note>
  <outline>
    <contour>
      <point x="489" y="0" type="line"/>
      <point x="517" y="0" type="line"/>
      <point x="517" y="586" type="line"/>
      <point x="489" y="586" type="line"/>
    </contour>
    <contour>
      <point x="408" y="0" type="line"/>
      <point x="434" y="0" type="line"/>
      <point x="434" y="586" type="line"/>
      <point x="408" y="586" type="line"/>
      <point x="371" y="524"/>
      <point x="302" y="431"/>
      <point x="220" y="431" type="curve" smooth="yes"/>
      <point x="155" y="431"/>
      <point x="136" y="472"/>
      <point x="136" y="502" type="curve" smooth="yes"/>
      <point x="136" y="526"/>
      <point x="156" y="560"/>
      <point x="214" y="560" type="curve" smooth="yes"/>
      <point x="223" y="560" type="line"/>
      <point x="223" y="586" type="line"/>
      <point x="222" y="586" type="line" smooth="yes"/>
      <point x="147" y="586"/>
      <point x="110" y="553"/>
      <point x="110" y="501" type="curve" smooth="yes"/>
      <point x="110" y="439"/>
      <point x="157" y="405"/>
      <point x="219" y="405" type="curve" smooth="yes"/>
      <point x="302" y="405"/>
      <point x="371" y="483"/>
      <point x="408" y="538" type="curve"/>
    </contour>
  </outline>
</glyph>
<glyph name="uni17D6" format="2">
  <advance width="497"/>
  <unicode hex="17D6"/>
  <note>
uni17D6
</note>
  <outline>
    <contour>
      <point x="90" y="281" type="line"/>
      <point x="408" y="281" type="line"/>
      <point x="408" y="307" type="line"/>
      <point x="90" y="307" type="line"/>
    </contour>
    <contour>
      <point x="249" y="-3" type="curve" smooth="yes"/>
      <point x="310" y="-3"/>
      <point x="359" y="46"/>
      <point x="359" y="107" type="curve" smooth="yes"/>
      <point x="359" y="168"/>
      <point x="310" y="217"/>
      <point x="249" y="217" type="curve" smooth="yes"/>
      <point x="188" y="217"/>
      <point x="139" y="168"/>
      <point x="139" y="107" type="curve" smooth="yes"/>
      <point x="139" y="46"/>
      <point x="188" y="-3"/>
    </contour>
    <contour>
      <point x="249" y="23" type="curve" smooth="yes"/>
      <point x="203" y="23"/>
      <point x="165" y="61"/>
      <point x="165" y="107" type="curve" smooth="yes"/>
      <point x="165" y="153"/>
      <point x="203" y="191"/>
      <point x="249" y="191" type="curve" smooth="yes"/>
      <point x="295" y="191"/>
      <point x="333" y="153"/>
      <point x="333" y="107" type="curve" smooth="yes"/>
      <point x="333" y="61"/>
      <point x="295" y="23"/>
    </contour>
    <contour>
      <point x="249" y="363" type="curve" smooth="yes"/>
      <point x="310" y="363"/>
      <point x="359" y="412"/>
      <point x="359" y="473" type="curve" smooth="yes"/>
      <point x="359" y="534"/>
      <point x="310" y="583"/>
      <point x="249" y="583" type="curve" smooth="yes"/>
      <point x="188" y="583"/>
      <point x="139" y="534"/>
      <point x="139" y="473" type="curve" smooth="yes"/>
      <point x="139" y="412"/>
      <point x="188" y="363"/>
    </contour>
    <contour>
      <point x="249" y="389" type="curve" smooth="yes"/>
      <point x="203" y="389"/>
      <point x="165" y="427"/>
      <point x="165" y="473" type="curve" smooth="yes"/>
      <point x="165" y="519"/>
      <point x="203" y="557"/>
      <point x="249" y="557" type="curve" smooth="yes"/>
      <point x="295" y="557"/>
      <point x="333" y="519"/>
      <point x="333" y="473" type="curve" smooth="yes"/>
      <point x="333" y="427"/>
      <point x="295" y="389"/>
    </contour>
  </outline>
</glyph>
<glyph name="uni17D7" format="2">
  <advance width="586"/>
  <unicode hex="17D7"/>
  <note>
uni17D7
</note>
  <outline>
    <contour>
      <point x="269" y="-195" type="line"/>
      <point x="271" y="-195" type="line" smooth="yes"/>
      <point x="394" y="-195"/>
      <point x="455" y="-143"/>
      <point x="455" y="-39" type="curve" smooth="yes"/>
      <point x="455" y="586" type="line"/>
      <point x="429" y="586" type="line"/>
      <point x="396" y="545"/>
      <point x="345" y="487"/>
      <point x="309" y="487" type="curve" smooth="yes"/>
      <point x="266" y="487"/>
      <point x="261" y="586"/>
      <point x="179" y="586" type="curve" smooth="yes"/>
      <point x="136" y="586"/>
      <point x="106" y="550"/>
      <point x="106" y="508" type="curve" smooth="yes"/>
      <point x="106" y="451"/>
      <point x="145" y="420"/>
      <point x="193" y="420" type="curve" smooth="yes"/>
      <point x="209" y="420" type="line"/>
      <point x="209" y="446" type="line"/>
      <point x="200" y="446" type="line" smooth="yes"/>
      <point x="156" y="446"/>
      <point x="132" y="472"/>
      <point x="132" y="508" type="curve" smooth="yes"/>
      <point x="132" y="536"/>
      <point x="147" y="560"/>
      <point x="178" y="560" type="curve" smooth="yes"/>
      <point x="242" y="560"/>
      <point x="245" y="461"/>
      <point x="309" y="461" type="curve" smooth="yes"/>
      <point x="343" y="461"/>
      <point x="379" y="492"/>
      <point x="428" y="544" type="curve"/>
      <point x="429" y="544" type="line"/>
      <point x="429" y="-39" type="line" smooth="yes"/>
      <point x="429" y="-118"/>
      <point x="376" y="-167"/>
      <point x="271" y="-169" type="curve" smooth="yes"/>
      <point x="269" y="-169" type="line"/>
    </contour>
  </outline>
</glyph>
<glyph name="uni17D8" format="2">
  <advance width="1830"/>
  <unicode hex="17D8"/>
  <note>
uni17D8
</note>
  <outline>
    <contour>
      <point x="398" y="0" type="line"/>
      <point x="424" y="0" type="line"/>
      <point x="424" y="586" type="line"/>
      <point x="398" y="586" type="line"/>
      <point x="361" y="524"/>
      <point x="292" y="431"/>
      <point x="210" y="431" type="curve" smooth="yes"/>
      <point x="145" y="431"/>
      <point x="126" y="472"/>
      <point x="126" y="502" type="curve" smooth="yes"/>
      <point x="126" y="526"/>
      <point x="146" y="560"/>
      <point x="204" y="560" type="curve" smooth="yes"/>
      <point x="213" y="560" type="line"/>
      <point x="213" y="586" type="line"/>
      <point x="212" y="586" type="line" smooth="yes"/>
      <point x="137" y="586"/>
      <point x="100" y="553"/>
      <point x="100" y="501" type="curve" smooth="yes"/>
      <point x="100" y="439"/>
      <point x="147" y="405"/>
      <point x="209" y="405" type="curve" smooth="yes"/>
      <point x="292" y="405"/>
      <point x="361" y="483"/>
      <point x="398" y="538" type="curve"/>
    </contour>
    <contour>
      <point x="1256" y="386" type="line"/>
      <point x="1230" y="386" type="line"/>
      <point x="1230" y="158" type="line" smooth="yes"/>
      <point x="1230" y="75"/>
      <point x="1181" y="26"/>
      <point x="1084" y="26" type="curve" smooth="yes"/>
      <point x="989" y="26"/>
      <point x="941" y="75"/>
      <point x="941" y="158" type="curve" smooth="yes"/>
      <point x="941" y="428" type="line" smooth="yes"/>
      <point x="941" y="533"/>
      <point x="882" y="586"/>
      <point x="764" y="586" type="curve" smooth="yes"/>
      <point x="648" y="586"/>
      <point x="589" y="533"/>
      <point x="589" y="428" type="curve" smooth="yes"/>
      <point x="589" y="190" type="line"/>
      <point x="615" y="190" type="line"/>
      <point x="615" y="428" type="line" smooth="yes"/>
      <point x="615" y="509"/>
      <point x="667" y="560"/>
      <point x="764" y="560" type="curve" smooth="yes"/>
      <point x="863" y="560"/>
      <point x="915" y="509"/>
      <point x="915" y="428" type="curve" smooth="yes"/>
      <point x="915" y="158" type="line" smooth="yes"/>
      <point x="915" y="53"/>
      <point x="970" y="0"/>
      <point x="1084" y="0" type="curve" smooth="yes"/>
      <point x="1200" y="0"/>
      <point x="1256" y="53"/>
      <point x="1256" y="158" type="curve" smooth="yes"/>
    </contour>
    <contour>
      <point x="589" y="208" type="line" smooth="yes"/>
      <point x="589" y="27" type="line" smooth="yes"/>
      <point x="589" y="3"/>
      <point x="605" y="0"/>
      <point x="618" y="0" type="curve" smooth="yes"/>
      <point x="621" y="0" type="line" smooth="yes"/>
      <point x="657" y="0"/>
      <point x="700" y="33"/>
      <point x="700" y="94" type="curve" smooth="yes"/>
      <point x="700" y="149"/>
      <point x="657" y="168"/>
      <point x="615" y="168" type="curve"/>
      <point x="615" y="208" type="line"/>
    </contour>
    <contour>
      <point x="615" y="26" type="curve"/>
      <point x="615" y="141" type="line"/>
      <point x="659" y="141"/>
      <point x="674" y="121"/>
      <point x="674" y="91" type="curve" smooth="yes"/>
      <point x="674" y="68"/>
      <point x="662" y="26"/>
    </contour>
    <contour>
      <point x="1230" y="376" type="line"/>
      <point x="1256" y="376" type="line"/>
      <point x="1256" y="398" type="line"/>
      <point x="1174" y="536" type="line"/>
      <point x="1182" y="560" type="line"/>
      <point x="1275" y="560" type="line"/>
      <point x="1275" y="586" type="line"/>
      <point x="1184" y="586" type="line"/>
      <point x="1169" y="569"/>
      <point x="1159" y="547"/>
      <point x="1159" y="530" type="curve" smooth="yes"/>
      <point x="1159" y="514"/>
      <point x="1173" y="486"/>
      <point x="1230" y="394" type="curve"/>
    </contour>
    <contour>
      <point x="1684" y="0" type="line"/>
      <point x="1710" y="0" type="line"/>
      <point x="1710" y="586" type="line"/>
      <point x="1684" y="586" type="line"/>
      <point x="1647" y="524"/>
      <point x="1578" y="431"/>
      <point x="1496" y="431" type="curve" smooth="yes"/>
      <point x="1431" y="431"/>
      <point x="1412" y="472"/>
      <point x="1412" y="502" type="curve" smooth="yes"/>
      <point x="1412" y="526"/>
      <point x="1432" y="560"/>
      <point x="1490" y="560" type="curve" smooth="yes"/>
      <point x="1499" y="560" type="line"/>
      <point x="1499" y="586" type="line"/>
      <point x="1498" y="586" type="line" smooth="yes"/>
      <point x="1423" y="586"/>
      <point x="1386" y="553"/>
      <point x="1386" y="501" type="curve" smooth="yes"/>
      <point x="1386" y="439"/>
      <point x="1433" y="405"/>
      <point x="1495" y="405" type="curve" smooth="yes"/>
      <point x="1578" y="405"/>
      <point x="1647" y="483"/>
      <point x="1684" y="538" type="curve"/>
    </contour>
  </outline>
</glyph>
<glyph name="uni17D9" format="2">
  <advance width="703"/>
  <unicode hex="17D9"/>
  <note>
uni17D9
</note>
  <outline>
    <contour>
      <point x="351" y="14" type="curve" smooth="yes"/>
      <point x="525" y="14"/>
      <point x="593" y="113"/>
      <point x="593" y="293" type="curve" smooth="yes"/>
      <point x="593" y="473"/>
      <point x="525" y="573"/>
      <point x="351" y="573" type="curve" smooth="yes"/>
      <point x="177" y="573"/>
      <point x="110" y="473"/>
      <point x="110" y="293" type="curve" smooth="yes"/>
      <point x="110" y="113"/>
      <point x="177" y="14"/>
    </contour>
    <contour>
      <point x="351" y="40" type="curve" smooth="yes"/>
      <point x="203" y="40"/>
      <point x="136" y="114"/>
      <point x="136" y="293" type="curve" smooth="yes"/>
      <point x="136" y="472"/>
      <point x="203" y="547"/>
      <point x="351" y="547" type="curve" smooth="yes"/>
      <point x="499" y="547"/>
      <point x="567" y="472"/>
      <point x="567" y="293" type="curve" smooth="yes"/>
      <point x="567" y="114"/>
      <point x="499" y="40"/>
    </contour>
    <contour>
      <point x="351" y="93" type="curve" smooth="yes"/>
      <point x="431" y="93"/>
      <point x="471" y="178"/>
      <point x="471" y="293" type="curve" smooth="yes"/>
      <point x="471" y="408"/>
      <point x="431" y="492"/>
      <point x="351" y="492" type="curve" smooth="yes"/>
      <point x="271" y="492"/>
      <point x="231" y="406"/>
      <point x="231" y="293" type="curve" smooth="yes"/>
      <point x="231" y="180"/>
      <point x="271" y="93"/>
    </contour>
    <contour>
      <point x="351" y="119" type="curve" smooth="yes"/>
      <point x="291" y="119"/>
      <point x="257" y="201"/>
      <point x="257" y="293" type="curve" smooth="yes"/>
      <point x="257" y="381"/>
      <point x="286" y="466"/>
      <point x="351" y="466" type="curve" smooth="yes"/>
      <point x="414" y="466"/>
      <point x="445" y="386"/>
      <point x="445" y="293" type="curve" smooth="yes"/>
      <point x="445" y="204"/>
      <point x="415" y="119"/>
    </contour>
  </outline>
</glyph>
<glyph name="uni17DA" format="2">
  <advance width="1399"/>
  <unicode hex="17DA"/>
  <note>
uni17DA
</note>
  <outline>
    <contour>
      <point x="299" y="0" type="curve" smooth="yes"/>
      <point x="410" y="0"/>
      <point x="497" y="122"/>
      <point x="560" y="241" type="curve" smooth="yes"/>
      <point x="691" y="487" type="line"/>
      <point x="855" y="67" type="line"/>
      <point x="885" y="67" type="line"/>
      <point x="1011" y="432" type="line"/>
      <point x="1117" y="106" type="line"/>
      <point x="1145" y="106" type="line"/>
      <point x="1211" y="269" type="line"/>
      <point x="1319" y="269" type="line"/>
      <point x="1319" y="295" type="line"/>
      <point x="1193" y="295" type="line"/>
      <point x="1133" y="147" type="line"/>
      <point x="1025" y="464" type="line"/>
      <point x="995" y="464" type="line"/>
      <point x="869" y="99" type="line"/>
      <point x="707" y="517" type="line"/>
      <point x="677" y="517" type="line"/>
      <point x="558" y="292" type="line" smooth="yes"/>
      <point x="529" y="237"/>
      <point x="427" y="26"/>
      <point x="303" y="26" type="curve" smooth="yes"/>
      <point x="217" y="26"/>
      <point x="136" y="125"/>
      <point x="136" y="302" type="curve" smooth="yes"/>
      <point x="136" y="471"/>
      <point x="220" y="562"/>
      <point x="339" y="562" type="curve" smooth="yes"/>
      <point x="407" y="562"/>
      <point x="473" y="527"/>
      <point x="473" y="443" type="curve" smooth="yes"/>
      <point x="473" y="356"/>
      <point x="406" y="323"/>
      <point x="333" y="323" type="curve"/>
      <point x="333" y="297" type="line"/>
      <point x="438" y="297"/>
      <point x="499" y="356"/>
      <point x="499" y="446" type="curve" smooth="yes"/>
      <point x="499" y="531"/>
      <point x="435" y="588"/>
      <point x="338" y="588" type="curve" smooth="yes"/>
      <point x="221" y="588"/>
      <point x="110" y="503"/>
      <point x="110" y="303" type="curve" smooth="yes"/>
      <point x="110" y="116"/>
      <point x="196" y="0"/>
    </contour>
  </outline>
</glyph>
<glyph name="uni17DC" format="2">
  <advance width="759"/>
  <unicode hex="17DC"/>
  <note>
uni17DC
</note>
  <outline>
    <contour>
      <point x="356" y="0" type="curve" smooth="yes"/>
      <point x="522" y="0"/>
      <point x="619" y="89"/>
      <point x="619" y="184" type="curve" smooth="yes"/>
      <point x="619" y="300"/>
      <point x="537" y="335"/>
      <point x="382" y="360" type="curve" smooth="yes"/>
      <point x="276" y="377"/>
      <point x="167" y="394"/>
      <point x="167" y="500" type="curve" smooth="yes"/>
      <point x="167" y="618"/>
      <point x="293" y="658"/>
      <point x="385" y="658" type="curve" smooth="yes"/>
      <point x="447" y="658"/>
      <point x="582" y="643"/>
      <point x="582" y="541" type="curve" smooth="yes"/>
      <point x="582" y="472"/>
      <point x="513" y="467"/>
      <point x="491" y="467" type="curve"/>
      <point x="491" y="441" type="line"/>
      <point x="550" y="441"/>
      <point x="608" y="468"/>
      <point x="608" y="545" type="curve" smooth="yes"/>
      <point x="608" y="618"/>
      <point x="537" y="684"/>
      <point x="388" y="684" type="curve" smooth="yes"/>
      <point x="239" y="684"/>
      <point x="140" y="614"/>
      <point x="140" y="499" type="curve" smooth="yes"/>
      <point x="140" y="375"/>
      <point x="258" y="351"/>
      <point x="363" y="334" type="curve" smooth="yes"/>
      <point x="498" y="312"/>
      <point x="593" y="292"/>
      <point x="593" y="184" type="curve" smooth="yes"/>
      <point x="593" y="112"/>
      <point x="500" y="26"/>
      <point x="359" y="26" type="curve" smooth="yes"/>
      <point x="248" y="26"/>
      <point x="166" y="63"/>
      <point x="166" y="143" type="curve" smooth="yes"/>
      <point x="166" y="195"/>
      <point x="246" y="224"/>
      <point x="284" y="224" type="curve"/>
      <point x="284" y="250" type="line"/>
      <point x="236" y="250"/>
      <point x="140" y="218"/>
      <point x="140" y="138" type="curve" smooth="yes"/>
      <point x="140" y="61"/>
      <point x="207" y="0"/>
    </contour>
  </outline>
</glyph>
<glyph name="uni17E0" format="2">
  <advance width="594"/>
  <unicode hex="17E0"/>
  <note>
uni17E0
</note>
  <outline>
    <contour>
      <point x="297" y="0" type="curve" smooth="yes"/>
      <point x="414" y="0"/>
      <point x="484" y="62"/>
      <point x="484" y="186" type="curve" smooth="yes"/>
      <point x="484" y="400" type="line" smooth="yes"/>
      <point x="484" y="524"/>
      <point x="414" y="586"/>
      <point x="297" y="586" type="curve" smooth="yes"/>
      <point x="180" y="586"/>
      <point x="110" y="524"/>
      <point x="110" y="400" type="curve" smooth="yes"/>
      <point x="110" y="186" type="line" smooth="yes"/>
      <point x="110" y="62"/>
      <point x="180" y="0"/>
    </contour>
    <contour>
      <point x="297" y="26" type="curve" smooth="yes"/>
      <point x="190" y="26"/>
      <point x="136" y="85"/>
      <point x="136" y="186" type="curve" smooth="yes"/>
      <point x="136" y="400" type="line" smooth="yes"/>
      <point x="136" y="501"/>
      <point x="190" y="560"/>
      <point x="297" y="560" type="curve" smooth="yes"/>
      <point x="404" y="560"/>
      <point x="458" y="501"/>
      <point x="458" y="400" type="curve" smooth="yes"/>
      <point x="458" y="186" type="line" smooth="yes"/>
      <point x="458" y="85"/>
      <point x="404" y="26"/>
    </contour>
  </outline>
</glyph>
<glyph name="uni17E1" format="2">
  <advance width="593"/>
  <unicode hex="17E1"/>
  <note>
uni17E1
</note>
  <outline>
    <contour>
      <point x="296" y="0" type="curve" smooth="yes"/>
      <point x="413" y="0"/>
      <point x="483" y="54"/>
      <point x="483" y="156" type="curve" smooth="yes"/>
      <point x="483" y="430" type="line" smooth="yes"/>
      <point x="483" y="532"/>
      <point x="416" y="586"/>
      <point x="296" y="586" type="curve" smooth="yes"/>
      <point x="177" y="586"/>
      <point x="110" y="534"/>
      <point x="110" y="430" type="curve" smooth="yes"/>
      <point x="110" y="356" type="line" smooth="yes"/>
      <point x="110" y="293"/>
      <point x="152" y="254"/>
      <point x="206" y="254" type="curve" smooth="yes"/>
      <point x="296" y="254" type="line"/>
      <point x="296" y="280" type="line"/>
      <point x="204" y="280" type="line" smooth="yes"/>
      <point x="157" y="280"/>
      <point x="136" y="321"/>
      <point x="136" y="356" type="curve" smooth="yes"/>
      <point x="136" y="430" type="line" smooth="yes"/>
      <point x="136" y="511"/>
      <point x="189" y="560"/>
      <point x="296" y="560" type="curve" smooth="yes"/>
      <point x="403" y="560"/>
      <point x="457" y="511"/>
      <point x="457" y="430" type="curve" smooth="yes"/>
      <point x="457" y="156" type="line" smooth="yes"/>
      <point x="457" y="75"/>
      <point x="403" y="26"/>
      <point x="296" y="26" type="curve" smooth="yes"/>
      <point x="189" y="26"/>
      <point x="136" y="75"/>
      <point x="136" y="156" type="curve"/>
      <point x="110" y="156" type="line"/>
      <point x="110" y="55"/>
      <point x="181" y="0"/>
    </contour>
  </outline>
</glyph>
<glyph name="uni17E2" format="2">
  <advance width="664"/>
  <unicode hex="17E2"/>
  <note>
uni17E2
</note>
  <outline>
    <contour>
      <point x="330" y="0" type="curve" smooth="yes"/>
      <point x="469" y="0"/>
      <point x="554" y="63"/>
      <point x="554" y="195" type="curve" smooth="yes"/>
      <point x="554" y="586" type="line"/>
      <point x="528" y="586" type="line"/>
      <point x="392" y="468" type="line"/>
      <point x="259" y="586" type="line"/>
      <point x="233" y="586" type="line"/>
      <point x="233" y="308" type="line"/>
      <point x="286" y="308" type="line"/>
      <point x="286" y="334" type="line"/>
      <point x="259" y="334" type="line"/>
      <point x="259" y="551" type="line"/>
      <point x="392" y="433" type="line"/>
      <point x="528" y="551" type="line"/>
      <point x="528" y="195" type="line" smooth="yes"/>
      <point x="528" y="88"/>
      <point x="462" y="26"/>
      <point x="330" y="26" type="curve" smooth="yes"/>
      <point x="199" y="26"/>
      <point x="134" y="88"/>
      <point x="134" y="195" type="curve" smooth="yes"/>
      <point x="134" y="690" type="line" smooth="yes"/>
      <point x="134" y="708"/>
      <point x="130" y="714"/>
      <point x="113" y="714" type="curve" smooth="yes"/>
      <point x="60" y="714" type="line"/>
      <point x="60" y="688" type="line"/>
      <point x="108" y="688" type="line"/>
      <point x="108" y="195" type="line" smooth="yes"/>
      <point x="108" y="65"/>
      <point x="191" y="0"/>
    </contour>
  </outline>
</glyph>
<glyph name="uni17E3" format="2">
  <advance width="821"/>
  <unicode hex="17E3"/>
  <note>
uni17E3
</note>
  <outline>
    <contour>
      <point x="110" y="0" type="line"/>
      <point x="185" y="0" type="line"/>
      <point x="185" y="26" type="line"/>
      <point x="136" y="26" type="line"/>
      <point x="136" y="430" type="line" smooth="yes"/>
      <point x="136" y="513"/>
      <point x="182" y="560"/>
      <point x="267" y="560" type="curve" smooth="yes"/>
      <point x="352" y="560"/>
      <point x="398" y="533"/>
      <point x="398" y="501" type="curve" smooth="yes"/>
      <point x="398" y="0" type="line"/>
      <point x="424" y="0" type="line"/>
      <point x="424" y="501" type="line" smooth="yes"/>
      <point x="424" y="533"/>
      <point x="467" y="560"/>
      <point x="554" y="560" type="curve" smooth="yes"/>
      <point x="639" y="560"/>
      <point x="685" y="513"/>
      <point x="685" y="440" type="curve" smooth="yes"/>
      <point x="685" y="0" type="line"/>
      <point x="711" y="0" type="line"/>
      <point x="711" y="440" type="line" smooth="yes"/>
      <point x="711" y="537"/>
      <point x="641" y="586"/>
      <point x="554" y="586" type="curve" smooth="yes"/>
      <point x="489" y="586"/>
      <point x="441" y="571"/>
      <point x="410" y="542" type="curve"/>
      <point x="379" y="571"/>
      <point x="331" y="586"/>
      <point x="267" y="586" type="curve" smooth="yes"/>
      <point x="180" y="586"/>
      <point x="110" y="539"/>
      <point x="110" y="435" type="curve" smooth="yes"/>
    </contour>
  </outline>
</glyph>
<glyph name="uni17E4" format="2">
  <advance width="592"/>
  <unicode hex="17E4"/>
  <note>
uni17E4
</note>
  <outline>
    <contour>
      <point x="295" y="0" type="curve" smooth="yes"/>
      <point x="455" y="0" type="line"/>
      <point x="477" y="31" type="line"/>
      <point x="348" y="227" type="line"/>
      <point x="348" y="432" type="line"/>
      <point x="482" y="432" type="line"/>
      <point x="482" y="458" type="line"/>
      <point x="372" y="458" type="line" smooth="yes"/>
      <point x="324" y="458"/>
      <point x="322" y="449"/>
      <point x="322" y="418" type="curve" smooth="yes"/>
      <point x="322" y="219" type="line"/>
      <point x="449" y="26" type="line"/>
      <point x="295" y="26" type="line" smooth="yes"/>
      <point x="188" y="26"/>
      <point x="135" y="88"/>
      <point x="135" y="195" type="curve" smooth="yes"/>
      <point x="135" y="687" type="line" smooth="yes"/>
      <point x="135" y="708"/>
      <point x="126" y="713"/>
      <point x="109" y="713" type="curve" smooth="yes"/>
      <point x="60" y="713" type="line"/>
      <point x="60" y="687" type="line"/>
      <point x="109" y="687" type="line"/>
      <point x="109" y="195" type="line" smooth="yes"/>
      <point x="109" y="65"/>
      <point x="180" y="0"/>
    </contour>
  </outline>
</glyph>
<glyph name="uni17E5" format="2">
  <advance width="583"/>
  <unicode hex="17E5"/>
  <note>
uni17E5
</note>
  <outline>
    <contour>
      <point x="299" y="0" type="curve" smooth="yes"/>
      <point x="456" y="0" type="line"/>
      <point x="478" y="31" type="line"/>
      <point x="349" y="227" type="line"/>
      <point x="349" y="365" type="line"/>
      <point x="483" y="365" type="line"/>
      <point x="483" y="391" type="line"/>
      <point x="357" y="391" type="line" smooth="yes"/>
      <point x="325" y="391"/>
      <point x="323" y="382"/>
      <point x="323" y="351" type="curve" smooth="yes"/>
      <point x="323" y="219" type="line"/>
      <point x="450" y="26" type="line"/>
      <point x="296" y="26" type="line" smooth="yes"/>
      <point x="189" y="26"/>
      <point x="136" y="88"/>
      <point x="136" y="195" type="curve" smooth="yes"/>
      <point x="136" y="417" type="line" smooth="yes"/>
      <point x="136" y="481"/>
      <point x="174" y="513"/>
      <point x="206" y="525" type="curve"/>
      <point x="246" y="499"/>
      <point x="302" y="485"/>
      <point x="345" y="485" type="curve" smooth="yes"/>
      <point x="409" y="485"/>
      <point x="483" y="529"/>
      <point x="483" y="590" type="curve" smooth="yes"/>
      <point x="483" y="714" type="line"/>
      <point x="457" y="714" type="line"/>
      <point x="457" y="590" type="line" smooth="yes"/>
      <point x="457" y="551"/>
      <point x="402" y="511"/>
      <point x="345" y="511" type="curve" smooth="yes"/>
      <point x="305" y="511"/>
      <point x="259" y="519"/>
      <point x="234" y="537" type="curve"/>
      <point x="244" y="545"/>
      <point x="251" y="554"/>
      <point x="251" y="571" type="curve" smooth="yes"/>
      <point x="251" y="589"/>
      <point x="235" y="608"/>
      <point x="211" y="608" type="curve" smooth="yes"/>
      <point x="191" y="608"/>
      <point x="174" y="592"/>
      <point x="174" y="571" type="curve" smooth="yes"/>
      <point x="174" y="559"/>
      <point x="178" y="552"/>
      <point x="186" y="543" type="curve"/>
      <point x="125" y="515"/>
      <point x="110" y="464"/>
      <point x="110" y="423" type="curve" smooth="yes"/>
      <point x="110" y="195" type="line" smooth="yes"/>
      <point x="110" y="65"/>
      <point x="179" y="0"/>
    </contour>
  </outline>
</glyph>
<glyph name="uni17E6" format="2">
  <advance width="593"/>
  <unicode hex="17E6"/>
  <note>
uni17E6
</note>
  <outline>
    <contour>
      <point x="296" y="0" type="curve" smooth="yes"/>
      <point x="415" y="0"/>
      <point x="483" y="69"/>
      <point x="483" y="195" type="curve" smooth="yes"/>
      <point x="483" y="391" type="line" smooth="yes"/>
      <point x="483" y="521"/>
      <point x="421" y="586"/>
      <point x="296" y="586" type="curve" smooth="yes"/>
      <point x="214" y="586"/>
      <point x="164" y="557"/>
      <point x="136" y="512" type="curve"/>
      <point x="136" y="714" type="line"/>
      <point x="110" y="714" type="line"/>
      <point x="110" y="422" type="line"/>
      <point x="136" y="422" type="line"/>
      <point x="142" y="510"/>
      <point x="189" y="560"/>
      <point x="296" y="560" type="curve" smooth="yes"/>
      <point x="403" y="560"/>
      <point x="457" y="498"/>
      <point x="457" y="391" type="curve" smooth="yes"/>
      <point x="457" y="195" type="line" smooth="yes"/>
      <point x="457" y="88"/>
      <point x="403" y="26"/>
      <point x="296" y="26" type="curve" smooth="yes"/>
      <point x="189" y="26"/>
      <point x="135" y="80"/>
      <point x="135" y="171" type="curve" smooth="yes"/>
      <point x="135" y="240"/>
      <point x="150" y="316"/>
      <point x="250" y="316" type="curve" smooth="yes"/>
      <point x="321" y="316" type="line"/>
      <point x="321" y="342" type="line"/>
      <point x="260" y="342" type="line" smooth="yes"/>
      <point x="149" y="342"/>
      <point x="110" y="285"/>
      <point x="110" y="171" type="curve" smooth="yes"/>
      <point x="110" y="62"/>
      <point x="174" y="0"/>
    </contour>
  </outline>
</glyph>
<glyph name="uni17E7" format="2">
  <advance width="708"/>
  <unicode hex="17E7"/>
  <note>
uni17E7
</note>
  <outline>
    <contour>
      <point x="110" y="0" type="line"/>
      <point x="249" y="0" type="line"/>
      <point x="249" y="26" type="line"/>
      <point x="136" y="26" type="line"/>
      <point x="136" y="501" type="line" smooth="yes"/>
      <point x="136" y="540"/>
      <point x="157" y="560"/>
      <point x="188" y="560" type="curve" smooth="yes"/>
      <point x="213" y="560"/>
      <point x="233" y="541"/>
      <point x="258" y="510" type="curve" smooth="yes"/>
      <point x="266" y="500"/>
      <point x="275" y="495"/>
      <point x="285" y="495" type="curve" smooth="yes"/>
      <point x="295" y="495"/>
      <point x="304" y="500"/>
      <point x="313" y="510" type="curve" smooth="yes"/>
      <point x="339" y="540"/>
      <point x="360" y="560"/>
      <point x="385" y="560" type="curve" smooth="yes"/>
      <point x="416" y="560"/>
      <point x="434" y="535"/>
      <point x="434" y="503" type="curve" smooth="yes"/>
      <point x="434" y="72" type="line" smooth="yes"/>
      <point x="434" y="21"/>
      <point x="469" y="0"/>
      <point x="516" y="0" type="curve" smooth="yes"/>
      <point x="563" y="0"/>
      <point x="598" y="21"/>
      <point x="598" y="72" type="curve" smooth="yes"/>
      <point x="598" y="714" type="line"/>
      <point x="572" y="714" type="line"/>
      <point x="572" y="69" type="line" smooth="yes"/>
      <point x="572" y="35"/>
      <point x="546" y="26"/>
      <point x="516" y="26" type="curve" smooth="yes"/>
      <point x="486" y="26"/>
      <point x="460" y="35"/>
      <point x="460" y="69" type="curve" smooth="yes"/>
      <point x="460" y="485" type="line" smooth="yes"/>
      <point x="460" y="553"/>
      <point x="434" y="586"/>
      <point x="387" y="586" type="curve" smooth="yes"/>
      <point x="352" y="586"/>
      <point x="320" y="560"/>
      <point x="285" y="519" type="curve"/>
      <point x="251" y="560"/>
      <point x="219" y="586"/>
      <point x="184" y="586" type="curve" smooth="yes"/>
      <point x="138" y="586"/>
      <point x="110" y="554"/>
      <point x="110" y="492" type="curve" smooth="yes"/>
    </contour>
  </outline>
</glyph>
<glyph name="uni17E8" format="2">
  <advance width="594"/>
  <unicode hex="17E8"/>
  <note>
uni17E8
</note>
  <outline>
    <contour>
      <point x="110" y="0" type="line"/>
      <point x="148" y="0" type="line"/>
      <point x="298" y="118" type="line"/>
      <point x="446" y="0" type="line"/>
      <point x="484" y="0" type="line"/>
      <point x="484" y="306" type="line" smooth="yes"/>
      <point x="484" y="332"/>
      <point x="472" y="346"/>
      <point x="439" y="346" type="curve" smooth="yes"/>
      <point x="312" y="346" type="line"/>
      <point x="312" y="320" type="line"/>
      <point x="432" y="320" type="line" smooth="yes"/>
      <point x="457" y="320"/>
      <point x="458" y="306"/>
      <point x="458" y="280" type="curve" smooth="yes"/>
      <point x="458" y="24" type="line"/>
      <point x="298" y="150" type="line"/>
      <point x="136" y="23" type="line"/>
      <point x="136" y="430" type="line" smooth="yes"/>
      <point x="136" y="511"/>
      <point x="194" y="560"/>
      <point x="301" y="560" type="curve" smooth="yes"/>
      <point x="408" y="560"/>
      <point x="458" y="519"/>
      <point x="458" y="430" type="curve"/>
      <point x="484" y="430" type="line"/>
      <point x="484" y="714" type="line"/>
      <point x="458" y="714" type="line"/>
      <point x="458" y="526" type="line"/>
      <point x="436" y="556"/>
      <point x="379" y="586"/>
      <point x="301" y="586" type="curve" smooth="yes"/>
      <point x="186" y="586"/>
      <point x="110" y="534"/>
      <point x="110" y="430" type="curve" smooth="yes"/>
    </contour>
  </outline>
</glyph>
<glyph name="uni17E9" format="2">
  <advance width="575"/>
  <unicode hex="17E9"/>
  <note>
uni17E9
</note>
  <outline>
    <contour>
      <point x="298" y="0" type="curve" smooth="yes"/>
      <point x="423" y="0"/>
      <point x="485" y="60"/>
      <point x="485" y="142" type="curve" smooth="yes"/>
      <point x="485" y="219"/>
      <point x="424" y="240"/>
      <point x="347" y="240" type="curve" smooth="yes"/>
      <point x="298" y="240" type="line"/>
      <point x="298" y="214" type="line"/>
      <point x="347" y="214" type="line" smooth="yes"/>
      <point x="422" y="214"/>
      <point x="459" y="196"/>
      <point x="459" y="138" type="curve" smooth="yes"/>
      <point x="459" y="72"/>
      <point x="409" y="26"/>
      <point x="298" y="26" type="curve" smooth="yes"/>
      <point x="191" y="26"/>
      <point x="138" y="71"/>
      <point x="138" y="146" type="curve" smooth="yes"/>
      <point x="138" y="258" type="line" smooth="yes"/>
      <point x="138" y="303"/>
      <point x="160" y="333"/>
      <point x="190" y="333" type="curve" smooth="yes"/>
      <point x="445" y="333" type="line"/>
      <point x="445" y="359" type="line"/>
      <point x="187" y="359" type="line" smooth="yes"/>
      <point x="160" y="359"/>
      <point x="136" y="402"/>
      <point x="136" y="441" type="curve" smooth="yes"/>
      <point x="136" y="517"/>
      <point x="196" y="560"/>
      <point x="298" y="560" type="curve" smooth="yes"/>
      <point x="413" y="560"/>
      <point x="459" y="527"/>
      <point x="459" y="460" type="curve"/>
      <point x="485" y="460" type="line"/>
      <point x="485" y="714" type="line"/>
      <point x="459" y="714" type="line"/>
      <point x="459" y="541" type="line"/>
      <point x="413" y="578"/>
      <point x="358" y="586"/>
      <point x="298" y="586" type="curve" smooth="yes"/>
      <point x="204" y="586"/>
      <point x="110" y="546"/>
      <point x="110" y="442" type="curve" smooth="yes"/>
      <point x="110" y="385"/>
      <point x="138" y="362"/>
      <point x="146" y="346" type="curve"/>
      <point x="123" y="321"/>
      <point x="112" y="290"/>
      <point x="112" y="257" type="curve" smooth="yes"/>
      <point x="112" y="146" type="line" smooth="yes"/>
      <point x="112" y="49"/>
      <point x="182" y="0"/>
    </contour>
  </outline>
</glyph>
<glyph name="uni17F0" format="2">
  <advance width="389"/>
  <unicode hex="17F0"/>
  <note>
uni17F0
</note>
  <outline>
    <contour>
      <point x="194" y="6" type="curve" smooth="yes"/>
      <point x="273" y="6"/>
      <point x="313" y="61"/>
      <point x="313" y="171" type="curve" smooth="yes"/>
      <point x="313" y="281"/>
      <point x="273" y="336"/>
      <point x="194" y="336" type="curve" smooth="yes"/>
      <point x="115" y="336"/>
      <point x="76" y="281"/>
      <point x="76" y="171" type="curve" smooth="yes"/>
      <point x="76" y="61"/>
      <point x="115" y="6"/>
    </contour>
    <contour>
      <point x="194" y="32" type="curve" smooth="yes"/>
      <point x="134" y="32"/>
      <point x="102" y="70"/>
      <point x="102" y="171" type="curve" smooth="yes"/>
      <point x="102" y="272"/>
      <point x="134" y="310"/>
      <point x="194" y="310" type="curve" smooth="yes"/>
      <point x="255" y="310"/>
      <point x="287" y="271"/>
      <point x="287" y="171" type="curve" smooth="yes"/>
      <point x="287" y="70"/>
      <point x="256" y="32"/>
    </contour>
  </outline>
</glyph>
<glyph name="uni17F3" format="2">
  <advance width="633"/>
  <unicode hex="17F3"/>
  <note>
uni17F3
</note>
  <outline>
    <contour>
      <point x="419" y="342" type="line"/>
      <point x="401" y="342" type="line"/>
      <point x="304" y="35" type="line"/>
      <point x="204" y="342" type="line"/>
      <point x="186" y="342" type="line"/>
      <point x="76" y="0" type="line"/>
      <point x="102" y="0" type="line"/>
      <point x="195" y="303" type="line"/>
      <point x="291" y="0" type="line"/>
      <point x="315" y="0" type="line"/>
      <point x="410" y="303" type="line"/>
      <point x="504" y="0" type="line"/>
      <point x="530" y="0" type="line"/>
    </contour>
  </outline>
</glyph>
<glyph name="uni17F4" format="2">
  <advance width="391"/>
  <unicode hex="17F4"/>
  <note>
uni17F4
</note>
  <outline>
    <contour>
      <point x="184" y="0" type="line"/>
      <point x="210" y="0" type="line"/>
      <point x="317" y="342" type="line"/>
      <point x="291" y="342" type="line"/>
      <point x="198" y="39" type="line"/>
      <point x="102" y="342" type="line"/>
      <point x="76" y="342" type="line"/>
    </contour>
  </outline>
</glyph>
<glyph name="uni17F7" format="2">
  <advance width="510"/>
  <unicode hex="17F7"/>
  <note>
uni17F7
</note>
  <outline>
    <contour>
      <point x="86" y="0" type="line"/>
      <point x="114" y="0" type="line"/>
      <point x="209" y="285" type="line"/>
      <point x="296" y="0" type="line"/>
      <point x="309" y="0" type="line"/>
      <point x="424" y="342" type="line"/>
      <point x="396" y="342" type="line"/>
      <point x="304" y="66" type="line"/>
      <point x="218" y="342" type="line"/>
      <point x="203" y="342" type="line"/>
    </contour>
  </outline>
</glyph>
<glyph name="uni19E0" format="2">
  <advance width="635"/>
  <unicode hex="19E0"/>
  <note>
uni19E0
</note>
  <outline>
    <contour>
      <point x="297" y="432" type="curve" smooth="yes"/>
      <point x="414" y="432"/>
      <point x="484" y="494"/>
      <point x="484" y="618" type="curve" smooth="yes"/>
      <point x="484" y="832" type="line" smooth="yes"/>
      <point x="484" y="956"/>
      <point x="414" y="1018"/>
      <point x="297" y="1018" type="curve" smooth="yes"/>
      <point x="180" y="1018"/>
      <point x="110" y="956"/>
      <point x="110" y="832" type="curve" smooth="yes"/>
      <point x="110" y="618" type="line" smooth="yes"/>
      <point x="110" y="494"/>
      <point x="180" y="432"/>
    </contour>
    <contour>
      <point x="297" y="458" type="curve" smooth="yes"/>
      <point x="190" y="458"/>
      <point x="136" y="517"/>
      <point x="136" y="618" type="curve" smooth="yes"/>
      <point x="136" y="832" type="line" smooth="yes"/>
      <point x="136" y="933"/>
      <point x="190" y="992"/>
      <point x="297" y="992" type="curve" smooth="yes"/>
      <point x="404" y="992"/>
      <point x="458" y="933"/>
      <point x="458" y="832" type="curve" smooth="yes"/>
      <point x="458" y="618" type="line" smooth="yes"/>
      <point x="458" y="517"/>
      <point x="404" y="458"/>
    </contour>
    <contour>
      <point x="110" y="-288" type="line"/>
      <point x="148" y="-288" type="line"/>
      <point x="298" y="-170" type="line"/>
      <point x="446" y="-288" type="line"/>
      <point x="484" y="-288" type="line"/>
      <point x="484" y="18" type="line" smooth="yes"/>
      <point x="484" y="44"/>
      <point x="472" y="58"/>
      <point x="439" y="58" type="curve" smooth="yes"/>
      <point x="312" y="58" type="line"/>
      <point x="312" y="32" type="line"/>
      <point x="432" y="32" type="line" smooth="yes"/>
      <point x="457" y="32"/>
      <point x="458" y="18"/>
      <point x="458" y="-8" type="curve" smooth="yes"/>
      <point x="458" y="-264" type="line"/>
      <point x="298" y="-138" type="line"/>
      <point x="136" y="-265" type="line"/>
      <point x="136" y="142" type="line" smooth="yes"/>
      <point x="136" y="223"/>
      <point x="194" y="272"/>
      <point x="301" y="272" type="curve" smooth="yes"/>
      <point x="408" y="272"/>
      <point x="458" y="231"/>
      <point x="458" y="142" type="curve"/>
      <point x="484" y="142" type="line"/>
      <point x="484" y="426" type="line"/>
      <point x="458" y="426" type="line"/>
      <point x="458" y="238" type="line"/>
      <point x="436" y="268"/>
      <point x="379" y="298"/>
      <point x="301" y="298" type="curve" smooth="yes"/>
      <point x="186" y="298"/>
      <point x="110" y="246"/>
      <point x="110" y="142" type="curve" smooth="yes"/>
    </contour>
  </outline>
</glyph>
<glyph name="uni19E1" format="2">
  <advance width="635"/>
  <unicode hex="19E1"/>
  <note>
uni19E1
</note>
  <outline>
    <contour>
      <point x="296" y="390" type="curve" smooth="yes"/>
      <point x="413" y="390"/>
      <point x="483" y="444"/>
      <point x="483" y="546" type="curve" smooth="yes"/>
      <point x="483" y="820" type="line" smooth="yes"/>
      <point x="483" y="922"/>
      <point x="416" y="976"/>
      <point x="296" y="976" type="curve" smooth="yes"/>
      <point x="177" y="976"/>
      <point x="110" y="924"/>
      <point x="110" y="820" type="curve" smooth="yes"/>
      <point x="110" y="746" type="line" smooth="yes"/>
      <point x="110" y="683"/>
      <point x="152" y="644"/>
      <point x="206" y="644" type="curve" smooth="yes"/>
      <point x="296" y="644" type="line"/>
      <point x="296" y="670" type="line"/>
      <point x="204" y="670" type="line" smooth="yes"/>
      <point x="157" y="670"/>
      <point x="136" y="711"/>
      <point x="136" y="746" type="curve" smooth="yes"/>
      <point x="136" y="820" type="line" smooth="yes"/>
      <point x="136" y="901"/>
      <point x="189" y="950"/>
      <point x="296" y="950" type="curve" smooth="yes"/>
      <point x="403" y="950"/>
      <point x="457" y="901"/>
      <point x="457" y="820" type="curve" smooth="yes"/>
      <point x="457" y="546" type="line" smooth="yes"/>
      <point x="457" y="465"/>
      <point x="403" y="416"/>
      <point x="296" y="416" type="curve" smooth="yes"/>
      <point x="189" y="416"/>
      <point x="136" y="465"/>
      <point x="136" y="546" type="curve"/>
      <point x="110" y="546" type="line"/>
      <point x="110" y="445"/>
      <point x="181" y="390"/>
    </contour>
    <contour>
      <point x="429" y="-288" type="line"/>
      <point x="455" y="-288" type="line"/>
      <point x="455" y="298" type="line"/>
      <point x="429" y="298" type="line"/>
      <point x="392" y="236"/>
      <point x="323" y="143"/>
      <point x="241" y="143" type="curve" smooth="yes"/>
      <point x="176" y="143"/>
      <point x="157" y="184"/>
      <point x="157" y="214" type="curve" smooth="yes"/>
      <point x="157" y="238"/>
      <point x="177" y="272"/>
      <point x="235" y="272" type="curve" smooth="yes"/>
      <point x="244" y="272" type="line"/>
      <point x="244" y="298" type="line"/>
      <point x="243" y="298" type="line" smooth="yes"/>
      <point x="168" y="298"/>
      <point x="131" y="265"/>
      <point x="131" y="213" type="curve" smooth="yes"/>
      <point x="131" y="151"/>
      <point x="178" y="117"/>
      <point x="240" y="117" type="curve" smooth="yes"/>
      <point x="323" y="117"/>
      <point x="392" y="195"/>
      <point x="429" y="250" type="curve"/>
    </contour>
  </outline>
</glyph>
<glyph name="uni19E2" format="2">
  <advance width="754"/>
  <unicode hex="19E2"/>
  <note>
uni19E2
</note>
  <outline>
    <contour>
      <point x="378" y="391" type="curve" smooth="yes"/>
      <point x="517" y="391"/>
      <point x="602" y="454"/>
      <point x="602" y="586" type="curve" smooth="yes"/>
      <point x="602" y="977" type="line"/>
      <point x="576" y="977" type="line"/>
      <point x="440" y="859" type="line"/>
      <point x="307" y="977" type="line"/>
      <point x="281" y="977" type="line"/>
      <point x="281" y="699" type="line"/>
      <point x="334" y="699" type="line"/>
      <point x="334" y="725" type="line"/>
      <point x="307" y="725" type="line"/>
      <point x="307" y="942" type="line"/>
      <point x="440" y="824" type="line"/>
      <point x="576" y="942" type="line"/>
      <point x="576" y="586" type="line" smooth="yes"/>
      <point x="576" y="479"/>
      <point x="510" y="417"/>
      <point x="378" y="417" type="curve" smooth="yes"/>
      <point x="247" y="417"/>
      <point x="182" y="479"/>
      <point x="182" y="586" type="curve" smooth="yes"/>
      <point x="182" y="1081" type="line" smooth="yes"/>
      <point x="182" y="1099"/>
      <point x="178" y="1105"/>
      <point x="161" y="1105" type="curve" smooth="yes"/>
      <point x="108" y="1105" type="line"/>
      <point x="108" y="1079" type="line"/>
      <point x="156" y="1079" type="line"/>
      <point x="156" y="586" type="line" smooth="yes"/>
      <point x="156" y="456"/>
      <point x="239" y="391"/>
    </contour>
    <contour>
      <point x="535" y="-288" type="line"/>
      <point x="561" y="-288" type="line"/>
      <point x="561" y="298" type="line"/>
      <point x="535" y="298" type="line"/>
      <point x="498" y="236"/>
      <point x="429" y="143"/>
      <point x="347" y="143" type="curve" smooth="yes"/>
      <point x="282" y="143"/>
      <point x="263" y="184"/>
      <point x="263" y="214" type="curve" smooth="yes"/>
      <point x="263" y="238"/>
      <point x="283" y="272"/>
      <point x="341" y="272" type="curve" smooth="yes"/>
      <point x="350" y="272" type="line"/>
      <point x="350" y="298" type="line"/>
      <point x="349" y="298" type="line" smooth="yes"/>
      <point x="274" y="298"/>
      <point x="237" y="265"/>
      <point x="237" y="213" type="curve" smooth="yes"/>
      <point x="237" y="151"/>
      <point x="284" y="117"/>
      <point x="346" y="117" type="curve" smooth="yes"/>
      <point x="429" y="117"/>
      <point x="498" y="195"/>
      <point x="535" y="250" type="curve"/>
    </contour>
  </outline>
</glyph>
<glyph name="uni19E3" format="2">
  <advance width="861"/>
  <unicode hex="19E3"/>
  <note>
uni19E3
</note>
  <outline>
    <contour>
      <point x="110" y="391" type="line"/>
      <point x="185" y="391" type="line"/>
      <point x="185" y="417" type="line"/>
      <point x="136" y="417" type="line"/>
      <point x="136" y="821" type="line" smooth="yes"/>
      <point x="136" y="904"/>
      <point x="182" y="951"/>
      <point x="267" y="951" type="curve" smooth="yes"/>
      <point x="352" y="951"/>
      <point x="398" y="924"/>
      <point x="398" y="892" type="curve" smooth="yes"/>
      <point x="398" y="391" type="line"/>
      <point x="424" y="391" type="line"/>
      <point x="424" y="892" type="line" smooth="yes"/>
      <point x="424" y="924"/>
      <point x="467" y="951"/>
      <point x="554" y="951" type="curve" smooth="yes"/>
      <point x="639" y="951"/>
      <point x="685" y="904"/>
      <point x="685" y="831" type="curve" smooth="yes"/>
      <point x="685" y="391" type="line"/>
      <point x="711" y="391" type="line"/>
      <point x="711" y="831" type="line" smooth="yes"/>
      <point x="711" y="928"/>
      <point x="641" y="977"/>
      <point x="554" y="977" type="curve" smooth="yes"/>
      <point x="489" y="977"/>
      <point x="441" y="962"/>
      <point x="410" y="933" type="curve"/>
      <point x="379" y="962"/>
      <point x="331" y="977"/>
      <point x="267" y="977" type="curve" smooth="yes"/>
      <point x="180" y="977"/>
      <point x="110" y="930"/>
      <point x="110" y="826" type="curve" smooth="yes"/>
    </contour>
    <contour>
      <point x="567" y="-288" type="line"/>
      <point x="593" y="-288" type="line"/>
      <point x="593" y="298" type="line"/>
      <point x="567" y="298" type="line"/>
      <point x="530" y="236"/>
      <point x="461" y="143"/>
      <point x="379" y="143" type="curve" smooth="yes"/>
      <point x="314" y="143"/>
      <point x="295" y="184"/>
      <point x="295" y="214" type="curve" smooth="yes"/>
      <point x="295" y="238"/>
      <point x="315" y="272"/>
      <point x="373" y="272" type="curve" smooth="yes"/>
      <point x="382" y="272" type="line"/>
      <point x="382" y="298" type="line"/>
      <point x="381" y="298" type="line" smooth="yes"/>
      <point x="306" y="298"/>
      <point x="269" y="265"/>
      <point x="269" y="213" type="curve" smooth="yes"/>
      <point x="269" y="151"/>
      <point x="316" y="117"/>
      <point x="378" y="117" type="curve" smooth="yes"/>
      <point x="461" y="117"/>
      <point x="530" y="195"/>
      <point x="567" y="250" type="curve"/>
    </contour>
  </outline>
</glyph>
<glyph name="uni19E4" format="2">
  <advance width="682"/>
  <unicode hex="19E4"/>
  <note>
uni19E4
</note>
  <outline>
    <contour>
      <point x="343" y="391" type="curve" smooth="yes"/>
      <point x="503" y="391" type="line"/>
      <point x="525" y="422" type="line"/>
      <point x="396" y="618" type="line"/>
      <point x="396" y="823" type="line"/>
      <point x="530" y="823" type="line"/>
      <point x="530" y="849" type="line"/>
      <point x="420" y="849" type="line" smooth="yes"/>
      <point x="372" y="849"/>
      <point x="370" y="840"/>
      <point x="370" y="809" type="curve" smooth="yes"/>
      <point x="370" y="610" type="line"/>
      <point x="497" y="417" type="line"/>
      <point x="343" y="417" type="line" smooth="yes"/>
      <point x="236" y="417"/>
      <point x="183" y="479"/>
      <point x="183" y="586" type="curve" smooth="yes"/>
      <point x="183" y="1078" type="line" smooth="yes"/>
      <point x="183" y="1099"/>
      <point x="174" y="1104"/>
      <point x="157" y="1104" type="curve" smooth="yes"/>
      <point x="108" y="1104" type="line"/>
      <point x="108" y="1078" type="line"/>
      <point x="157" y="1078" type="line"/>
      <point x="157" y="586" type="line" smooth="yes"/>
      <point x="157" y="456"/>
      <point x="228" y="391"/>
    </contour>
    <contour>
      <point x="477" y="-288" type="line"/>
      <point x="503" y="-288" type="line"/>
      <point x="503" y="298" type="line"/>
      <point x="477" y="298" type="line"/>
      <point x="440" y="236"/>
      <point x="371" y="143"/>
      <point x="289" y="143" type="curve" smooth="yes"/>
      <point x="224" y="143"/>
      <point x="205" y="184"/>
      <point x="205" y="214" type="curve" smooth="yes"/>
      <point x="205" y="238"/>
      <point x="225" y="272"/>
      <point x="283" y="272" type="curve" smooth="yes"/>
      <point x="292" y="272" type="line"/>
      <point x="292" y="298" type="line"/>
      <point x="291" y="298" type="line" smooth="yes"/>
      <point x="216" y="298"/>
      <point x="179" y="265"/>
      <point x="179" y="213" type="curve" smooth="yes"/>
      <point x="179" y="151"/>
      <point x="226" y="117"/>
      <point x="288" y="117" type="curve" smooth="yes"/>
      <point x="371" y="117"/>
      <point x="440" y="195"/>
      <point x="477" y="250" type="curve"/>
    </contour>
  </outline>
</glyph>
<glyph name="uni19E5" format="2">
  <advance width="633"/>
  <unicode hex="19E5"/>
  <note>
uni19E5
</note>
  <outline>
    <contour>
      <point x="319" y="392" type="curve" smooth="yes"/>
      <point x="476" y="392" type="line"/>
      <point x="498" y="423" type="line"/>
      <point x="369" y="619" type="line"/>
      <point x="369" y="757" type="line"/>
      <point x="503" y="757" type="line"/>
      <point x="503" y="783" type="line"/>
      <point x="377" y="783" type="line" smooth="yes"/>
      <point x="345" y="783"/>
      <point x="343" y="774"/>
      <point x="343" y="743" type="curve" smooth="yes"/>
      <point x="343" y="611" type="line"/>
      <point x="470" y="418" type="line"/>
      <point x="316" y="418" type="line" smooth="yes"/>
      <point x="209" y="418"/>
      <point x="156" y="480"/>
      <point x="156" y="587" type="curve" smooth="yes"/>
      <point x="156" y="809" type="line" smooth="yes"/>
      <point x="156" y="873"/>
      <point x="194" y="905"/>
      <point x="226" y="917" type="curve"/>
      <point x="266" y="891"/>
      <point x="322" y="877"/>
      <point x="365" y="877" type="curve" smooth="yes"/>
      <point x="429" y="877"/>
      <point x="503" y="921"/>
      <point x="503" y="982" type="curve" smooth="yes"/>
      <point x="503" y="1106" type="line"/>
      <point x="477" y="1106" type="line"/>
      <point x="477" y="982" type="line" smooth="yes"/>
      <point x="477" y="943"/>
      <point x="422" y="903"/>
      <point x="365" y="903" type="curve" smooth="yes"/>
      <point x="325" y="903"/>
      <point x="279" y="911"/>
      <point x="254" y="929" type="curve"/>
      <point x="264" y="937"/>
      <point x="271" y="946"/>
      <point x="271" y="963" type="curve" smooth="yes"/>
      <point x="271" y="981"/>
      <point x="255" y="1000"/>
      <point x="231" y="1000" type="curve" smooth="yes"/>
      <point x="211" y="1000"/>
      <point x="194" y="984"/>
      <point x="194" y="963" type="curve" smooth="yes"/>
      <point x="194" y="951"/>
      <point x="198" y="944"/>
      <point x="206" y="935" type="curve"/>
      <point x="145" y="907"/>
      <point x="130" y="856"/>
      <point x="130" y="815" type="curve" smooth="yes"/>
      <point x="130" y="587" type="line" smooth="yes"/>
      <point x="130" y="457"/>
      <point x="199" y="392"/>
    </contour>
    <contour>
      <point x="449" y="-288" type="line"/>
      <point x="475" y="-288" type="line"/>
      <point x="475" y="298" type="line"/>
      <point x="449" y="298" type="line"/>
      <point x="412" y="236"/>
      <point x="343" y="143"/>
      <point x="261" y="143" type="curve" smooth="yes"/>
      <point x="196" y="143"/>
      <point x="177" y="184"/>
      <point x="177" y="214" type="curve" smooth="yes"/>
      <point x="177" y="238"/>
      <point x="197" y="272"/>
      <point x="255" y="272" type="curve" smooth="yes"/>
      <point x="264" y="272" type="line"/>
      <point x="264" y="298" type="line"/>
      <point x="263" y="298" type="line" smooth="yes"/>
      <point x="188" y="298"/>
      <point x="151" y="265"/>
      <point x="151" y="213" type="curve" smooth="yes"/>
      <point x="151" y="151"/>
      <point x="198" y="117"/>
      <point x="260" y="117" type="curve" smooth="yes"/>
      <point x="343" y="117"/>
      <point x="412" y="195"/>
      <point x="449" y="250" type="curve"/>
    </contour>
  </outline>
</glyph>
<glyph name="uni19E6" format="2">
  <advance width="635"/>
  <unicode hex="19E6"/>
  <note>
uni19E6
</note>
  <outline>
    <contour>
      <point x="296" y="391" type="curve" smooth="yes"/>
      <point x="415" y="391"/>
      <point x="483" y="460"/>
      <point x="483" y="586" type="curve" smooth="yes"/>
      <point x="483" y="782" type="line" smooth="yes"/>
      <point x="483" y="912"/>
      <point x="421" y="977"/>
      <point x="296" y="977" type="curve" smooth="yes"/>
      <point x="214" y="977"/>
      <point x="164" y="948"/>
      <point x="136" y="903" type="curve"/>
      <point x="136" y="1105" type="line"/>
      <point x="110" y="1105" type="line"/>
      <point x="110" y="813" type="line"/>
      <point x="136" y="813" type="line"/>
      <point x="142" y="901"/>
      <point x="189" y="951"/>
      <point x="296" y="951" type="curve" smooth="yes"/>
      <point x="403" y="951"/>
      <point x="457" y="889"/>
      <point x="457" y="782" type="curve" smooth="yes"/>
      <point x="457" y="586" type="line" smooth="yes"/>
      <point x="457" y="479"/>
      <point x="403" y="417"/>
      <point x="296" y="417" type="curve" smooth="yes"/>
      <point x="189" y="417"/>
      <point x="135" y="471"/>
      <point x="135" y="562" type="curve" smooth="yes"/>
      <point x="135" y="631"/>
      <point x="150" y="707"/>
      <point x="250" y="707" type="curve" smooth="yes"/>
      <point x="321" y="707" type="line"/>
      <point x="321" y="733" type="line"/>
      <point x="260" y="733" type="line" smooth="yes"/>
      <point x="149" y="733"/>
      <point x="110" y="676"/>
      <point x="110" y="562" type="curve" smooth="yes"/>
      <point x="110" y="453"/>
      <point x="174" y="391"/>
    </contour>
    <contour>
      <point x="429" y="-288" type="line"/>
      <point x="455" y="-288" type="line"/>
      <point x="455" y="298" type="line"/>
      <point x="429" y="298" type="line"/>
      <point x="392" y="236"/>
      <point x="323" y="143"/>
      <point x="241" y="143" type="curve" smooth="yes"/>
      <point x="176" y="143"/>
      <point x="157" y="184"/>
      <point x="157" y="214" type="curve" smooth="yes"/>
      <point x="157" y="238"/>
      <point x="177" y="272"/>
      <point x="235" y="272" type="curve" smooth="yes"/>
      <point x="244" y="272" type="line"/>
      <point x="244" y="298" type="line"/>
      <point x="243" y="298" type="line" smooth="yes"/>
      <point x="168" y="298"/>
      <point x="131" y="265"/>
      <point x="131" y="213" type="curve" smooth="yes"/>
      <point x="131" y="151"/>
      <point x="178" y="117"/>
      <point x="240" y="117" type="curve" smooth="yes"/>
      <point x="323" y="117"/>
      <point x="392" y="195"/>
      <point x="429" y="250" type="curve"/>
    </contour>
  </outline>
</glyph>
<glyph name="uni19E7" format="2">
  <advance width="748"/>
  <unicode hex="19E7"/>
  <note>
uni19E7
</note>
  <outline>
    <contour>
      <point x="110" y="391" type="line"/>
      <point x="249" y="391" type="line"/>
      <point x="249" y="417" type="line"/>
      <point x="136" y="417" type="line"/>
      <point x="136" y="892" type="line" smooth="yes"/>
      <point x="136" y="931"/>
      <point x="157" y="951"/>
      <point x="188" y="951" type="curve" smooth="yes"/>
      <point x="213" y="951"/>
      <point x="233" y="932"/>
      <point x="258" y="901" type="curve" smooth="yes"/>
      <point x="266" y="891"/>
      <point x="275" y="886"/>
      <point x="285" y="886" type="curve" smooth="yes"/>
      <point x="295" y="886"/>
      <point x="304" y="891"/>
      <point x="313" y="901" type="curve" smooth="yes"/>
      <point x="339" y="931"/>
      <point x="360" y="951"/>
      <point x="385" y="951" type="curve" smooth="yes"/>
      <point x="416" y="951"/>
      <point x="434" y="926"/>
      <point x="434" y="894" type="curve" smooth="yes"/>
      <point x="434" y="463" type="line" smooth="yes"/>
      <point x="434" y="412"/>
      <point x="469" y="391"/>
      <point x="516" y="391" type="curve" smooth="yes"/>
      <point x="563" y="391"/>
      <point x="598" y="412"/>
      <point x="598" y="463" type="curve" smooth="yes"/>
      <point x="598" y="1105" type="line"/>
      <point x="572" y="1105" type="line"/>
      <point x="572" y="460" type="line" smooth="yes"/>
      <point x="572" y="426"/>
      <point x="546" y="417"/>
      <point x="516" y="417" type="curve" smooth="yes"/>
      <point x="486" y="417"/>
      <point x="460" y="426"/>
      <point x="460" y="460" type="curve" smooth="yes"/>
      <point x="460" y="876" type="line" smooth="yes"/>
      <point x="460" y="944"/>
      <point x="434" y="977"/>
      <point x="387" y="977" type="curve" smooth="yes"/>
      <point x="352" y="977"/>
      <point x="320" y="951"/>
      <point x="285" y="910" type="curve"/>
      <point x="251" y="951"/>
      <point x="219" y="977"/>
      <point x="184" y="977" type="curve" smooth="yes"/>
      <point x="138" y="977"/>
      <point x="110" y="945"/>
      <point x="110" y="883" type="curve" smooth="yes"/>
    </contour>
    <contour>
      <point x="527" y="-288" type="line"/>
      <point x="553" y="-288" type="line"/>
      <point x="553" y="298" type="line"/>
      <point x="527" y="298" type="line"/>
      <point x="490" y="236"/>
      <point x="421" y="143"/>
      <point x="339" y="143" type="curve" smooth="yes"/>
      <point x="274" y="143"/>
      <point x="255" y="184"/>
      <point x="255" y="214" type="curve" smooth="yes"/>
      <point x="255" y="238"/>
      <point x="275" y="272"/>
      <point x="333" y="272" type="curve" smooth="yes"/>
      <point x="342" y="272" type="line"/>
      <point x="342" y="298" type="line"/>
      <point x="341" y="298" type="line" smooth="yes"/>
      <point x="266" y="298"/>
      <point x="229" y="265"/>
      <point x="229" y="213" type="curve" smooth="yes"/>
      <point x="229" y="151"/>
      <point x="276" y="117"/>
      <point x="338" y="117" type="curve" smooth="yes"/>
      <point x="421" y="117"/>
      <point x="490" y="195"/>
      <point x="527" y="250" type="curve"/>
    </contour>
  </outline>
</glyph>
<glyph name="uni19E8" format="2">
  <advance width="635"/>
  <unicode hex="19E8"/>
  <note>
uni19E8
</note>
  <outline>
    <contour>
      <point x="110" y="391" type="line"/>
      <point x="148" y="391" type="line"/>
      <point x="298" y="509" type="line"/>
      <point x="446" y="391" type="line"/>
      <point x="484" y="391" type="line"/>
      <point x="484" y="697" type="line" smooth="yes"/>
      <point x="484" y="723"/>
      <point x="472" y="737"/>
      <point x="439" y="737" type="curve" smooth="yes"/>
      <point x="312" y="737" type="line"/>
      <point x="312" y="711" type="line"/>
      <point x="432" y="711" type="line" smooth="yes"/>
      <point x="457" y="711"/>
      <point x="458" y="697"/>
      <point x="458" y="671" type="curve" smooth="yes"/>
      <point x="458" y="415" type="line"/>
      <point x="298" y="541" type="line"/>
      <point x="136" y="414" type="line"/>
      <point x="136" y="821" type="line" smooth="yes"/>
      <point x="136" y="902"/>
      <point x="194" y="951"/>
      <point x="301" y="951" type="curve" smooth="yes"/>
      <point x="408" y="951"/>
      <point x="458" y="910"/>
      <point x="458" y="821" type="curve"/>
      <point x="484" y="821" type="line"/>
      <point x="484" y="1105" type="line"/>
      <point x="458" y="1105" type="line"/>
      <point x="458" y="917" type="line"/>
      <point x="436" y="947"/>
      <point x="379" y="977"/>
      <point x="301" y="977" type="curve" smooth="yes"/>
      <point x="186" y="977"/>
      <point x="110" y="925"/>
      <point x="110" y="821" type="curve" smooth="yes"/>
    </contour>
    <contour>
      <point x="429" y="-288" type="line"/>
      <point x="455" y="-288" type="line"/>
      <point x="455" y="298" type="line"/>
      <point x="429" y="298" type="line"/>
      <point x="392" y="236"/>
      <point x="323" y="143"/>
      <point x="241" y="143" type="curve" smooth="yes"/>
      <point x="176" y="143"/>
      <point x="157" y="184"/>
      <point x="157" y="214" type="curve" smooth="yes"/>
      <point x="157" y="238"/>
      <point x="177" y="272"/>
      <point x="235" y="272" type="curve" smooth="yes"/>
      <point x="244" y="272" type="line"/>
      <point x="244" y="298" type="line"/>
      <point x="243" y="298" type="line" smooth="yes"/>
      <point x="168" y="298"/>
      <point x="131" y="265"/>
      <point x="131" y="213" type="curve" smooth="yes"/>
      <point x="131" y="151"/>
      <point x="178" y="117"/>
      <point x="240" y="117" type="curve" smooth="yes"/>
      <point x="323" y="117"/>
      <point x="392" y="195"/>
      <point x="429" y="250" type="curve"/>
    </contour>
  </outline>
</glyph>
<glyph name="uni19E9" format="2">
  <advance width="635"/>
  <unicode hex="19E9"/>
  <note>
uni19E9
</note>
  <outline>
    <contour>
      <point x="299" y="391" type="curve" smooth="yes"/>
      <point x="424" y="391"/>
      <point x="486" y="451"/>
      <point x="486" y="533" type="curve" smooth="yes"/>
      <point x="486" y="610"/>
      <point x="425" y="631"/>
      <point x="348" y="631" type="curve" smooth="yes"/>
      <point x="299" y="631" type="line"/>
      <point x="299" y="605" type="line"/>
      <point x="348" y="605" type="line" smooth="yes"/>
      <point x="423" y="605"/>
      <point x="460" y="587"/>
      <point x="460" y="529" type="curve" smooth="yes"/>
      <point x="460" y="463"/>
      <point x="410" y="417"/>
      <point x="299" y="417" type="curve" smooth="yes"/>
      <point x="192" y="417"/>
      <point x="139" y="462"/>
      <point x="139" y="537" type="curve" smooth="yes"/>
      <point x="139" y="649" type="line" smooth="yes"/>
      <point x="139" y="694"/>
      <point x="161" y="724"/>
      <point x="191" y="724" type="curve" smooth="yes"/>
      <point x="446" y="724" type="line"/>
      <point x="446" y="750" type="line"/>
      <point x="188" y="750" type="line" smooth="yes"/>
      <point x="161" y="750"/>
      <point x="137" y="793"/>
      <point x="137" y="832" type="curve" smooth="yes"/>
      <point x="137" y="908"/>
      <point x="197" y="951"/>
      <point x="299" y="951" type="curve" smooth="yes"/>
      <point x="414" y="951"/>
      <point x="460" y="918"/>
      <point x="460" y="851" type="curve"/>
      <point x="486" y="851" type="line"/>
      <point x="486" y="1105" type="line"/>
      <point x="460" y="1105" type="line"/>
      <point x="460" y="932" type="line"/>
      <point x="414" y="969"/>
      <point x="359" y="977"/>
      <point x="299" y="977" type="curve" smooth="yes"/>
      <point x="205" y="977"/>
      <point x="111" y="937"/>
      <point x="111" y="833" type="curve" smooth="yes"/>
      <point x="111" y="776"/>
      <point x="139" y="753"/>
      <point x="147" y="737" type="curve"/>
      <point x="124" y="712"/>
      <point x="113" y="681"/>
      <point x="113" y="648" type="curve" smooth="yes"/>
      <point x="113" y="537" type="line" smooth="yes"/>
      <point x="113" y="440"/>
      <point x="183" y="391"/>
    </contour>
    <contour>
      <point x="430" y="-288" type="line"/>
      <point x="456" y="-288" type="line"/>
      <point x="456" y="298" type="line"/>
      <point x="430" y="298" type="line"/>
      <point x="393" y="236"/>
      <point x="324" y="143"/>
      <point x="242" y="143" type="curve" smooth="yes"/>
      <point x="177" y="143"/>
      <point x="158" y="184"/>
      <point x="158" y="214" type="curve" smooth="yes"/>
      <point x="158" y="238"/>
      <point x="178" y="272"/>
      <point x="236" y="272" type="curve" smooth="yes"/>
      <point x="245" y="272" type="line"/>
      <point x="245" y="298" type="line"/>
      <point x="244" y="298" type="line" smooth="yes"/>
      <point x="169" y="298"/>
      <point x="132" y="265"/>
      <point x="132" y="213" type="curve" smooth="yes"/>
      <point x="132" y="151"/>
      <point x="179" y="117"/>
      <point x="241" y="117" type="curve" smooth="yes"/>
      <point x="324" y="117"/>
      <point x="393" y="195"/>
      <point x="430" y="250" type="curve"/>
    </contour>
  </outline>
</glyph>
